<?xml version="1.0" encoding="UTF-8" standalone="no"?>
<!-- Created with Inkscape (http://www.inkscape.org/) -->

<svg
   xmlns:dc="http://purl.org/dc/elements/1.1/"
   xmlns:cc="http://creativecommons.org/ns#"
   xmlns:rdf="http://www.w3.org/1999/02/22-rdf-syntax-ns#"
   xmlns:svg="http://www.w3.org/2000/svg"
   xmlns="http://www.w3.org/2000/svg"
   xmlns:sodipodi="http://sodipodi.sourceforge.net/DTD/sodipodi-0.dtd"
   xmlns:inkscape="http://www.inkscape.org/namespaces/inkscape"
   width="29.109459mm"
   height="32.512001mm"
   viewBox="0 0 29.109459 32.512001"
   version="1.1"
   id="svg8"
   inkscape:version="0.92.4 (5da689c313, 2019-01-14)"
   sodipodi:docname="calendar.svg">
  <defs
     id="defs2">
    <style
       id="style815">.cls-1{fill-rule:evenodd;}</style>
  </defs>
  <sodipodi:namedview
     id="base"
     pagecolor="#ffffff"
     bordercolor="#666666"
     borderopacity="1.0"
     inkscape:pageopacity="0.0"
     inkscape:pageshadow="2"
     inkscape:zoom="2.8"
     inkscape:cx="179.72525"
     inkscape:cy="20.930927"
     inkscape:document-units="mm"
     inkscape:current-layer="layer1"
     showgrid="false"
     inkscape:window-width="1920"
     inkscape:window-height="1017"
     inkscape:window-x="-8"
     inkscape:window-y="-8"
     inkscape:window-maximized="1" />
  <metadata
     id="metadata5">
    <rdf:RDF>
      <cc:Work
         rdf:about="">
        <dc:format>image/svg+xml</dc:format>
        <dc:type
           rdf:resource="http://purl.org/dc/dcmitype/StillImage" />
        <dc:title></dc:title>
      </cc:Work>
    </rdf:RDF>
  </metadata>
  <g
     inkscape:label="Layer 1"
     inkscape:groupmode="layer"
     id="layer1"
     transform="translate(-61.040509,-109.89876)">
    <path
       id="path821"
       d="m 61.53528,113.78549 h 5.995458 v -0.10319 -2.69081 c -0.0079,-0.6006 0.616479,-1.09273 1.383771,-1.09273 0.767292,0 1.386417,0.49477 1.386417,1.09273 v 2.69081 0.10319 h 10.212916 v -0.10319 -2.69081 c -0.01058,-0.6006 0.613834,-1.09273 1.378479,-1.09273 0.764646,0 1.391709,0.49477 1.391709,1.09273 v 2.69081 0.10319 h 6.379104 a 0.49477083,0.49477083 0 0 1 0.481542,0.49477 v 5.1435 a 0.49477083,0.49477083 0 0 1 -0.494771,0.49477 H 61.53528 a 0.5000625,0.5000625 0 0 1 -0.494771,-0.49477 v -5.14614 a 0.49477083,0.49477083 0 0 1 0.494771,-0.49213 z m 3.251729,21.73023 h 3.624792 c 0.219604,0 0.399521,0.13494 0.399521,0.29898 v 1.90764 c 0,0.16405 -0.179917,0.29898 -0.399521,0.29898 h -3.503084 c -0.219604,0 -0.396875,-0.13493 -0.396875,-0.29898 v -1.89441 c 0,-0.16404 0.179917,-0.29898 0.396875,-0.29898 z m 8.710083,0 h 3.627438 c 0.219604,0 0.396875,0.13494 0.396875,0.29898 v 1.90764 c 0,0.16405 -0.179917,0.29898 -0.396875,0.29898 h -3.627438 c -0.219604,0 -0.399521,-0.13493 -0.399521,-0.29898 v -1.89441 c 0,-0.16404 0.179917,-0.29898 0.399521,-0.29898 z m 8.646584,0 h 3.627437 c 0.219604,0 0.399521,0.13494 0.399521,0.29898 v 1.90764 c 0,0.16405 -0.179917,0.29898 -0.399521,0.29898 h -3.627437 c -0.219605,0 -0.399521,-0.13493 -0.399521,-0.29898 v -1.89441 a 0.36247917,0.36247917 0 0 1 0.399521,-0.29898 z m -17.356667,-5.32077 h 3.624792 c 0.219604,0 0.399521,0.13494 0.399521,0.30162 v 1.905 c 0,0.16405 -0.179917,0.29898 -0.399521,0.29898 h -3.503084 c -0.219604,0 -0.396875,-0.13493 -0.396875,-0.29898 v -1.905 a 0.35983333,0.35983333 0 0 1 0.396875,-0.30162 z m 8.710083,0 h 3.627438 a 0.35983333,0.35983333 0 0 1 0.396875,0.30162 v 1.905 c 0,0.16405 -0.179917,0.29898 -0.396875,0.29898 h -3.627438 c -0.219604,0 -0.399521,-0.13493 -0.399521,-0.29898 v -1.905 c 0,-0.16668 0.179917,-0.30162 0.399521,-0.30162 z m 8.646584,0 h 3.627437 c 0.219604,0 0.399521,0.13494 0.399521,0.30162 v 1.905 c 0,0.16405 -0.179917,0.29898 -0.399521,0.29898 h -3.627437 c -0.219605,0 -0.399521,-0.13493 -0.399521,-0.29898 v -1.905 a 0.36247917,0.36247917 0 0 1 0.399521,-0.30162 z m -17.356667,-5.32077 h 3.624792 c 0.219604,0 0.399521,0.13494 0.399521,0.30162 v 1.905 c 0,0.16404 -0.179917,0.30163 -0.399521,0.30163 h -3.503084 a 0.35983333,0.35983333 0 0 1 -0.396875,-0.30163 v -1.905 a 0.35983333,0.35983333 0 0 1 0.396875,-0.30162 z m 8.710083,0 h 3.627438 a 0.35983333,0.35983333 0 0 1 0.396875,0.30162 v 1.905 a 0.36247917,0.36247917 0 0 1 -0.396875,0.30163 h -3.627438 c -0.219604,0 -0.399521,-0.13494 -0.399521,-0.30163 v -1.905 c 0,-0.16668 0.179917,-0.30162 0.399521,-0.30162 z m 8.646584,0 h 3.627437 c 0.219604,0 0.399521,0.13494 0.399521,0.30162 v 1.905 c 0,0.16404 -0.179917,0.30163 -0.399521,0.30163 h -3.627437 c -0.219605,0 -0.399521,-0.13494 -0.399521,-0.30163 v -1.905 a 0.36247917,0.36247917 0 0 1 0.399521,-0.30162 z m -20.978813,-3.81265 h 28.863396 a 0.12170833,0.12170833 0 0 1 0.121708,0.12171 v 0 21.10581 a 0.12435417,0.12435417 0 0 1 -0.121708,0.12171 H 61.164863 a 0.12435417,0.12435417 0 0 1 -0.124354,-0.12171 v -21.10316 a 0.12435417,0.12435417 0 0 1 0.124354,-0.12436 z m 1.727729,1.4605 h 25.646063 a 0.26458333,0.26458333 0 0 1 0.248708,0.24871 v 17.93346 a 0.26458333,0.26458333 0 0 1 -0.248708,0.24871 H 62.649176 a 0.26458333,0.26458333 0 0 1 -0.248709,-0.24871 v -17.6874 a 0.49477083,0.49477083 0 0 1 0.492125,-0.49477 z"
       class="cls-1"
       inkscape:connector-curvature="0"
       style="fill-rule:evenodd;stroke-width:0.26458332;fill:#000000;fill-opacity:0.39215687" />
  </g>
</svg>
