<?xml version="1.0" encoding="UTF-8" standalone="no"?>
<!-- Created with Inkscape (http://www.inkscape.org/) -->

<svg
   xmlns:dc="http://purl.org/dc/elements/1.1/"
   xmlns:cc="http://creativecommons.org/ns#"
   xmlns:rdf="http://www.w3.org/1999/02/22-rdf-syntax-ns#"
   xmlns:svg="http://www.w3.org/2000/svg"
   xmlns="http://www.w3.org/2000/svg"
   xmlns:sodipodi="http://sodipodi.sourceforge.net/DTD/sodipodi-0.dtd"
   xmlns:inkscape="http://www.inkscape.org/namespaces/inkscape"
   width="32.512001mm"
   height="32.512001mm"
   viewBox="0 0 32.512001 32.512001"
   version="1.1"
   id="svg8"
   inkscape:version="0.92.4 (5da689c313, 2019-01-14)"
   sodipodi:docname="cc.svg">
  <defs
     id="defs2" />
  <sodipodi:namedview
     id="base"
     pagecolor="#ffffff"
     bordercolor="#666666"
     borderopacity="1.0"
     inkscape:pageopacity="0.0"
     inkscape:pageshadow="2"
     inkscape:zoom="3.959798"
     inkscape:cx="19.411898"
     inkscape:cy="40.105505"
     inkscape:document-units="mm"
     inkscape:current-layer="layer1"
     showgrid="false"
     inkscape:window-width="1920"
     inkscape:window-height="1017"
     inkscape:window-x="-8"
     inkscape:window-y="-8"
     inkscape:window-maximized="1" />
  <metadata
     id="metadata5">
    <rdf:RDF>
      <cc:Work
         rdf:about="">
        <dc:format>image/svg+xml</dc:format>
        <dc:type
           rdf:resource="http://purl.org/dc/dcmitype/StillImage" />
        <dc:title />
      </cc:Work>
    </rdf:RDF>
  </metadata>
  <g
     inkscape:label="Layer 1"
     inkscape:groupmode="layer"
     id="layer1"
     transform="translate(-85.797572,-106.87495)">
    <g
       id="g817"
       transform="matrix(0.26458333,0,0,0.26458333,85.797572,106.87495)"
       style="fill:#dcdcdc;fill-opacity:1">
      <path
         id="path815"
         d="m 61.44,0 c 16.97,0 32.33,6.88 43.44,18 11.12,11.12 18,26.48 18,43.44 0,16.97 -6.88,32.33 -18,43.44 -11.12,11.12 -26.48,18 -43.44,18 C 44.47,122.88 29.11,116 18,104.88 6.88,93.77 0,78.41 0,61.44 0,44.47 6.88,29.11 18,18 29.11,6.88 44.47,0 61.44,0 Z M 27.97,62.24 c 0,-2.28 0.38,-4.53 1.15,-6.74 0.77,-2.21 1.88,-4.2 3.35,-5.95 1.47,-1.76 3.25,-3.18 5.34,-4.27 2.09,-1.09 4.48,-1.63 7.17,-1.63 3.22,0 6.01,0.75 8.36,2.24 2.35,1.49 4.12,3.47 5.27,5.93 l -6.98,5.58 c -0.31,-0.91 -0.73,-1.67 -1.24,-2.26 -0.52,-0.6 -1.09,-1.07 -1.71,-1.42 -0.62,-0.35 -1.27,-0.6 -1.94,-0.74 -0.67,-0.14 -1.32,-0.21 -1.94,-0.21 -1.31,0 -2.44,0.29 -3.4,0.87 -0.95,0.58 -1.73,1.33 -2.34,2.26 -0.61,0.93 -1.06,1.98 -1.36,3.16 -0.3,1.18 -0.45,2.34 -0.45,3.5 0,1.3 0.17,2.55 0.52,3.74 0.34,1.19 0.84,2.25 1.5,3.16 0.66,0.91 1.46,1.64 2.41,2.19 0.95,0.54 2.02,0.82 3.21,0.82 0.62,0 1.27,-0.08 1.92,-0.24 0.66,-0.16 1.29,-0.42 1.9,-0.79 0.61,-0.37 1.16,-0.84 1.64,-1.42 0.48,-0.58 0.87,-1.29 1.15,-2.13 l 7.45,5 c -0.5,1.37 -1.26,2.6 -2.27,3.69 -1.02,1.09 -2.17,2 -3.47,2.74 -1.3,0.74 -2.69,1.3 -4.17,1.69 -1.48,0.39 -2.93,0.58 -4.33,0.58 -2.47,0 -4.72,-0.55 -6.77,-1.66 -2.05,-1.11 -3.81,-2.57 -5.29,-4.4 -1.48,-1.83 -2.63,-3.9 -3.44,-6.21 -0.84,-2.34 -1.24,-4.69 -1.24,-7.08 z m 34.5,0 c 0,-2.28 0.38,-4.53 1.15,-6.74 0.77,-2.21 1.88,-4.2 3.35,-5.95 1.47,-1.76 3.25,-3.18 5.34,-4.27 2.09,-1.09 4.48,-1.63 7.17,-1.63 3.22,0 6.01,0.75 8.36,2.24 2.36,1.49 4.12,3.47 5.27,5.93 l -6.98,5.58 c -0.31,-0.91 -0.73,-1.67 -1.24,-2.26 -0.52,-0.6 -1.09,-1.07 -1.71,-1.42 -0.62,-0.35 -1.27,-0.6 -1.94,-0.74 -0.67,-0.14 -1.32,-0.21 -1.94,-0.21 -1.31,0 -2.44,0.29 -3.4,0.87 -0.95,0.58 -1.73,1.33 -2.34,2.26 -0.61,0.93 -1.06,1.98 -1.36,3.16 -0.3,1.18 -0.45,2.34 -0.45,3.5 0,1.3 0.17,2.55 0.52,3.74 0.34,1.19 0.84,2.25 1.5,3.16 0.66,0.91 1.46,1.64 2.41,2.19 0.95,0.55 2.02,0.82 3.21,0.82 0.62,0 1.27,-0.08 1.92,-0.24 0.66,-0.16 1.29,-0.42 1.9,-0.79 0.61,-0.37 1.16,-0.84 1.64,-1.42 0.48,-0.58 0.87,-1.29 1.15,-2.13 l 7.45,5 c -0.5,1.37 -1.26,2.6 -2.27,3.69 -1.02,1.09 -2.17,2 -3.47,2.74 -1.3,0.74 -2.69,1.3 -4.17,1.69 -1.48,0.39 -2.93,0.58 -4.33,0.58 -2.47,0 -4.72,-0.55 -6.77,-1.66 -2.05,-1.11 -3.81,-2.57 -5.29,-4.4 -1.48,-1.83 -2.63,-3.9 -3.44,-6.21 -0.84,-2.34 -1.24,-4.69 -1.24,-7.08 z M 95.81,27.07 c -8.8,-8.8 -20.95,-14.24 -34.37,-14.24 -13.42,0 -25.57,5.44 -34.37,14.24 -8.8,8.8 -14.24,20.95 -14.24,34.37 0,13.42 5.44,25.57 14.24,34.37 8.8,8.8 20.95,14.24 34.37,14.24 13.42,0 25.57,-5.44 34.37,-14.24 8.8,-8.8 14.24,-20.95 14.24,-34.37 C 110.04,48.02 104.6,35.87 95.81,27.07 Z"
         inkscape:connector-curvature="0"
         style="fill:#dcdcdc;fill-opacity:1" />
    </g>
  </g>
</svg>
