<?xml version="1.0" encoding="UTF-8" standalone="no"?>
<svg
   xmlns:dc="http://purl.org/dc/elements/1.1/"
   xmlns:cc="http://creativecommons.org/ns#"
   xmlns:rdf="http://www.w3.org/1999/02/22-rdf-syntax-ns#"
   xmlns:svg="http://www.w3.org/2000/svg"
   xmlns="http://www.w3.org/2000/svg"
   xmlns:sodipodi="http://sodipodi.sourceforge.net/DTD/sodipodi-0.dtd"
   xmlns:inkscape="http://www.inkscape.org/namespaces/inkscape"
   id="Layer_1"
   data-name="Layer 1"
   viewBox="0 0 114.98 122.88"
   version="1.1"
   sodipodi:docname="creative-idea.svg"
   inkscape:version="0.92.4 (5da689c313, 2019-01-14)">
  <metadata
     id="metadata19">
    <rdf:RDF>
      <cc:Work
         rdf:about="">
        <dc:format>image/svg+xml</dc:format>
        <dc:type
           rdf:resource="http://purl.org/dc/dcmitype/StillImage" />
      </cc:Work>
    </rdf:RDF>
  </metadata>
  <sodipodi:namedview
     pagecolor="#ffffff"
     bordercolor="#666666"
     borderopacity="1"
     objecttolerance="10"
     gridtolerance="10"
     guidetolerance="10"
     inkscape:pageopacity="0"
     inkscape:pageshadow="2"
     inkscape:window-width="1149"
     inkscape:window-height="660"
     id="namedview17"
     showgrid="false"
     inkscape:zoom="1.920573"
     inkscape:cx="-7.3344037"
     inkscape:cy="61.439999"
     inkscape:window-x="-106"
     inkscape:window-y="276"
     inkscape:window-maximized="0"
     inkscape:current-layer="Layer_1" />
  <defs
     id="defs4">
    <style
       id="style2">.cls-1{fill:#333;}.cls-2{fill:#f4bb2c;}.cls-3{fill:#fff;}</style>
  </defs>
  <title
     id="title6">creative-idea</title>
  <path
     class="cls-1"
     d="M68.72,116.34a13.28,13.28,0,0,1-4.82,4.83,12.55,12.55,0,0,1-5.53,1.69,11.49,11.49,0,0,1-5.69-1.11,11.62,11.62,0,0,1-3.37-2.51l19.41-2.9Zm2.69-20.51-.63,3-.16,2.1-25.33,3.77a30.48,30.48,0,0,0-.71-4.83l26.83-4Zm-.84,9.65,0,1.27,0,.44a17.39,17.39,0,0,1,0,2.5l-.38,1.83L46.75,115l-.41-.94-.92-3.76,0-1.09,25.17-3.75Z"
     id="path8"
     style="fill:#202240;fill-opacity:1" />
  <path
     class="cls-1"
     d="M56.76,3.84a3.93,3.93,0,0,1,4-3.83h0L61,0a3.91,3.91,0,0,1,3.6,4h0a1.27,1.27,0,0,1,0,.2l-.21,8.37h0a2.45,2.45,0,0,1,0,.27,3.91,3.91,0,0,1-3.95,3.6h0l-.27,0a3.91,3.91,0,0,1-3.6-3.95h0a1.27,1.27,0,0,1,0-.2l.2-8.41ZM14.26,18.5a3.92,3.92,0,0,1,5.33-5.75l6.28,5.85a4,4,0,0,1,1.25,2.73,3.9,3.9,0,0,1-1,2.81,4,4,0,0,1-2.73,1.25,3.9,3.9,0,0,1-2.81-1L14.26,18.5ZM4,61.66a3.93,3.93,0,0,1-4-3.8,3.91,3.91,0,0,1,3.8-4l8.57-.29a3.91,3.91,0,0,1,4,3.8v.06h0v.14a3.91,3.91,0,0,1-3.8,3.84h-.15L4,61.66Zm106.7-12.15h.13A3.92,3.92,0,0,1,115,53v0a.49.49,0,0,1,0,.13,3.92,3.92,0,0,1-3.51,4.14l-8.53.9a3.92,3.92,0,0,1-.8-7.8c2.85-.31,5.71-.64,8.56-.91ZM93.8,15.38a3.91,3.91,0,0,1,5.43-1.07h0a3.87,3.87,0,0,1,1.66,2.49,4,4,0,0,1-.59,2.94l-4.77,7.13A3.92,3.92,0,1,1,89,22.52l4.78-7.14Z"
     id="path10"
     style="fill:#202240;fill-opacity:1" />
  <path
     class="cls-2"
     d="M36.37,82.46a48.18,48.18,0,0,1-8.22-11.74,35.56,35.56,0,0,1-3.55-15.4,36.1,36.1,0,0,1,4.34-16.46l.06-.11h0A31.23,31.23,0,0,1,44.24,25.43,33.76,33.76,0,0,1,60.1,23.16,36.48,36.48,0,0,1,75.24,28,31.27,31.27,0,0,1,88.46,43,33.22,33.22,0,0,1,91,54.65a33.6,33.6,0,0,1-2.57,13.67c-3,7.43-10,15.39-14.6,22.7A2.21,2.21,0,0,0,73,91L43.35,95.41a39.73,39.73,0,0,0-7-13Z"
     id="path12"
     style="fill:#fb6b2d;fill-opacity:1" />
  <path
     class="cls-3"
     d="M44.61,57.94a11.72,11.72,0,0,1,4.18,2.47,31.85,31.85,0,0,1,2.77,2.69A110.78,110.78,0,0,1,60.22,51a78.4,78.4,0,0,1,9.23-9.64l.73-.29h8.26L76.78,43A146.74,146.74,0,0,0,64.23,59.16,179,179,0,0,0,51.91,79.23a52.05,52.05,0,0,0-7.33-11.68,35.33,35.33,0,0,0-8.15-7.48l8.18-2.13Z"
     id="path14" />
</svg>
