<?xml version="1.0" encoding="UTF-8" standalone="no"?>
<svg
   xmlns:dc="http://purl.org/dc/elements/1.1/"
   xmlns:cc="http://creativecommons.org/ns#"
   xmlns:rdf="http://www.w3.org/1999/02/22-rdf-syntax-ns#"
   xmlns:svg="http://www.w3.org/2000/svg"
   xmlns="http://www.w3.org/2000/svg"
   xmlns:sodipodi="http://sodipodi.sourceforge.net/DTD/sodipodi-0.dtd"
   xmlns:inkscape="http://www.inkscape.org/namespaces/inkscape"
   version="1.1"
   viewBox="0 0 100 100"
   id="svg18"
   sodipodi:docname="creer.svg"
   inkscape:version="0.92.4 (5da689c313, 2019-01-14)">
  <metadata
     id="metadata24">
    <rdf:RDF>
      <cc:Work
         rdf:about="">
        <dc:format>image/svg+xml</dc:format>
        <dc:type
           rdf:resource="http://purl.org/dc/dcmitype/StillImage" />
      </cc:Work>
    </rdf:RDF>
  </metadata>
  <defs
     id="defs22" />
  <sodipodi:namedview
     pagecolor="#ffffff"
     bordercolor="#666666"
     borderopacity="1"
     objecttolerance="10"
     gridtolerance="10"
     guidetolerance="10"
     inkscape:pageopacity="0"
     inkscape:pageshadow="2"
     inkscape:window-width="1110"
     inkscape:window-height="741"
     id="namedview20"
     showgrid="false"
     inkscape:zoom="2.36"
     inkscape:cx="-2.7542373"
     inkscape:cy="50"
     inkscape:window-x="0"
     inkscape:window-y="0"
     inkscape:window-maximized="0"
     inkscape:current-layer="g16" />
  <g
     transform="translate(0 -952.36)"
     id="g16">
    <circle
       cx="50"
       cy="1002.4"
       r="45.669"
       fill="#252525"
       id="circle2"
       style="fill:#5d21bc;fill-opacity:1" />
    <g
       transform="matrix(.82431 0 0 .82431 11.917 184.81)"
       id="g14">
      <rect
         x="14.38"
         y="1013.1"
         width="31.649"
         height="2.4528"
         ry="1.2264"
         fill="#fff"
         id="rect4" />
      <rect
         transform="matrix(.86603 .5 -.5 .86603 0 0)"
         x="541.4"
         y="804.81"
         width="13.826"
         height="38.28"
         ry="1.1233"
         fill="#fff"
         id="rect6" />
      <path
         d="m47.249 1014.8c-0.37998-0.2194-0.24398-1.3056-0.24398-1.3056l0.21428-2.0994 0.21435-2.0995 0.21428-2.0993 0.21432-2.0994 0.21428-2.0994 0.21435-2.0994 0.21428-2.0994 1.4967 0.8641 1.4967 0.8641 1.4967 0.8641 1.4967 0.8641 1.4967 0.8641 1.4967 0.8641 1.4967 0.8641 1.4967 0.8641-1.711 1.2353-1.711 1.2353-1.711 1.2353-1.711 1.2353-1.711 1.2353-1.711 1.2353-1.711 1.2353s-0.87272 0.6609-1.2527 0.4415z"
         fill="#fff"
         id="path8" />
      <rect
         transform="matrix(.86603 .5 -.5 .86603 0 0)"
         x="541.06"
         y="839.05"
         width="14.496"
         height="1.4942"
         ry="0"
         fill="#252525"
         id="rect10" />
      <rect
         transform="matrix(.86603 .5 -.5 .86603 0 0)"
         x="541.17"
         y="807.37"
         width="14.496"
         height="1.4942"
         ry="0"
         fill="#252525"
         id="rect12" />
    </g>
  </g>
</svg>
