<?xml version="1.0" encoding="UTF-8" standalone="no"?>
<svg
   xmlns:dc="http://purl.org/dc/elements/1.1/"
   xmlns:cc="http://creativecommons.org/ns#"
   xmlns:rdf="http://www.w3.org/1999/02/22-rdf-syntax-ns#"
   xmlns:svg="http://www.w3.org/2000/svg"
   xmlns="http://www.w3.org/2000/svg"
   xmlns:sodipodi="http://sodipodi.sourceforge.net/DTD/sodipodi-0.dtd"
   xmlns:inkscape="http://www.inkscape.org/namespaces/inkscape"
   version="1.1"
   id="Layer_1"
   x="0px"
   y="0px"
   viewBox="0 0 122.88 86.686"
   enable-background="new 0 0 122.88 86.686"
   xml:space="preserve"
   sodipodi:docname="cross-platform.svg"
   inkscape:version="0.92.4 (5da689c313, 2019-01-14)"><metadata
     id="metadata11"><rdf:RDF><cc:Work
         rdf:about=""><dc:format>image/svg+xml</dc:format><dc:type
           rdf:resource="http://purl.org/dc/dcmitype/StillImage" /></cc:Work></rdf:RDF></metadata><defs
     id="defs9" /><sodipodi:namedview
     pagecolor="#ffffff"
     bordercolor="#666666"
     borderopacity="1"
     objecttolerance="10"
     gridtolerance="10"
     guidetolerance="10"
     inkscape:pageopacity="0"
     inkscape:pageshadow="2"
     inkscape:window-width="1920"
     inkscape:window-height="1017"
     id="namedview7"
     showgrid="false"
     inkscape:zoom="4.6712241"
     inkscape:cx="48.463428"
     inkscape:cy="45.291728"
     inkscape:window-x="-8"
     inkscape:window-y="-8"
     inkscape:window-maximized="1"
     inkscape:current-layer="g4" /><g
     id="g4"><path
       fill-rule="evenodd"
       clip-rule="evenodd"
       d="M53.995,73.994h25.399c0.064,4.396,1.872,8.325,6.783,11.429H47.22 C51.14,82.576,54.013,79.116,53.995,73.994L53.995,73.994L53.995,73.994L53.995,73.994z M41.118,30.451v53.131 c0,1.012-0.829,1.841-1.84,1.841H1.841C0.829,85.423,0,84.594,0,83.582V30.451c0-1.011,0.829-1.84,1.841-1.84h37.432 C40.289,28.611,41.118,29.439,41.118,30.451L41.118,30.451L41.118,30.451z M20.557,79.303c1.164,0,2.11,0.945,2.11,2.109 s-0.946,2.11-2.11,2.11s-2.11-0.946-2.11-2.11C18.452,80.248,19.393,79.303,20.557,79.303L20.557,79.303L20.557,79.303z M38.622,31.895v45.537H2.755V31.895H38.622L38.622,31.895L38.622,31.895z M102.54,44.215h15.942c1.213,0,2.32,0.495,3.109,1.29 c0.8,0.801,1.288,1.902,1.288,3.109v33.673c0,1.214-0.494,2.321-1.288,3.109c-0.802,0.802-1.902,1.289-3.109,1.289H102.54 c-1.214,0-2.321-0.494-3.109-1.289c-0.801-0.8-1.289-1.901-1.289-3.109V48.608c0-1.214,0.494-2.321,1.289-3.11 C100.231,44.698,101.326,44.215,102.54,44.215L102.54,44.215L102.54,44.215z M99.657,80.576h21.701V49.012H99.657V80.576 L99.657,80.576z M110.505,81.952c0.995,0,1.808,0.801,1.808,1.808c0,0.996-0.801,1.809-1.808,1.809 c-0.995,0-1.809-0.801-1.809-1.809C108.696,82.766,109.497,81.952,110.505,81.952L110.505,81.952L110.505,81.952z M17.5,0h97.411 c1.542,0,2.8,1.257,2.8,2.8v31.73h-3.976V6.268c0-1.359-1.11-2.479-2.479-2.479H21.145l0,0c-1.359,0-2.479,1.11-2.479,2.479v16.178 H14.7V2.8C14.7,1.257,15.958,0,17.5,0L17.5,0L17.5,0L17.5,0z M47.03,60.417h45.478v9.713H47.03V60.417L47.03,60.417z"
       id="path2"
       style="fill:#fb6b2d;fill-opacity:1" /><path
       style="opacity:1;fill:#202240;fill-opacity:1;fill-rule:evenodd;stroke:#202240;stroke-width:0.376;stroke-linecap:round;stroke-linejoin:round;stroke-miterlimit:4;stroke-dasharray:none;stroke-dashoffset:0;stroke-opacity:1;paint-order:markers fill stroke"
       d="M 113.81159,20.134883 V 5.7780624 l -0.35195,-0.6671527 c -0.21941,-0.4159123 -0.5757,-0.794478 -0.9461,-1.0052566 L 111.9194,3.7675495 H 66.204134 20.488868 l -0.6055,0.3387268 C 19.484405,4.3294631 19.161691,4.6751765 18.937274,5.1197987 L 18.59668,5.7945945 V 14.088147 22.3817 H 16.704492 14.812304 V 12.215028 2.0483549 L 15.197272,1.3914564 C 15.434923,0.98593651 15.809143,0.61880062 16.175179,0.43206289 16.764401,0.13146445 17.078266,0.12958351 66.235947,0.13205808 l 49.467833,0.00249 0.60241,0.34118904 c 0.33777,0.19130257 0.7523,0.60583368 0.9436,0.94360388 l 0.34119,0.6024149 0.002,16.2349741 0.002,16.234975 h -1.89218 -1.89219 z"
       id="path837"
       inkscape:connector-curvature="0" /><path
       style="opacity:1;fill:#202240;fill-opacity:1;fill-rule:evenodd;stroke:#202240;stroke-width:0.557;stroke-linecap:round;stroke-linejoin:round;stroke-miterlimit:4;stroke-dasharray:none;stroke-dashoffset:0;stroke-opacity:1;paint-order:markers fill stroke"
       d="M 47.142142,65.270612 V 60.42661 h 22.63057 22.63057 v 4.844002 4.844002 h -22.63057 -22.63057 z"
       id="path839"
       inkscape:connector-curvature="0" /><path
       style="opacity:1;fill:#202240;fill-opacity:1;fill-rule:evenodd;stroke:#202240;stroke-width:0.357;stroke-linecap:round;stroke-linejoin:round;stroke-miterlimit:4;stroke-dasharray:none;stroke-dashoffset:0;stroke-opacity:1;paint-order:markers fill stroke"
       d="m 47.528148,85.280548 c 0.07909,-0.06762 0.714104,-0.595541 1.411134,-1.173157 3.012888,-2.496725 4.700119,-5.53956 5.093914,-9.18662 l 0.09398,-0.870406 h 12.628925 12.628924 v 0.667871 c 0,1.019781 0.381782,2.793817 0.874091,4.061674 0.81787,2.106277 2.561497,4.29252 4.651098,5.831771 0.499538,0.367971 0.936634,0.696663 0.971324,0.730426 0.03469,0.03376 -8.612989,0.06139 -19.217063,0.06139 -10.604075,0 -19.215423,-0.05533 -19.13633,-0.122946 z"
       id="path841"
       inkscape:connector-curvature="0" /></g></svg>