<?xml version="1.0" encoding="UTF-8" standalone="no"?>
<svg
   xmlns:dc="http://purl.org/dc/elements/1.1/"
   xmlns:cc="http://creativecommons.org/ns#"
   xmlns:rdf="http://www.w3.org/1999/02/22-rdf-syntax-ns#"
   xmlns:svg="http://www.w3.org/2000/svg"
   xmlns="http://www.w3.org/2000/svg"
   xmlns:sodipodi="http://sodipodi.sourceforge.net/DTD/sodipodi-0.dtd"
   xmlns:inkscape="http://www.inkscape.org/namespaces/inkscape"
   version="1.1"
   id="Layer_1"
   x="0px"
   y="0px"
   viewBox="0 0 110.66 122.88"
   style="enable-background:new 0 0 110.66 122.88"
   xml:space="preserve"
   sodipodi:docname="data-analytics.svg"
   inkscape:version="0.92.4 (5da689c313, 2019-01-14)"><metadata
     id="metadata13"><rdf:RDF><cc:Work
         rdf:about=""><dc:format>image/svg+xml</dc:format><dc:type
           rdf:resource="http://purl.org/dc/dcmitype/StillImage" /></cc:Work></rdf:RDF></metadata><defs
     id="defs11" /><sodipodi:namedview
     pagecolor="#ffffff"
     bordercolor="#666666"
     borderopacity="1"
     objecttolerance="10"
     gridtolerance="10"
     guidetolerance="10"
     inkscape:pageopacity="0"
     inkscape:pageshadow="2"
     inkscape:window-width="1366"
     inkscape:window-height="705"
     id="namedview9"
     showgrid="false"
     inkscape:zoom="1.920573"
     inkscape:cx="-9.4944035"
     inkscape:cy="61.439999"
     inkscape:window-x="-8"
     inkscape:window-y="-8"
     inkscape:window-maximized="1"
     inkscape:current-layer="Layer_1" /><style
     type="text/css"
     id="style2">.st0{fill-rule:evenodd;clip-rule:evenodd;}</style><g
     id="g6"
     style="fill:#5d21bc;fill-opacity:1"><path
       class="st0"
       d="M81.81,70.82c6.27,0,11.95,2.55,16.07,6.65c4.12,4.12,6.65,9.78,6.65,16.07c0,4.58-1.37,8.86-3.7,12.43 l9.83,10.71l-6.78,6.2l-9.48-10.43c-3.6,2.4-7.93,3.8-12.58,3.8c-6.27,0-11.95-2.55-16.06-6.65c-4.12-4.12-6.65-9.78-6.65-16.06 c0-6.27,2.55-11.95,6.65-16.07C69.86,73.35,75.53,70.82,81.81,70.82L81.81,70.82L81.81,70.82z M5.78,40.86L5.78,40.86l0,47.09 c0,0.27,0.1,0.52,0.27,0.69c0.17,0.17,0.41,0.28,0.69,0.28h42.53c2.93,0.3,3.02,5.37,0,5.81H22.05v10.8c0,0.28,0.1,0.52,0.28,0.69 c0.17,0.17,0.41,0.27,0.69,0.27l26.26,0c2.12,0.24,2.81,5.06,0,5.81H23.05c-1.86,0-3.58-0.76-4.78-2c-1.24-1.24-2-2.92-2-4.78 l0-10.8h-9.5c-1.86,0-3.58-0.76-4.78-2c-1.24-1.24-2-2.92-2-4.78V6.78C0,4.92,0.76,3.2,2,2c1.24-1.24,2.92-2,4.78-2H78.1 c1.86,0,3.58,0.76,4.78,1.99c1.24,1.24,1.99,2.93,1.99,4.78v10.8l0,0l0,0h9.5c1.86,0,3.58,0.76,4.78,1.99c1.24,1.24,2,2.93,2,4.78 v37.03c-0.2,2.12-5.41,2.15-5.85,0V24.36c0-0.28-0.1-0.52-0.27-0.69c-0.17-0.17-0.41-0.28-0.69-0.28h-9.5v37.99 c-0.51,1.92-4.84,2.21-5.81,0V40.86h0H5.78L5.78,40.86z M5.78,35.51L5.78,35.51h73.25h0V6.78c0-0.28-0.1-0.52-0.28-0.69 c-0.17-0.17-0.41-0.28-0.69-0.28H6.74c-0.28,0-0.52,0.1-0.69,0.28C5.88,6.26,5.78,6.5,5.78,6.78V35.51L5.78,35.51z M38.96,21.54 h4.72c0.25,0,0.42,0.17,0.42,0.42v10.46c0,0.25-0.17,0.42-0.42,0.42h-4.72c-0.25,0-0.42-0.17-0.42-0.42V21.96 C38.54,21.8,38.71,21.54,38.96,21.54L38.96,21.54L38.96,21.54L38.96,21.54z M62.22,21.54h4.72c0.25,0,0.42,0.17,0.42,0.42v10.46 c0,0.25-0.17,0.42-0.42,0.42h-4.72c-0.25,0-0.42-0.17-0.42-0.42V21.96C61.8,21.8,61.97,21.54,62.22,21.54L62.22,21.54L62.22,21.54 L62.22,21.54z M50.59,12.69h4.72c0.26,0,0.42,0.17,0.42,0.42v19.39c0,0.25-0.17,0.42-0.42,0.42h-4.72c-0.25,0-0.42-0.17-0.42-0.42 V13.11C50.17,12.86,50.34,12.69,50.59,12.69L50.59,12.69L50.59,12.69L50.59,12.69z M15.71,15.89h4.72c0.25,0,0.42,0.17,0.42,0.42 v16.19c0,0.25-0.17,0.42-0.42,0.42h-4.72c-0.25,0-0.42-0.17-0.42-0.42V16.32C15.21,16.06,15.46,15.89,15.71,15.89L15.71,15.89 L15.71,15.89L15.71,15.89L15.71,15.89z M27.33,12.69h4.72c0.25,0,0.42,0.17,0.42,0.42v19.39c0,0.25-0.17,0.42-0.42,0.42h-4.72 c-0.25,0-0.42-0.17-0.42-0.42V13.11C26.91,12.86,27.08,12.69,27.33,12.69L27.33,12.69L27.33,12.69L27.33,12.69z M42.69,67.18 l13.15,0.23c0,4.72-2.32,9.05-6.19,11.68L42.69,67.18L42.69,67.18L42.69,67.18L42.69,67.18z M41.97,63.16l-0.15-15.32v-1.01 l1.01,0.08l0,0l0,0c1.24,0.08,2.48,0.31,3.64,0.62c1.16,0.31,2.24,0.77,3.33,1.31c5.34,2.79,9.05,8.36,9.36,14.7l0.08,1.01h-1.01 l-15.24-0.46h-0.85L41.97,63.16L41.97,63.16L41.97,63.16L41.97,63.16z M43.67,48.76l0.15,13.47l13.39,0.39 c-0.54-5.26-3.79-9.83-8.28-12.22C48,49.93,47,49.54,45.99,49.23C45.14,49.07,44.44,48.92,43.67,48.76L43.67,48.76L43.67,48.76 L43.67,48.76z M38.28,65.81l7.51,13c-2.32,1.32-4.87,2.01-7.51,2.01c-8.28,0-15.01-6.73-15.01-15.02c0-8.05,6.35-14.7,14.39-15.01 L38.28,65.81L38.28,65.81L38.28,65.81L38.28,65.81z M93.89,81.45c-3.09-3.09-7.36-5.01-12.08-5.01c-4.71,0-8.99,1.92-12.08,5.01 c-3.09,3.09-5.01,7.36-5.01,12.08c0,4.71,1.92,8.99,5.01,12.08c3.09,3.09,7.36,5.01,12.08,5.01c4.71,0,8.99-1.92,12.08-5.01 c3.09-3.09,5.01-7.37,5.01-12.08C98.9,88.82,96.98,84.54,93.89,81.45L93.89,81.45L93.89,81.45L93.89,81.45z"
       id="path4"
       style="fill:#5d21bc;fill-opacity:1" /></g></svg>