<?xml version="1.0" encoding="UTF-8" standalone="no"?>
<svg
   xmlns:dc="http://purl.org/dc/elements/1.1/"
   xmlns:cc="http://creativecommons.org/ns#"
   xmlns:rdf="http://www.w3.org/1999/02/22-rdf-syntax-ns#"
   xmlns:svg="http://www.w3.org/2000/svg"
   xmlns="http://www.w3.org/2000/svg"
   xmlns:sodipodi="http://sodipodi.sourceforge.net/DTD/sodipodi-0.dtd"
   xmlns:inkscape="http://www.inkscape.org/namespaces/inkscape"
   version="1.1"
   id="Layer_1"
   x="0px"
   y="0px"
   viewBox="0 0 95.71 122.88"
   style="enable-background:new 0 0 95.71 122.88"
   xml:space="preserve"
   sodipodi:docname="diagnostic.svg"
   inkscape:version="0.92.4 (5da689c313, 2019-01-14)"><metadata
     id="metadata11"><rdf:RDF><cc:Work
         rdf:about=""><dc:format>image/svg+xml</dc:format><dc:type
           rdf:resource="http://purl.org/dc/dcmitype/StillImage" /></cc:Work></rdf:RDF></metadata><defs
     id="defs9" /><sodipodi:namedview
     pagecolor="#ffffff"
     bordercolor="#666666"
     borderopacity="1"
     objecttolerance="10"
     gridtolerance="10"
     guidetolerance="10"
     inkscape:pageopacity="0"
     inkscape:pageshadow="2"
     inkscape:window-width="1366"
     inkscape:window-height="705"
     id="namedview7"
     showgrid="false"
     inkscape:zoom="1.920573"
     inkscape:cx="-16.969406"
     inkscape:cy="61.439999"
     inkscape:window-x="-8"
     inkscape:window-y="-8"
     inkscape:window-maximized="1"
     inkscape:current-layer="g4" /><g
     id="g4"><path
       d="m 63.33,12.26 c -0.3,0 -0.56,-0.04 -0.82,-0.13 -1.33,0 -2.45,-1.08 -2.45,-2.45 V 4.87 H 36.33 v 4.82 c 0,1.24 -0.99,2.32 -2.2,2.41 -0.26,0.09 -0.56,0.13 -0.86,0.13 h -8.94 v 9.97 h 46.82 v -9.98 h -7.91 z m -46.31,89.23 c -0.67,-0.99 -0.4,-2.34 0.6,-3.01 0.99,-0.67 2.34,-0.41 3.01,0.6 l 1.19,1.75 4.69,-5.71 c 0.76,-0.93 2.13,-1.06 3.05,-0.3 0.93,0.76 1.06,2.13 0.3,3.05 l -6.5,7.9 c -0.14,0.18 -0.32,0.35 -0.52,0.49 -0.99,0.67 -2.34,0.4 -3.01,-0.6 z m 23.28,0.14 c -1.33,0 -2.45,-1.08 -2.45,-2.45 0,-1.33 1.08,-2.45 2.45,-2.45 h 35.81 c 1.33,0 2.45,1.08 2.45,2.45 0,1.33 -1.08,2.45 -2.45,2.45 z M 17.02,79.4 c -0.67,-0.99 -0.4,-2.34 0.6,-3.01 0.99,-0.67 2.34,-0.41 3.01,0.6 l 1.19,1.75 4.69,-5.71 c 0.76,-0.93 2.13,-1.06 3.05,-0.3 0.93,0.76 1.06,2.13 0.3,3.05 l -6.5,7.9 c -0.14,0.18 -0.32,0.35 -0.52,0.49 -0.99,0.67 -2.34,0.4 -3.01,-0.6 z m 23.28,0.14 c -1.33,0 -2.45,-1.08 -2.45,-2.45 0,-1.33 1.08,-2.45 2.45,-2.45 h 35.81 c 1.33,0 2.45,1.08 2.45,2.45 0,1.33 -1.08,2.45 -2.45,2.45 z M 17.36,49.24 h 13.45 l 4.39,-8.89 8.3,11.97 8.44,-16.46 8.77,17.18 3.39,-3.11 1.76,-0.69 h 12.49 v 5.2 H 66.86 L 59.18,61.49 51.91,47.25 44.16,62.37 35.95,50.53 34.02,54.44 H 17.36 Z M 4.82,118.06 H 90.76 V 66.1261 19.13 C 90.76,19 90.72,18.83 90.59,18.74 90.5,18.65 90.38,18.57 90.2,18.57 H 76.1 v 4.9 c 0,0.99 -0.39,1.89 -1.08,2.58 -0.65,0.65 -1.55,1.08 -2.58,1.08 H 23.13 c -0.99,0 -1.94,-0.43 -2.58,-1.08 -0.09,-0.09 -0.13,-0.17 -0.21,-0.26 -0.52,-0.65 -0.86,-1.47 -0.86,-2.32 v -4.9 H 5.38 c -0.13,0 -0.3,0.04 -0.39,0.17 C 4.91,18.83 4.82,19 4.82,19.13 Z m 88.49,4.71 v 0.11 H 0 v -0.11 -4.71 -98.93 c 0,-1.5 0.6,-2.83 1.59,-3.83 0.99,-1 2.32,-1.59 3.83,-1.59 h 14.1 v -2.67 c 0,-0.99 0.39,-1.89 1.08,-2.58 0.65,-0.65 1.55,-1.08 2.58,-1.08 h 8.35 V 4.04 C 31.53,2.92 32,1.93 32.73,1.21 33.45,0.47 34.44,0 35.56,0 h 25.41 c 1.12,0 2.11,0.47 2.83,1.2 0.73,0.73 1.21,1.72 1.21,2.83 v 3.35 h 7.53 c 0.99,0 1.89,0.43 2.58,1.08 0.65,0.65 1.08,1.59 1.08,2.58 v 2.67 h 14.1 c 1.5,0 2.83,0.6 3.83,1.59 0.99,0.99 1.59,2.32 1.59,3.83 v 103.63 h -2.41 z"
       id="path2"
       style="fill:#5d21bc;fill-opacity:1;stroke-width:0.2;stroke-miterlimit:4;stroke-dasharray:none"
       inkscape:connector-curvature="0"
       sodipodi:nodetypes="ccsccscscccccccccccccccccssssssscccccccccccssssssscccccccccccccccccccccscscssssccscscsccccccssscssscscsscscscscscsccc" /></g></svg>