<?xml version="1.0" encoding="UTF-8" standalone="no"?>
<!-- Created with Inkscape (http://www.inkscape.org/) -->

<svg
   xmlns:dc="http://purl.org/dc/elements/1.1/"
   xmlns:cc="http://creativecommons.org/ns#"
   xmlns:rdf="http://www.w3.org/1999/02/22-rdf-syntax-ns#"
   xmlns:svg="http://www.w3.org/2000/svg"
   xmlns="http://www.w3.org/2000/svg"
   xmlns:sodipodi="http://sodipodi.sourceforge.net/DTD/sodipodi-0.dtd"
   xmlns:inkscape="http://www.inkscape.org/namespaces/inkscape"
   width="48.85342mm"
   height="48.85342mm"
   viewBox="0 0 48.85342 48.85342"
   version="1.1"
   id="svg8"
   inkscape:version="0.92.4 (5da689c313, 2019-01-14)"
   sodipodi:docname="donation.svg">
  <defs
     id="defs2" />
  <sodipodi:namedview
     id="base"
     pagecolor="#ffffff"
     bordercolor="#666666"
     borderopacity="1.0"
     inkscape:pageopacity="0.0"
     inkscape:pageshadow="2"
     inkscape:zoom="2.8"
     inkscape:cx="59.065511"
     inkscape:cy="83.630244"
     inkscape:document-units="mm"
     inkscape:current-layer="layer1"
     showgrid="false"
     inkscape:window-width="1920"
     inkscape:window-height="1017"
     inkscape:window-x="-8"
     inkscape:window-y="-8"
     inkscape:window-maximized="1" />
  <metadata
     id="metadata5">
    <rdf:RDF>
      <cc:Work
         rdf:about="">
        <dc:format>image/svg+xml</dc:format>
        <dc:type
           rdf:resource="http://purl.org/dc/dcmitype/StillImage" />
        <dc:title />
      </cc:Work>
    </rdf:RDF>
  </metadata>
  <g
     inkscape:label="Layer 1"
     inkscape:groupmode="layer"
     id="layer1"
     transform="translate(-34.773806,-124.0759)">
    <g
       id="g819"
       transform="matrix(0.26458333,0,0,0.26458333,43.27689,134.81757)"
       style="fill:#dcdcdc;fill-opacity:1">
      <path
         id="path817"
         style="clip-rule:evenodd;fill:#dcdcdc;fill-opacity:1;fill-rule:evenodd"
         d="M 29.83,89.55 V 52.63 h 16.61 c 7.04,1.26 14.08,5.08 21.12,9.51 h 12.9 c 5.84,0.35 8.9,6.27 3.22,10.16 -4.52,3.32 -10.49,3.13 -16.61,2.58 -4.22,-0.21 -4.4,5.46 0,5.48 1.53,0.12 3.19,-0.24 4.64,-0.24 7.64,-0.01 13.92,-1.47 17.77,-7.5 l 1.93,-4.51 19.19,-9.51 c 9.6,-3.16 16.42,6.88 9.35,13.87 -13.9,10.11 -28.15,18.43 -42.73,25.15 -10.59,6.44 -21.18,6.22 -31.76,0 z M 76.08,7.8 c 3.63,-3.79 6.17,-7.06 11.77,-7.7 10.5,-1.21 20.16,9.55 14.86,20.14 -1.51,3.02 -4.58,6.6 -7.98,10.12 -3.73,3.86 -7.86,7.65 -10.76,10.52 l -7.89,7.83 -6.52,-6.28 C 61.72,34.88 48.93,25.37 48.51,13.59 48.21,5.34 54.73,0.05 62.21,0.15 68.91,0.23 71.72,3.56 76.08,7.8 Z M 0,49.08 H 24.83 V 93.26 H 0 Z m 152.50521,2.642986 A 92.321425,92.321425 0 0 1 60.183784,144.04441 92.321425,92.321425 0 0 1 -32.137641,51.722986 92.321425,92.321425 0 0 1 60.183784,-40.598438 92.321425,92.321425 0 0 1 152.50521,51.722986 Z"
         inkscape:connector-curvature="0" />
    </g>
  </g>
  <style
     id="style815"
     type="text/css">.st0{fill-rule:evenodd;clip-rule:evenodd;}</style>
</svg>
