<?xml version="1.0" encoding="UTF-8" standalone="no"?>
<svg
   xmlns:dc="http://purl.org/dc/elements/1.1/"
   xmlns:cc="http://creativecommons.org/ns#"
   xmlns:rdf="http://www.w3.org/1999/02/22-rdf-syntax-ns#"
   xmlns:svg="http://www.w3.org/2000/svg"
   xmlns="http://www.w3.org/2000/svg"
   xmlns:sodipodi="http://sodipodi.sourceforge.net/DTD/sodipodi-0.dtd"
   xmlns:inkscape="http://www.inkscape.org/namespaces/inkscape"
   version="1.1"
   id="Layer_1"
   x="0px"
   y="0px"
   viewBox="0 0 104.31 122.88"
   style="enable-background:new 0 0 104.31 122.88"
   xml:space="preserve"
   sodipodi:docname="easy-to-use.svg"
   inkscape:version="0.92.4 (5da689c313, 2019-01-14)"><metadata
     id="metadata11"><rdf:RDF><cc:Work
         rdf:about=""><dc:format>image/svg+xml</dc:format><dc:type
           rdf:resource="http://purl.org/dc/dcmitype/StillImage" /></cc:Work></rdf:RDF></metadata><defs
     id="defs9" /><sodipodi:namedview
     pagecolor="#ffffff"
     bordercolor="#666666"
     borderopacity="1"
     objecttolerance="10"
     gridtolerance="10"
     guidetolerance="10"
     inkscape:pageopacity="0"
     inkscape:pageshadow="2"
     inkscape:window-width="1480"
     inkscape:window-height="791"
     id="namedview7"
     showgrid="false"
     inkscape:zoom="2.7161003"
     inkscape:cx="54.382493"
     inkscape:cy="76.827475"
     inkscape:window-x="0"
     inkscape:window-y="0"
     inkscape:window-maximized="0"
     inkscape:current-layer="g4" /><g
     id="g4"
     style="fill:#000000;fill-opacity:1"><path
       d="M25.85,63.15c-0.04-0.12-0.08-0.28-0.1-0.42c-0.22-1.89-0.43-3.98-0.62-5.78c-0.26-2.64-0.55-5.69-0.76-7.83 c-0.14-1.45-0.6-2.83-1.27-3.86c-0.45-0.66-0.95-1.15-1.51-1.39c-0.45-0.18-1-0.2-1.57,0.02c-0.78,0.3-1.65,0.93-2.62,2.03 c-0.86,0.98-1.53,2.29-2.09,3.68c-0.79,2.03-1.26,4.19-1.45,5.67c-0.02,0.1-0.02,0.18-0.06,0.26L8.42,86.07 c-0.08,0.4-0.24,0.76-0.48,1.04c-1.81,2.33-2.95,4.33-3.28,5.95c-0.24,1.19,0,2.15,0.79,2.9l19.8,19.8 c1.26,1.21,2.72,1.97,4.47,2.29c1.91,0.36,4.14,0.16,6.7-0.54c0.04,0,0.1-0.02,0.14-0.02c0.97-0.26,2.24-0.57,3.46-0.88 c5.31-1.29,9.94-2.43,14.23-6.33l5.52-5.76c0.05-0.1,0.14-0.18,0.22-0.26s0.62-0.62,1.35-1.31c3.78-3.69,8.45-8.25,5.61-12.24 l-2.21-2.21c-1.07,1.04-2.21,2.05-3.3,3.02c-1,0.88-1.93,1.69-2.78,2.55c-0.91,0.91-2.38,0.91-3.3,0c-0.91-0.92-0.91-2.38,0-3.3 c0.86-0.86,1.91-1.79,3-2.76c3.74-3.3,8.03-7.07,5.73-10.38l-2.19-2.19c-0.12-0.12-0.22-0.26-0.31-0.4c-1.26,1.29-2.64,2.52-4,3.72 c-1,0.88-1.93,1.69-2.78,2.55c-0.91,0.91-2.38,0.91-3.3,0s-0.91-2.38,0-3.3c0.86-0.86,1.91-1.79,3-2.76 c3.74-3.3,8.03-7.07,5.73-10.38l-2.19-2.19c-0.16-0.16-0.28-0.31-0.38-0.5l-6.42,6.42c-0.91,0.91-2.38,0.91-3.3,0s-0.91-2.38,0-3.3 l17.22-17.25c2.88-2.88,3.54-5.88,2.78-8.15c-0.28-0.83-0.74-1.57-1.31-2.14s-1.31-1.03-2.14-1.31c-2.24-0.74-5.23-0.06-8.19,2.9 l-30.2,30.2c-0.91,0.91-2.38,0.91-3.3,0s-0.91-2.38,0-3.3l3.07-3.07L25.85,63.15L25.85,63.15L25.85,63.15z M83.23,24.31 c-1.22,1.3-3.24,1.34-4.52,0.14c-1.3-1.22-1.34-3.24-0.14-4.52l8.82-9.39c1.22-1.3,3.25-1.34,4.52-0.14 c1.3,1.22,1.34,3.24,0.14,4.52L83.23,24.31L83.23,24.31L83.23,24.31L83.23,24.31z M43.96,23.65c1.3,1.22,1.34,3.25,0.14,4.52 c-1.22,1.3-3.25,1.34-4.52,0.14l-9.4-8.82c-1.29-1.23-1.33-3.25-0.14-4.52c1.22-1.3,3.25-1.34,4.52-0.14L43.96,23.65L43.96,23.65 L43.96,23.65z M63.69,15.96c0.05,1.76-1.34,3.24-3.09,3.3s-3.24-1.34-3.3-3.09L56.91,3.3c-0.06-1.75,1.34-3.24,3.09-3.3 c1.76-0.05,3.24,1.34,3.29,3.09L63.69,15.96L63.69,15.96L63.69,15.96z M76.88,63.31c-1.3-1.22-1.34-3.25-0.14-4.52 c1.22-1.3,3.24-1.34,4.52-0.14l9.39,8.82c1.3,1.22,1.34,3.24,0.14,4.52c-1.22,1.3-3.24,1.34-4.52,0.14L76.88,63.31L76.88,63.31 L76.88,63.31z M88.36,44.35c-1.75,0.06-3.24-1.34-3.3-3.09c-0.05-1.75,1.34-3.24,3.09-3.3l12.86-0.43c1.75-0.06,3.24,1.34,3.3,3.09 s-1.34,3.24-3.09,3.3L88.36,44.35L88.36,44.35L88.36,44.35z M60.88,58.97c0.17,0.1,0.34,0.22,0.5,0.38l2.29,2.29 c0.12,0.12,0.24,0.28,0.34,0.42c2.57,3.52,2.17,6.66,0.42,9.52c0.31,0.12,0.62,0.29,0.86,0.54l2.29,2.29 c0.12,0.12,0.24,0.28,0.34,0.42c2.76,3.8,2.07,7.12,0,10.14c0.1,0.05,0.17,0.14,0.28,0.24l2.29,2.29c0.12,0.12,0.24,0.28,0.34,0.42 c5.31,7.26-1.02,13.42-6.1,18.39l-1.31,1.31l-5.67,5.95l-0.18,0.17c-5.19,4.71-10.33,5.97-16.28,7.42c-1,0.24-2,0.5-3.4,0.86 c-0.04,0-0.06,0.02-0.1,0.02c-3.22,0.88-6.14,1.09-8.76,0.62c-2.66-0.48-4.97-1.67-6.9-3.56L2.31,99.29 c-2-1.93-2.69-4.31-2.12-7.14c0.43-2.26,1.75-4.77,3.81-7.47L9.3,54.74v-0.12c0.24-1.71,0.78-4.24,1.71-6.68 c0.71-1.83,1.67-3.62,2.92-5.07c1.51-1.71,3-2.76,4.47-3.32c1.81-0.69,3.54-0.6,5.07,0.06c1.43,0.6,2.64,1.69,3.56,3.08 c1.12,1.67,1.85,3.8,2.05,6.02c0.16,1.83,0.48,4.85,0.78,7.81l0.24,2.47L53,36.07c4.4-4.4,9.16-5.27,12.97-4.02 c1.53,0.5,2.88,1.33,4,2.45s1.95,2.47,2.45,4c1.26,3.8,0.4,8.63-3.92,12.95l-7.59,7.59L60.88,58.97L60.88,58.97L60.88,58.97z"
       id="path2"
       style="fill:#96c8ec;fill-opacity:1" /><path
       style="opacity:1;fill:#202240;fill-opacity:1;fill-rule:nonzero;stroke:#202240;stroke-width:0.398;stroke-linecap:round;stroke-linejoin:round;stroke-miterlimit:4;stroke-dasharray:none;stroke-dashoffset:0;stroke-opacity:1;paint-order:markers fill stroke"
       d="M 29.224624,122.58982 C 27.248403,122.21667 25.144522,121.29666 23.56882,120.11661 21.166058,118.31716 1.509511,98.411537 0.86933668,97.129493 -0.57869403,94.229592 0.13363995,90.573051 2.9635961,86.379271 L 4.1125137,84.676665 6.8013548,69.327068 C 8.2802174,60.884793 9.7688414,52.805949 10.109408,51.374084 12.599584,40.904495 20.661753,35.962947 25.978772,41.64727 c 2.123884,2.270606 2.743022,4.250738 3.36694,10.76817 0.219318,2.290983 0.47067,4.737568 0.558563,5.436854 l 0.159804,1.271433 12.011457,-11.969468 c 6.606305,-6.583206 12.497974,-12.340178 13.092603,-12.79327 4.132379,-3.148771 9.370215,-3.505853 13.287298,-0.905842 2.767687,1.837086 4.251773,4.805453 4.237296,8.475145 -0.01671,4.237896 -1.189198,6.25616 -7.252839,12.484788 l -4.527781,4.650977 1.69068,1.7513 c 2.134405,2.210937 2.850884,3.591765 3.009399,5.799835 0.100473,1.399533 0.0069,1.991515 -0.521597,3.29995 l -0.644037,1.594469 2.001637,2.036999 c 1.5552,1.582676 2.132621,2.385387 2.588918,3.599033 0.809662,2.153514 0.674129,4.219996 -0.415319,6.332392 l -0.803146,1.557267 1.542982,1.52229 c 3.979243,3.925878 4.33636,8.274836 1.081774,13.17378 -1.357631,2.043568 -12.676652,13.825208 -14.868654,15.476358 -1.932064,1.45534 -5.385013,3.22723 -7.950521,4.07983 -1.120353,0.37233 -4.399171,1.26924 -7.28626,1.99314 -5.496878,1.37826 -8.725488,1.758 -11.113345,1.30712 z m 8.864162,-5.36209 c 8.013611,-1.96769 11.158792,-3.13828 14.240919,-5.30027 1.811736,-1.27086 13.06426,-12.846201 14.151964,-14.557961 1.989074,-3.130274 1.867126,-5.33761 -0.41965,-7.595978 l -1.387828,-1.370588 -3.280071,3.001432 c -1.80404,1.650789 -3.576805,3.075908 -3.939478,3.166933 -1.42118,0.356693 -2.957183,-1.200619 -2.597535,-2.633569 0.09134,-0.36393 1.009806,-1.438695 2.041032,-2.388365 4.98608,-4.591747 6.456833,-6.156655 7.218215,-7.680317 0.426089,-0.852681 0.774709,-1.828262 0.774709,-2.167958 0,-1.057278 -0.672099,-2.244267 -2.000249,-3.532641 l -1.277806,-1.239531 -3.704658,3.384061 c -2.037561,1.861231 -3.98189,3.453638 -4.320729,3.538683 -1.350805,0.339029 -3.020283,-1.404201 -2.579758,-2.693727 0.08422,-0.246541 2.126053,-2.381274 4.537401,-4.74385 4.538354,-4.446564 5.422811,-5.666687 5.434998,-7.497674 0.0078,-1.164395 -0.490922,-2.027075 -2.055447,-3.55584 l -1.320996,-1.290802 -3.601642,3.568768 c -3.693468,3.659757 -4.112806,3.916493 -5.33433,3.265906 -0.857171,-0.456533 -1.202052,-1.033315 -1.211216,-2.025646 -0.0077,-0.834891 0.65305,-1.561029 9.594402,-10.543728 10.535723,-10.584445 10.918773,-11.069053 11.163989,-14.123919 0.112092,-1.396433 0.03126,-1.825673 -0.578471,-3.071923 -0.564995,-1.154807 -0.98136,-1.608482 -2.052554,-2.236481 -1.223304,-0.717177 -1.508732,-0.778602 -3.183641,-0.685134 -3.303506,0.184353 -2.980517,-0.08999 -20.816324,17.681357 -15.38701,15.331405 -16.192025,16.089353 -17.088446,16.089353 -1.385997,0 -2.158112,-0.734812 -2.158112,-2.053845 0,-0.971653 0.160931,-1.23025 1.782632,-2.864471 l 1.782631,-1.796399 -0.795778,-7.815687 c -0.635425,-6.240792 -0.911003,-8.083536 -1.367599,-9.144923 -0.713196,-1.657869 -1.805089,-2.618911 -2.975489,-2.618911 -2.012675,0 -4.737154,3.235311 -5.938136,7.05152 -0.388336,1.233967 -1.98443,9.544938 -3.655091,19.03231 C 8.2297192,86.478882 8.1978789,86.6286 7.3628591,87.6829 5.8537001,89.588368 4.4924207,92.527824 4.4924207,93.881131 v 1.215302 L 15.231403,105.86192 c 11.038863,11.0661 11.856012,11.76636 14.345993,12.29387 1.69722,0.35957 4.521653,0.0516 8.51139,-0.92806 z"
       id="path818"
       inkscape:connector-curvature="0" /></g></svg>