<?xml version="1.0" encoding="UTF-8" standalone="no"?>
<svg
   xmlns:dc="http://purl.org/dc/elements/1.1/"
   xmlns:cc="http://creativecommons.org/ns#"
   xmlns:rdf="http://www.w3.org/1999/02/22-rdf-syntax-ns#"
   xmlns:svg="http://www.w3.org/2000/svg"
   xmlns="http://www.w3.org/2000/svg"
   xmlns:sodipodi="http://sodipodi.sourceforge.net/DTD/sodipodi-0.dtd"
   xmlns:inkscape="http://www.inkscape.org/namespaces/inkscape"
   version="1.1"
   id="Layer_1"
   x="0px"
   y="0px"
   viewBox="0 0 117.74 122.88"
   style="enable-background:new 0 0 117.74 122.88"
   xml:space="preserve"
   sodipodi:docname="edit-pen-orange.svg"
   inkscape:version="0.92.4 (5da689c313, 2019-01-14)"><metadata
     id="metadata13"><rdf:RDF><cc:Work
         rdf:about=""><dc:format>image/svg+xml</dc:format><dc:type
           rdf:resource="http://purl.org/dc/dcmitype/StillImage" /></cc:Work></rdf:RDF></metadata><defs
     id="defs11" /><sodipodi:namedview
     pagecolor="#ffffff"
     bordercolor="#666666"
     borderopacity="1"
     objecttolerance="10"
     gridtolerance="10"
     guidetolerance="10"
     inkscape:pageopacity="0"
     inkscape:pageshadow="2"
     inkscape:window-width="1920"
     inkscape:window-height="1017"
     id="namedview9"
     showgrid="false"
     inkscape:zoom="1.920573"
     inkscape:cx="-192.35712"
     inkscape:cy="61.440001"
     inkscape:window-x="-8"
     inkscape:window-y="-8"
     inkscape:window-maximized="1"
     inkscape:current-layer="g6" /><style
     type="text/css"
     id="style2">.st0{fill-rule:evenodd;clip-rule:evenodd;}</style><g
     id="g6"><path
       class="st0"
       d="M94.62,2c-1.46-1.36-3.14-2.09-5.02-1.99c-1.88,0-3.56,0.73-4.92,2.2L73.59,13.72l31.07,30.03l11.19-11.72 c1.36-1.36,1.88-3.14,1.88-5.02s-0.73-3.66-2.09-4.92L94.62,2L94.62,2L94.62,2z M41.44,109.58c-4.08,1.36-8.26,2.62-12.35,3.98 c-4.08,1.36-8.16,2.72-12.35,4.08c-9.73,3.14-15.07,4.92-16.22,5.23c-1.15,0.31-0.42-4.18,1.99-13.6l7.74-29.61l0.64-0.66 l30.56,30.56L41.44,109.58L41.44,109.58L41.44,109.58z M22.2,67.25l42.99-44.82l31.07,29.92L52.75,97.8L22.2,67.25L22.2,67.25z"
       id="path4"
       style="fill:#fb6b2d;fill-opacity:1" /></g></svg>