<?xml version="1.0" encoding="UTF-8" standalone="no"?>
<svg
   xmlns:dc="http://purl.org/dc/elements/1.1/"
   xmlns:cc="http://creativecommons.org/ns#"
   xmlns:rdf="http://www.w3.org/1999/02/22-rdf-syntax-ns#"
   xmlns:svg="http://www.w3.org/2000/svg"
   xmlns="http://www.w3.org/2000/svg"
   xmlns:xlink="http://www.w3.org/1999/xlink"
   xmlns:sodipodi="http://sodipodi.sourceforge.net/DTD/sodipodi-0.dtd"
   xmlns:inkscape="http://www.inkscape.org/namespaces/inkscape"
   version="1.0"
   width="1061.3673pt"
   height="679.84174pt"
   viewBox="0 0 1061.3673 679.84174"
   preserveAspectRatio="xMidYMid meet"
   id="svg10"
   sodipodi:docname="enquetes_SNT_logo.svg"
   inkscape:version="0.92.4 (5da689c313, 2019-01-14)">
  <defs
     id="defs14">
    <linearGradient
       inkscape:collect="always"
       id="linearGradient6384">
      <stop
         style="stop-color:#5d21bc;stop-opacity:1;"
         offset="0"
         id="stop6380" />
      <stop
         style="stop-color:#5d21bc;stop-opacity:0;"
         offset="1"
         id="stop6382" />
    </linearGradient>
    <linearGradient
       inkscape:collect="always"
       xlink:href="#linearGradient6384"
       id="linearGradient6386"
       x1="3549.2695"
       y1="2618.3806"
       x2="10608.215"
       y2="2618.3806"
       gradientUnits="userSpaceOnUse" />
  </defs>
  <sodipodi:namedview
     pagecolor="#ffffff"
     bordercolor="#666666"
     borderopacity="1"
     objecttolerance="10"
     gridtolerance="10"
     guidetolerance="10"
     inkscape:pageopacity="0"
     inkscape:pageshadow="2"
     inkscape:window-width="1920"
     inkscape:window-height="1017"
     id="namedview12"
     showgrid="false"
     inkscape:zoom="0.67265625"
     inkscape:cx="742.50497"
     inkscape:cy="385.49004"
     inkscape:window-x="-8"
     inkscape:window-y="-8"
     inkscape:window-maximized="1"
     inkscape:current-layer="svg10" />
  <metadata
     id="metadata2">
Created by potrace 1.15, written by Peter Selinger 2001-2017
<rdf:RDF>
  <cc:Work
     rdf:about="">
    <dc:format>image/svg+xml</dc:format>
    <dc:type
       rdf:resource="http://purl.org/dc/dcmitype/StillImage" />
  </cc:Work>
</rdf:RDF>
</metadata>
  <g
     transform="matrix(0.1,0,0,-0.1,-0.13925129,679.30314)"
     id="g8"
     style="fill:#000000;stroke:none">
    <path
       d="m 1950,6780 c -8,-6 -46,-7 -85,-4 -49,4 -86,0 -125,-11 -30,-9 -83,-22 -118,-30 -34,-8 -75,-21 -90,-29 -35,-18 -91,-79 -162,-178 -47,-66 -63,-80 -115,-103 -172,-77 -195,-89 -192,-99 6,-19 90,-54 171,-71 45,-9 89,-19 99,-21 15,-5 17,-20 17,-135 0,-71 -2,-129 -4,-129 -2,0 -43,18 -91,40 -48,23 -89,40 -90,38 -2,-2 3,-82 10,-178 7,-96 12,-175 11,-176 -1,0 -110,-91 -243,-202 -159,-133 -244,-210 -247,-225 -40,-228 -59,-297 -185,-657 -27,-80 -61,-191 -74,-246 -21,-87 -22,-107 -12,-137 19,-55 78,-119 211,-229 85,-70 127,-112 134,-133 34,-104 68,-766 50,-983 C 809,2742 774,2574 695,2280 664,2167 608,1958 570,1815 504,1566 462,1439 387,1265 342,1161 211,881 148,757 121,703 102,655 105,650 c 4,-6 15,-10 26,-10 38,0 18,-94 -56,-262 C 23,261 -3,163 2,95 l 3,-50 611,-3 611,-2 22,69 c 53,167 34,282 -51,321 -58,26 -79,25 -193,-10 -141,-43 -229,-38 -279,18 -18,20 -18,22 3,50 11,16 25,41 30,55 l 10,26 46,-25 c 34,-20 46,-22 49,-12 18,53 280,880 288,905 5,18 68,198 139,400 72,203 153,432 181,511 28,78 53,142 57,142 3,-1 56,-65 117,-143 270,-345 389,-530 429,-664 14,-45 37,-122 51,-170 39,-134 74,-245 206,-651 93,-282 125,-371 136,-367 7,3 31,8 51,11 l 38,6 6,-98 c 4,-55 12,-170 19,-256 L 2593,0 h 207 206 l 190,76 c 104,41 271,103 371,137 l 182,61 11,53 c 28,135 -72,313 -176,313 -19,0 -72,-16 -118,-35 -46,-19 -115,-40 -153,-47 -88,-15 -114,-3 -167,75 l -40,57 26,28 25,27 -122,280 c -378,870 -423,979 -503,1230 -111,344 -128,400 -173,555 -46,156 -53,176 -149,445 -172,478 -230,691 -230,843 v 40 l 88,-45 c 74,-38 101,-46 160,-51 l 72,-5 34,74 c 19,41 62,157 97,259 61,182 63,186 121,247 61,65 129,191 142,265 l 7,36 c 0,0 114.6085,-46.81 172,-70 57.2757,-23.1432 121.0392,-34.0843 172,-69 28.2108,-19.3286 70,-75 70,-75 39,-41 78,-74 87,-74 29,0 88,60 118,120 66,130 86,233 54,279 -16,23 -20,23 -115,16 -101,-7 -169,5 -169,30 0,16 -75,49 -95,41 -9,-3 -81,20 -161,52 l -145,58 -23,50 c -27,57 -77,104 -111,104 -14,0 -40,-13 -58,-30 l -35,-30 -66,25 c -37,14 -82,25 -100,25 -67,0 -126,-77 -126,-165 0,-56 26,-83 115,-120 39,-16 73,-31 73,-31 1,0 -6,-21 -16,-45 -11,-24 -47,-123 -81,-219 -34,-96 -66,-182 -71,-189 -24,-39 -161,62 -196,145 -28,67 -44,176 -44,299 0,142 -5,135 100,135 38,0 71,4 74,8 3,5 -33,51 -79,103 -58,63 -92,111 -106,149 -12,30 -42,95 -66,144 l -44,88 64,67 c 78,82 134,157 177,240 32,60 34,63 64,57 17,-3 82,-31 144,-61 115,-56 132,-62 132,-47 0,5 -27,59 -61,122 -55,103 -59,115 -49,141 7,15 9,38 4,51 -4,13 -6,67 -6,122 2,98 2,99 -33,146 -19,26 -66,77 -105,113 -38,37 -70,74 -70,82 0,58 -92,106 -140,75 z"
       id="path4"
       style="fill:#5d21bc;fill-opacity:1"
       inkscape:connector-curvature="0"
       sodipodi:nodetypes="ccccccccccssccsccccccccccccccsccccccccccccccccccccccccccccccccccsscccccccccscccccccccsscscscscsccscccsscccsccsscccccccccsccccccsc" />
    <path
       d="m 3822.8545,5018.5516 c -150.5581,-339.8621 -276.6801,-637.3706 -273.5271,-642.5357 3.1531,-3.0991 25.2244,-19.6273 49.6606,-37.1886 l 44.1427,-30.9904 731.5073,-1399.7362 c 402.8019,-769.5966 777.2265,-1487.5424 832.4048,-1594.976 109.5685,-213.8342 147.405,-274.7822 227.8078,-360.52245 652.6811,-697.28552 2371.8809,-999.959084 3763.1636,-663.196 461.1333,112.59869 841.8638,290.27737 1098.8378,514.44176 97.744,84.70727 219.925,247.92369 257.762,342.96119 32.319,82.6412 53.601,178.7117 53.601,245.8577 0,274.7821 -180.512,544.3992 -512.37,765.4645 -145.0404,97.1035 -244.3614,149.7873 -462.7098,246.8908 -107.2036,48.5517 -1445.6731,669.3941 -2974.1134,1381.1418 -1528.4404,711.7477 -2784.142,1296.4346 -2792.0247,1298.5006 -8.6708,4.132 -21.2831,-14.4622 -44.1426,-66.113 z"
       id="path6"
       style="opacity:0.31200005;fill:url(#linearGradient6386);fill-opacity:1;stroke-width:0.90237862"
       inkscape:connector-curvature="0" />
    <path
       style="fill:#f94e54;fill-opacity:1;stroke:none;stroke-width:7.5px;stroke-linecap:butt;stroke-linejoin:miter;stroke-opacity:1"
       d="m 2462,5320 -84.9385,32.3302 -77.8557,19.7103 -28.5799,-2.9566 -49.2758,-30.5509 -33.5074,-49.2758 -16.7538,-52.2322 -2.9565,-40.4061 7.8841,-34.493 19.7103,-28.58 39.4206,-26.6089 51.2467,-23.6523 L 2358,5054 l 343,-136 151.0796,-61.3837 20.6958,-7.8841 41.3916,-15.7683 67.015,-21.6813 56.1743,-26.6089 16.7538,-10.8406 37.4495,-42.3772 33.5075,-41.3916 39.4206,-33.5075 38.4351,-30.5509 c 5.5846,-0.7337 11.1691,-2.86 16.7537,3.942 v 0 c 13.7972,12.8117 16.7538,12.8117 16.7538,12.8117 l 36.464,38.4351 c 16.3695,17.1937 30.5793,38.7069 44.3482,61.1019 l 32.522,69.9715 32.522,94.6095 8.8696,60.1163 -5.9131,43.3627 c -5.5675,22.0354 -18.4523,33.0949 -34.493,39.4206 l -43.3627,-1.971 -52.2322,-3.9421 -35.4786,0.9855 -52.2322,1.971 -23.6524,2.9566 -34.493,6.8986 -15.7682,11.8262 -3.9421,8.8696 -5.9131,10.8407 -18.7248,11.8261 -43.3626,16.7538 -14.7827,1.971 -19.7103,-2.9565 -49.2758,14.7827 L 2689,5226 c -68.3895,16.11 -175.7148,91.4314 -227,94 z"
       id="path2654"
       inkscape:connector-curvature="0"
       sodipodi:nodetypes="cccccccccccccccccccccccccccccccccccccccccccccccccc" />
  </g>
  <g
     aria-label="SNT"
     transform="matrix(0.81420702,0,0,1.0617874,-108.38254,-71.854969)"
     style="font-style:normal;font-variant:normal;font-weight:bold;font-stretch:normal;font-size:40px;line-height:1.25;font-family:Consolas;-inkscape-font-specification:'Consolas Bold';letter-spacing:0px;word-spacing:0px;fill:#000000;fill-opacity:1;stroke:none"
     id="flowRoot2630">
    <path
       d="m 702.76562,690.88839 q -5.27343,6.25 -8.59375,8.00781 -3.125,1.75781 -7.8125,1.75781 -9.17968,0 -14.84375,-6.05468 -5.46875,-6.25 -5.46875,-20.50782 v -26.95312 q 0,-14.45313 5.46875,-20.50781 5.66407,-6.25 14.84375,-6.25 7.03125,0 11.71875,3.71093 4.88282,3.71094 7.42188,12.5 2.53906,8.59375 5.27344,11.71875 5.66406,6.05469 20.11718,12.30469 14.45313,6.25 31.64063,6.25 26.75781,0 43.94531,-12.5 10.9375,-7.61719 10.9375,-18.75 0,-7.42187 -5.27344,-13.86719 -5.27343,-6.64062 -17.1875,-10.9375 -7.8125,-2.92968 -34.96093,-8.00781 -32.8125,-6.05469 -49.60938,-14.64844 -16.79687,-8.59375 -26.5625,-24.21875 -9.76562,-15.625 -9.76562,-33.78906 0,-28.71094 24.02343,-50.19531 24.02344,-21.67969 62.5,-21.67969 15.42969,0 28.51563,3.51563 13.28125,3.32031 24.02344,10.35156 7.8125,-7.61719 15.625,-7.61719 8.78906,0 14.25781,6.25 5.66406,6.05469 5.66406,20.3125 v 30.07813 q 0,14.45312 -5.66406,20.70312 -5.46875,6.05469 -14.25781,6.05469 -7.42188,0 -12.89063,-4.49219 -4.29687,-3.32031 -6.44531,-13.28125 -2.14844,-9.96094 -5.46875,-14.25781 -5.66406,-7.42188 -16.99219,-12.5 -11.32812,-5.07813 -26.17187,-5.07813 -21.67969,0 -34.375,10.15625 -12.5,9.96094 -12.5,20.89844 0,7.42188 5.07812,14.45313 5.27344,6.83593 15.23438,10.74218 6.64062,2.73438 37.30468,8.78907 30.85938,6.05468 47.26563,13.28125 16.60156,7.22656 27.53906,22.65625 10.9375,15.42968 10.9375,36.71875 0,29.6875 -20.89844,47.46093 -27.73437,23.4375 -70.70312,23.4375 -16.60156,0 -32.42188,-4.10156 -15.625,-3.90625 -30.46875,-11.91406 z"
       style="font-style:normal;font-variant:normal;font-weight:bold;font-stretch:normal;font-size:400px;font-family:'Courier New';-inkscape-font-specification:'Courier New Bold';fill:#5d21bc;fill-opacity:1"
       id="path847" />
    <path
       d="m 951.00781,539.91183 v 121.09375 h 14.45313 q 14.45312,0 20.50781,5.66406 6.25,5.46875 6.25,14.45312 0,8.78907 -6.25,14.45313 -6.05469,5.46875 -20.50781,5.46875 h -52.53907 q -14.45312,0 -20.70312,-5.46875 -6.05469,-5.66406 -6.05469,-14.64844 0,-8.59375 6.05469,-14.25781 6.05469,-5.66406 18.75,-5.66406 V 504.36495 h -6.25 q -14.45313,0 -20.70313,-5.46875 -6.05468,-5.66406 -6.05468,-14.64844 0,-8.98437 6.05468,-14.45312 6.25,-5.66406 20.70313,-5.66406 l 46.28906,0.19531 102.34379,160.54687 V 504.36495 h -14.4532 q -14.4531,0 -20.7031,-5.46875 -6.0547,-5.66406 -6.0547,-14.64844 0,-8.98437 6.0547,-14.45312 6.25,-5.66406 20.7031,-5.66406 l 52.5391,0.19531 q 14.4531,0 20.5078,5.46875 6.25,5.46875 6.25,14.45312 0,8.78907 -6.0547,14.45313 -6.0547,5.66406 -18.5547,5.66406 v 196.67969 h -39.6484 z"
       style="font-style:normal;font-variant:normal;font-weight:bold;font-stretch:normal;font-size:400px;font-family:'Courier New';-inkscape-font-specification:'Courier New Bold';fill:#5d21bc;fill-opacity:1"
       id="path849" />
    <path
       d="m 1260.3828,504.36495 v 156.64063 h 26.9531 q 14.4532,0 20.5079,5.66406 6.25,5.46875 6.25,14.45312 0,8.78907 -6.25,14.45313 -6.0547,5.46875 -20.5079,5.46875 h -93.75 q -14.4531,0 -20.7031,-5.46875 -6.0547,-5.66406 -6.0547,-14.64844 0,-8.78906 6.0547,-14.25781 6.25,-5.66406 20.7031,-5.66406 h 26.7579 V 504.36495 h -43.3594 v 37.89063 q 0,14.45312 -5.6641,20.70312 -5.4687,6.05469 -14.4531,6.05469 -8.7891,0 -14.4531,-6.05469 -5.4688,-6.25 -5.4688,-20.70312 v -78.125 l 207.4219,0.19531 v 77.92969 q 0,14.45312 -5.6641,20.70312 -5.4687,6.05469 -14.4531,6.05469 -8.7891,0 -14.4531,-6.05469 -5.4688,-6.25 -5.4688,-20.70312 v -37.89063 z"
       style="font-style:normal;font-variant:normal;font-weight:bold;font-stretch:normal;font-size:400px;font-family:'Courier New';-inkscape-font-specification:'Courier New Bold';fill:#5d21bc;fill-opacity:1"
       id="path851" />
  </g>
  <path
     style="fill:#5d21bc;fill-opacity:1;stroke:none;stroke-width:0.75px;stroke-linecap:butt;stroke-linejoin:miter;stroke-opacity:1"
     d="m 105.81894,46.271778 c -0.9487,0.275244 2.89199,2.92683 2.89199,2.92683 l 5.71428,2.369338 8.91986,2.508711 7.66551,1.533101 2.15017,0.29338 40.21917,8.626481 18.11847,4.878049 19.79094,5.574913 7.38676,2.648087 13.24042,6.132397 7.6655,3.484328 1.11498,-0.139373 0.41812,-0.836242 -0.97561,-2.22996 -10.45296,-19.930318 -0.13937,-1.254355 -0.13937,-0.97561 0.45295,-1.678397 v 0 l 0.94077,-2.502787 -0.54077,-2.597213 -0.0167,-1.4446 -0.69686,-5.156794 0.27875,-13.101046 -0.27875,-2.648083 -1.23889,-2.025858 -3.1353,-4.334859 -2.04688,-2.454315 -5.84376,-6.097861 -6.32404,-6.341463 -1.89895,-2.1602798 -0.13938,-2.229965 -0.69687,-1.672474 L 206.55065,3.205575 202.64822,0.97560979 199.86076,0 l -3.34495,0.27874566 -1.65506,1.02439204 -2.24738,0.090591 -4.59931,0.2787456 -5.85365,-0.278746 -5.71429,0.5574913 -5.29617,1.3937282 -8.22299,2.2299652 -5.57492,1.2543555 -4.04181,1.3937282 -2.64808,1.8118463 -5.43554,5.296168 -3.48432,4.459931 -4.87805,6.689895"
     id="path6368"
     inkscape:connector-curvature="0"
     sodipodi:nodetypes="ccccccccccccccccccccccccccccccccccccccccccccccccccc" />
  <path
     style="fill:#5d21bc;fill-opacity:1;stroke:none;stroke-width:0.75px;stroke-linecap:butt;stroke-linejoin:miter;stroke-opacity:1"
     d="m 109.38992,43.946401 -3.60582,2.604123 v 0 z"
     id="path6376"
     inkscape:connector-curvature="0"
     sodipodi:nodetypes="cccc" />
  <path
     style="fill:none;stroke:none;stroke-width:0.75px;stroke-linecap:butt;stroke-linejoin:miter;stroke-opacity:1"
     d="m 109.38992,43.946401 9.1268,-5.966941 4.53337,-2.857993 4.18844,-2.660889 4.48409,-2.956544 4.33627,-2.611614 0.80535,-0.411583 0.13066,-0.182927"
     id="path6378"
     inkscape:connector-curvature="0"
     sodipodi:nodetypes="cccccccc" />
  <g
     aria-label="Enquêtes"
     transform="matrix(0.55758945,0.24282331,-0.24282331,0.55758945,62.974328,-266.4473)"
     style="font-style:normal;font-variant:normal;font-weight:normal;font-stretch:normal;font-size:40px;line-height:1.25;font-family:'Segoe Print';-inkscape-font-specification:'Segoe Print';letter-spacing:0px;word-spacing:0px;fill:#000000;fill-opacity:1;stroke:none"
     id="flowRoot6388">
    <path
       d="m 709.92969,348.92759 v 29.39453 h 51.07422 v -10.83984 q 0,-7.22656 2.73437,-10.25391 2.83203,-3.125 7.32422,-3.125 4.39453,0 7.12891,3.125 2.83203,3.02735 2.83203,10.25391 v 30.85938 h -94.23828 q -7.22657,0 -10.35157,-2.73438 -3.02734,-2.83203 -3.02734,-7.32422 0,-4.39453 3.125,-7.1289 3.125,-2.83204 10.25391,-2.83204 h 3.125 v -78.32031 h -3.125 q -7.22657,0 -10.35157,-2.73437 -3.02734,-2.83203 -3.02734,-7.32422 0,-4.49219 3.02734,-7.22656 3.125,-2.83204 10.35157,-2.83204 l 89.84375,0.0977 v 30.46875 q 0,7.12891 -2.73438,10.25391 -2.73437,3.02734 -7.22656,3.02734 -4.49219,0 -7.32422,-3.02734 -2.73438,-3.02735 -2.73438,-10.25391 v -10.44922 h -46.67968 v 28.90625 h 17.57812 q 0,-7.8125 1.46485,-10.05859 3.02734,-4.78516 8.59375,-4.78516 4.39453,0 7.1289,3.125 2.83203,3.02735 2.83203,10.25391 v 23.04687 q 0,6.54297 -1.5625,8.78907 -3.125,4.58984 -8.39843,4.58984 -5.56641,0 -8.59375,-4.78516 -1.46485,-2.24609 -1.46485,-10.15625 z"
       style="font-style:normal;font-variant:normal;font-weight:bold;font-stretch:normal;font-size:200px;font-family:'Courier New';-inkscape-font-specification:'Courier New Bold';fill:#f94e54;fill-opacity:1"
       id="path830" />
    <path
       d="m 830.14453,309.66978 v 6.73828 q 5.46875,-4.6875 12.01172,-7.03125 6.64062,-2.34375 14.35547,-2.34375 17.77344,0 28.125,11.03516 8.20312,8.78906 8.20312,23.04687 v 37.20703 q 6.34766,0 9.375,2.83204 3.02735,2.73437 3.02735,7.22656 0,4.39453 -3.125,7.22656 -3.02735,2.73438 -10.25391,2.73438 h -18.06641 q -7.22656,0 -10.35156,-2.73438 -3.02734,-2.83203 -3.02734,-7.32422 0,-4.39453 3.02734,-7.1289 3.02735,-2.83204 9.375,-2.83204 v -37.79296 q 0,-6.54297 -3.51562,-9.57032 -4.58985,-3.90625 -13.76953,-3.90625 -6.9336,0 -12.20704,2.73438 -5.17578,2.63672 -13.18359,11.32812 v 37.20703 q 7.71484,0 9.96094,1.46485 4.78515,2.92969 4.78515,8.59375 0,4.39453 -3.125,7.22656 -3.02734,2.73438 -10.2539,2.73438 h -22.75391 q -7.22656,0 -10.35156,-2.73438 -3.02734,-2.83203 -3.02734,-7.32422 0,-5.46875 4.6875,-8.49609 2.34375,-1.46485 10.05859,-1.46485 v -48.63281 q -6.34766,0 -9.375,-2.83203 -3.02734,-2.83203 -3.02734,-7.22656 0,-4.39453 3.02734,-7.12891 3.125,-2.83203 10.35156,-2.83203 z"
       style="font-style:normal;font-variant:normal;font-weight:bold;font-stretch:normal;font-size:200px;font-family:'Courier New';-inkscape-font-specification:'Courier New Bold';fill:#f94e54;fill-opacity:1"
       id="path832" />
    <path
       d="M 1016.7656,329.68931 V 420.119 h 3.5156 q 7.129,0 10.1563,2.73437 3.125,2.83204 3.125,7.32422 0,4.39453 -3.0273,7.12891 -3.0274,2.83203 -10.254,2.83203 h -35.44917 q -7.22656,0 -10.35156,-2.83203 -3.02735,-2.73438 -3.02735,-7.12891 0,-4.49218 3.02735,-7.32422 3.125,-2.73437 10.35156,-2.73437 h 11.91406 v -32.8125 q -7.32422,4.49219 -14.9414,6.73828 -7.51953,2.24609 -15.23438,2.24609 -17.87109,0 -32.1289,-10.74218 -17.08985,-12.89063 -17.08985,-32.71485 0,-17.96875 14.45313,-31.83593 14.45312,-13.96485 35.05859,-13.96485 7.91016,0 15.33203,2.34375 7.51953,2.34375 14.55078,7.12891 v -6.83594 h 23.53511 q 7.129,0 10.1563,2.83203 3.125,2.73438 3.125,7.22656 0,4.39454 -3.0273,7.22657 -3.0274,2.73437 -10.254,2.73437 z m -20.01951,23.24219 q 0,-4.19922 -3.32031,-10.64453 -3.32031,-6.54297 -10.25391,-10.83985 -6.93359,-4.39453 -16.11328,-4.39453 -15.03906,0 -23.73047,11.23047 -5.95703,7.71485 -5.95703,14.84375 0,8.10547 8.4961,15.625 8.59375,7.51953 21.1914,7.51953 12.69532,0 21.19141,-7.51953 8.49609,-7.51953 8.49609,-15.82031 z"
       style="font-style:normal;font-variant:normal;font-weight:bold;font-stretch:normal;font-size:200px;font-family:'Courier New';-inkscape-font-specification:'Courier New Bold';fill:#f94e54;fill-opacity:1"
       id="path834" />
    <path
       d="m 1132.7813,309.66978 v 68.65234 q 6.3476,0 9.375,2.83204 3.0273,2.83203 3.0273,7.22656 0,4.39453 -3.125,7.22656 -3.0273,2.73438 -10.2539,2.73438 h -19.043 v -4.58985 q -8.5937,3.90625 -16.4062,5.85938 -7.8125,1.95312 -14.8438,1.95312 -9.8633,0 -17.0898,-4.10156 -7.2266,-4.19922 -11.4258,-11.52344 -3.0273,-5.27344 -3.0273,-13.18359 v -43.06641 h -3.418 q -7.2266,0 -10.3516,-2.73437 -3.0273,-2.83203 -3.0273,-7.32422 0,-4.39453 3.0273,-7.12891 3.125,-2.83203 10.3516,-2.83203 h 23.4375 v 59.57031 q 0,6.34766 3.0273,9.375 3.125,2.92969 9.4727,2.92969 6.0547,0 12.9883,-2.34375 7.0312,-2.44141 17.2851,-8.69141 v -40.82031 h -7.2265 q -7.2266,0 -10.3516,-2.73437 -3.0273,-2.83203 -3.0273,-7.32422 0,-4.39453 3.0273,-7.12891 3.125,-2.83203 10.3516,-2.83203 z"
       style="font-style:normal;font-variant:normal;font-weight:bold;font-stretch:normal;font-size:200px;font-family:'Courier New';-inkscape-font-specification:'Courier New Bold';fill:#f94e54;fill-opacity:1"
       id="path836" />
    <path
       d="m 1260.418,364.16197 h -82.1289 q 3.125,7.8125 11.0351,12.59765 8.0078,4.78516 21.5821,4.78516 11.1328,0 29.5898,-4.78516 7.6172,-1.95312 10.5469,-1.95312 4.0039,0 6.7383,2.83203 2.7343,2.83203 2.7343,7.12891 0,3.90625 -2.9297,6.64062 -3.9062,3.61328 -19.0429,6.9336 -15.1367,3.22265 -29.1016,3.22265 -24.0234,0 -38.4766,-13.57422 -14.3554,-13.57422 -14.3554,-33.39843 0,-21.09375 15.5273,-34.27735 15.625,-13.28125 35.9375,-13.28125 12.2071,0 22.3633,4.29688 10.2539,4.29687 15.2344,9.27734 7.0312,7.22656 11.6211,17.87109 3.125,7.42188 3.125,17.1875 z m -22.168,-20.01953 q -4.5898,-8.59375 -12.0117,-12.79297 -7.4219,-4.29688 -17.6758,-4.29688 -10.1562,0 -17.5781,4.29688 -7.4219,4.19922 -12.1094,12.79297 z m -28.2227,-61.03516 -19.9218,13.47656 q -3.2227,2.2461 -5.2735,2.2461 -2.6367,0 -4.6875,-2.05078 -1.9531,-2.05079 -1.9531,-4.6875 0,-3.51563 4.4922,-6.54297 l 27.3437,-18.35938 27.6368,18.35938 q 4.3945,3.02734 4.3945,6.44531 0,2.73437 -1.9531,4.78516 -1.9532,2.05078 -4.7852,2.05078 -1.9531,0 -5.1758,-2.2461 z"
       style="font-style:normal;font-variant:normal;font-weight:bold;font-stretch:normal;font-size:200px;font-family:'Courier New';-inkscape-font-specification:'Courier New Bold';fill:#f94e54;fill-opacity:1"
       id="path838" />
    <path
       d="m 1325.1641,329.68931 v 40.13672 q 0,6.44531 2.6367,8.49609 4.1015,3.22266 14.6484,3.22266 15.3321,0 28.3203,-6.54297 4.9805,-2.53906 7.8125,-2.53906 3.9063,0 6.7383,2.92969 2.9297,2.92968 2.9297,7.1289 0,3.90625 -3.125,6.73828 -4.7852,4.58985 -18.9453,8.4961 -14.0625,3.80859 -23.7305,3.80859 -18.6523,0 -28.0273,-8.00781 -9.2774,-8.10547 -9.2774,-19.82422 v -44.04297 h -7.2265 q -7.2266,0 -10.3516,-2.73437 -3.0273,-2.83203 -3.0273,-7.32422 0,-4.39453 3.0273,-7.12891 3.125,-2.83203 10.3516,-2.83203 h 7.2265 v -18.06641 q 0,-7.22656 2.7344,-10.2539 2.832,-3.125 7.3242,-3.125 4.3946,0 7.1289,3.125 2.8321,3.02734 2.8321,10.2539 v 18.06641 h 37.0117 q 7.2265,0 10.2539,2.83203 3.125,2.73438 3.125,7.22656 0,4.39454 -3.125,7.22657 -3.0274,2.73437 -10.2539,2.73437 z"
       style="font-style:normal;font-variant:normal;font-weight:bold;font-stretch:normal;font-size:200px;font-family:'Courier New';-inkscape-font-specification:'Courier New Bold';fill:#f94e54;fill-opacity:1"
       id="path840" />
    <path
       d="m 1500.2617,364.16197 h -82.1289 q 3.125,7.8125 11.0352,12.59765 8.0078,4.78516 21.582,4.78516 11.1328,0 29.5898,-4.78516 7.6172,-1.95312 10.5469,-1.95312 4.0039,0 6.7383,2.83203 2.7344,2.83203 2.7344,7.12891 0,3.90625 -2.9297,6.64062 -3.9063,3.61328 -19.043,6.9336 -15.1367,3.22265 -29.1015,3.22265 -24.0235,0 -38.4766,-13.57422 -14.3555,-13.57422 -14.3555,-33.39843 0,-21.09375 15.5274,-34.27735 15.625,-13.28125 35.9375,-13.28125 12.207,0 22.3633,4.29688 10.2539,4.29687 15.2343,9.27734 7.0313,7.22656 11.6211,17.87109 3.125,7.42188 3.125,17.1875 z m -22.1679,-20.01953 q -4.5899,-8.59375 -12.0118,-12.79297 -7.4218,-4.29688 -17.6757,-4.29688 -10.1563,0 -17.5782,4.29688 -7.4218,4.19922 -12.1093,12.79297 z"
       style="font-style:normal;font-variant:normal;font-weight:bold;font-stretch:normal;font-size:200px;font-family:'Courier New';-inkscape-font-specification:'Courier New Bold';fill:#f94e54;fill-opacity:1"
       id="path842" />
    <path
       d="m 1591.5703,333.10728 q -4.8828,-3.02734 -10.2539,-4.49219 -5.3711,-1.5625 -11.2305,-1.5625 -11.6211,0 -18.457,3.8086 -3.0273,1.66015 -3.0273,3.61328 0,2.24609 4.1015,4.39453 3.125,1.5625 13.9649,3.02734 19.9218,2.73438 27.7343,5.46875 10.254,3.61328 15.8204,10.74219 5.5664,7.12891 5.5664,15.03906 0,10.74219 -9.4727,17.96875 -13.5742,10.44922 -35.2539,10.44922 -8.6914,0 -16.1133,-1.5625 -7.3242,-1.46484 -13.4765,-4.39453 -1.4649,1.26953 -3.125,1.95313 -1.6602,0.68359 -3.418,0.68359 -4.6875,0 -7.5195,-3.02734 -2.7344,-3.125 -2.7344,-10.35157 v -6.73828 q 0,-7.22656 2.7344,-10.2539 2.832,-3.125 7.3242,-3.125 3.6133,0 6.0547,2.05078 2.4414,1.95312 3.8086,6.83593 4.5898,3.90625 11.0351,5.95704 6.4453,1.95312 14.8438,1.95312 13.7695,0 21.3867,-4.29687 3.6133,-2.14844 3.6133,-4.49219 0,-3.90625 -5.1758,-6.44531 -5.1758,-2.53907 -21.3867,-4.29688 -24.1211,-2.53906 -32.2266,-9.76562 -8.1055,-7.12891 -8.1055,-17.57813 0,-10.74219 9.0821,-17.87109 12.3047,-9.76563 32.2265,-9.76563 6.9336,0 13.2813,1.36719 6.4453,1.26953 12.3047,4.00391 1.8554,-1.36719 3.4179,-2.05079 1.6602,-0.68359 3.0274,-0.68359 4.1015,0 6.8359,3.125 2.7344,3.02734 2.7344,10.25391 v 4.88281 q 0,6.54297 -1.5625,8.88672 -3.125,4.49219 -8.4961,4.49219 -3.6133,0 -6.3477,-2.2461 -2.7343,-2.24609 -3.5156,-5.95703 z"
       style="font-style:normal;font-variant:normal;font-weight:bold;font-stretch:normal;font-size:200px;font-family:'Courier New';-inkscape-font-specification:'Courier New Bold';fill:#f94e54;fill-opacity:1"
       id="path844" />
  </g>
</svg>
