<?xml version="1.0" encoding="UTF-8" standalone="no"?>
<!-- Created with Inkscape (http://www.inkscape.org/) -->

<svg
   xmlns:dc="http://purl.org/dc/elements/1.1/"
   xmlns:cc="http://creativecommons.org/ns#"
   xmlns:rdf="http://www.w3.org/1999/02/22-rdf-syntax-ns#"
   xmlns:svg="http://www.w3.org/2000/svg"
   xmlns="http://www.w3.org/2000/svg"
   xmlns:sodipodi="http://sodipodi.sourceforge.net/DTD/sodipodi-0.dtd"
   xmlns:inkscape="http://www.inkscape.org/namespaces/inkscape"
   width="112.00862mm"
   height="38.808083mm"
   viewBox="0 0 112.00862 38.808083"
   version="1.1"
   id="svg8"
   inkscape:version="0.92.4 (5da689c313, 2019-01-14)"
   sodipodi:docname="enquetesSNT-white.svg">
  <defs
     id="defs2">
    <style
       id="style828">.cls-1{fill-rule:evenodd;}</style>
    <pattern
       id="EMFhbasepattern"
       patternUnits="userSpaceOnUse"
       width="6"
       height="6"
       x="0"
       y="0" />
  </defs>
  <sodipodi:namedview
     id="base"
     pagecolor="#ffffff"
     bordercolor="#666666"
     borderopacity="1.0"
     inkscape:pageopacity="0.0"
     inkscape:pageshadow="2"
     inkscape:zoom="2.8"
     inkscape:cx="179.68665"
     inkscape:cy="96.96867"
     inkscape:document-units="mm"
     inkscape:current-layer="g852"
     showgrid="false"
     inkscape:window-width="1920"
     inkscape:window-height="1017"
     inkscape:window-x="-8"
     inkscape:window-y="-8"
     inkscape:window-maximized="1" />
  <metadata
     id="metadata5">
    <rdf:RDF>
      <cc:Work
         rdf:about="">
        <dc:format>image/svg+xml</dc:format>
        <dc:type
           rdf:resource="http://purl.org/dc/dcmitype/StillImage" />
        <dc:title />
      </cc:Work>
    </rdf:RDF>
  </metadata>
  <g
     inkscape:label="Layer 1"
     inkscape:groupmode="layer"
     id="layer1"
     transform="translate(28.790027,-71.976911)">
    <g
       id="g852"
       transform="matrix(0.26458333,0,0,0.26458333,-28.790027,71.976911)">
      <path
         style="fill-rule:evenodd;stroke-width:1.19324172;fill:#dcdcdc;fill-opacity:1"
         inkscape:connector-curvature="0"
         id="loupe"
         d="M 155.13407,5.8867868e-6 A 50.486059,50.486059 0 0 1 197.14811,78.455652 l 10.21415,10.21415 0.10739,-0.107392 a 6.4196407,6.4196407 0 0 1 9.05671,0 l 32.87381,32.87382 a 6.4315731,6.4315731 0 0 1 0,9.0567 l -14.3189,14.3189 a 6.4315731,6.4315731 0 0 1 -9.05671,0 l -32.81415,-32.93347 a 6.4196407,6.4196407 0 0 1 0,-9.05671 l 0.10739,-0.10739 -10.21415,-10.214152 A 50.486059,50.486059 0 1 1 155.13407,5.8867868e-6 Z m 0,11.3357971132132 A 39.150262,39.150262 0 1 1 115.9838,50.486065 39.150262,39.150262 0 0 1 155.13407,11.335803 Z"
         class="loupe" />
      <g
         transform="translate(-9.5367432e-8,7.8010863)"
         id="text916"
         style="font-style:normal;font-weight:normal;font-size:123.40727997px;line-height:1.25;font-family:sans-serif;letter-spacing:0px;word-spacing:0px;fill:#dcdcdc;fill-opacity:1;stroke:none;stroke-width:3.08518195"
         aria-label="en"
         class="lettres">
        <path
           inkscape:connector-curvature="0"
           id="path4615"
           style="font-style:normal;font-variant:normal;font-weight:normal;font-stretch:normal;font-size:82.27152252px;font-family:'Paytone One';-inkscape-font-specification:'Paytone One, Normal';font-variant-ligatures:normal;font-variant-caps:normal;font-variant-numeric:normal;font-feature-settings:normal;text-align:start;writing-mode:lr-tb;text-anchor:start;fill:#dcdcdc;fill-opacity:1;stroke-width:3.08518195"
           d="m 23.365112,65.135635 q -6.828536,0 -12.176185,-2.71496 Q 5.9235497,59.623443 2.9617749,54.851695 9.5367432e-8,49.997675 9.5367432e-8,43.909582 q 0,-6.252636 3.044046304632568,-11.106655 3.0440464,-4.85402 8.2271526,-7.486709 5.183106,-2.632689 11.518013,-2.632689 6.088093,0 10.366212,2.714961 4.36039,2.632688 6.49945,7.239894 2.13906,4.524933 2.13906,10.201668 0,1.480888 -0.164544,2.13906 l -24.681456,3.208589 q 0.987258,2.879504 3.208589,4.195848 2.221331,1.234073 5.841278,1.234073 5.594464,0 12.093914,-2.879503 l 2.056788,11.024384 q -7.651252,3.373132 -16.783391,3.373132 z m 5.676736,-27.314146 q -1.316345,-5.183105 -6.252636,-5.183105 -2.961775,0 -4.689477,2.221331 -1.727702,2.221331 -1.809973,5.759006 z" />
        <path
           inkscape:connector-curvature="0"
           id="path4617"
           style="font-style:normal;font-variant:normal;font-weight:normal;font-stretch:normal;font-size:82.27152252px;font-family:'Paytone One';-inkscape-font-specification:'Paytone One, Normal';font-variant-ligatures:normal;font-variant-caps:normal;font-variant-numeric:normal;font-feature-settings:normal;text-align:start;writing-mode:lr-tb;text-anchor:start;fill:#dcdcdc;fill-opacity:1;stroke-width:3.08518195"
           d="m 47.852462,23.835331 h 16.536576 v 8.391695 q 4.771748,-9.543497 15.13796,-9.543497 7.898066,0 12.340728,5.676735 4.524934,5.594464 4.524934,15.549318 V 64.477463 H 79.11564 V 42.18188 q 0,-3.537675 -1.563159,-5.42992 -1.480887,-1.892245 -4.195847,-1.892245 -1.974517,0 -3.866762,1.316344 -1.892245,1.234073 -3.126318,3.619947 -1.151801,2.385874 -1.151801,5.42992 V 64.477463 H 47.852462 Z" />
      </g>
      <g
         transform="translate(12,7.8010863)"
         id="text916-3"
         style="font-style:normal;font-weight:normal;font-size:123.40729523px;line-height:1.25;font-family:sans-serif;letter-spacing:0px;word-spacing:0px;fill:#dcdcdc;fill-opacity:1;stroke:none;stroke-width:3.08518195"
         aria-label="uêtes"
         class="lettres">
        <path
           inkscape:connector-curvature="0"
           id="path4627"
           style="font-style:normal;font-variant:normal;font-weight:normal;font-stretch:normal;font-size:82.27152252px;font-family:'Paytone One';-inkscape-font-specification:'Paytone One, Normal';font-variant-ligatures:normal;font-variant-caps:normal;font-variant-numeric:normal;font-feature-settings:normal;text-align:start;writing-mode:lr-tb;text-anchor:start;fill:#dcdcdc;fill-opacity:1;stroke-width:3.08518195;stroke:none;stroke-opacity:1"
           d="m 222.94047,69.354896 q -6.49945,0 -11.60028,-2.303603 -5.01856,-2.303602 -7.8158,-6.49945 -2.79723,-4.195847 -2.79723,-9.543496 V 27.478691 h 16.94794 v 23.282841 q 0,2.71496 1.48088,4.278119 1.56316,1.480888 3.86677,1.480888 2.22133,0 3.61994,-1.480888 1.48089,-1.563159 1.48089,-4.278119 V 27.478691 h 16.61885 v 23.529656 q 0,5.42992 -2.79723,9.625768 -2.71496,4.113576 -7.65126,6.417178 -4.93629,2.303603 -11.35347,2.303603 z" />
        <path
           inkscape:connector-curvature="0"
           id="path4629"
           style="font-style:normal;font-variant:normal;font-weight:normal;font-stretch:normal;font-size:82.27152252px;font-family:'Paytone One';-inkscape-font-specification:'Paytone One, Normal';font-variant-ligatures:normal;font-variant-caps:normal;font-variant-numeric:normal;font-feature-settings:normal;text-align:start;writing-mode:lr-tb;text-anchor:start;fill:#dcdcdc;fill-opacity:1;stroke-width:3.08518195"
           d="m 274.10565,69.354896 q -6.82854,0 -12.17619,-2.71496 -5.26538,-2.797232 -8.22715,-7.56898 -2.96178,-4.85402 -2.96178,-10.942113 0,-6.252635 3.04405,-11.106655 3.04405,-4.85402 8.22715,-7.486709 5.18311,-2.632689 11.51802,-2.632689 6.08809,0 10.36621,2.714961 4.36039,2.632688 6.49945,7.239894 2.13906,4.524933 2.13906,10.201669 0,1.480887 -0.16455,2.139059 l -24.68145,3.208589 q 0.98726,2.879504 3.20859,4.195848 2.22133,1.234073 5.84128,1.234073 5.59446,0 12.09391,-2.879503 l 2.05679,11.024384 q -7.65125,3.373132 -16.78339,3.373132 z m 5.67673,-27.314145 q -1.31634,-5.183106 -6.25263,-5.183106 -2.96178,0 -4.68948,2.221331 -1.7277,2.221331 -1.80997,5.759006 z M 264.72669,2.6321411e-6 h 15.22023 L 290.06632,20.485612 h -13.65707 l -3.12632,-8.720782 -0.98726,-3.1263175 -0.82271,3.1263175 -3.20859,8.720782 H 254.6073 Z" />
        <path
           inkscape:connector-curvature="0"
           id="path4631"
           style="font-style:normal;font-variant:normal;font-weight:normal;font-stretch:normal;font-size:82.27152252px;font-family:'Paytone One';-inkscape-font-specification:'Paytone One, Normal';font-variant-ligatures:normal;font-variant-caps:normal;font-variant-numeric:normal;font-feature-settings:normal;text-align:start;writing-mode:lr-tb;text-anchor:start;fill:#dcdcdc;fill-opacity:1;stroke-width:3.08518195"
           d="m 316.61046,69.354896 q -7.2399,0 -11.2712,-4.113576 -4.03131,-4.195848 -4.03131,-11.518013 V 37.68036 h -5.26538 V 27.478691 h 6.49946 l 7.65125,-15.549318 h 8.30942 v 15.549318 h 9.5435 V 37.68036 h -9.5435 v 13.986159 q 0,2.056788 1.31634,3.208589 1.31635,1.151801 3.70222,1.151801 2.22133,0 4.03131,-0.987258 l 0.65817,11.518013 q -2.05679,1.234073 -5.34765,2.056788 -3.20859,0.740444 -6.25263,0.740444 z" />
        <path
           inkscape:connector-curvature="0"
           id="path4633"
           style="font-style:normal;font-variant:normal;font-weight:normal;font-stretch:normal;font-size:82.27152252px;font-family:'Paytone One';-inkscape-font-specification:'Paytone One, Normal';font-variant-ligatures:normal;font-variant-caps:normal;font-variant-numeric:normal;font-feature-settings:normal;text-align:start;writing-mode:lr-tb;text-anchor:start;fill:#dcdcdc;fill-opacity:1;stroke-width:3.08518195"
           d="m 354.93099,69.354896 q -6.82853,0 -12.17618,-2.71496 -5.26538,-2.797232 -8.22715,-7.56898 -2.96178,-4.85402 -2.96178,-10.942113 0,-6.252635 3.04405,-11.106655 3.04404,-4.85402 8.22715,-7.486709 5.18311,-2.632689 11.51801,-2.632689 6.0881,0 10.36622,2.714961 4.36039,2.632688 6.49945,7.239894 2.13906,4.524933 2.13906,10.201669 0,1.480887 -0.16455,2.139059 l -24.68145,3.208589 q 0.98725,2.879504 3.20859,4.195848 2.22133,1.234073 5.84127,1.234073 5.59447,0 12.09392,-2.879503 l 2.05679,11.024384 q -7.65126,3.373132 -16.7834,3.373132 z m 5.67674,-27.314145 q -1.31634,-5.183106 -6.25264,-5.183106 -2.96177,0 -4.68947,2.221331 -1.7277,2.221331 -1.80998,5.759006 z" />
        <path
           inkscape:connector-curvature="0"
           id="path4635"
           style="font-style:normal;font-variant:normal;font-weight:normal;font-stretch:normal;font-size:82.27152252px;font-family:'Paytone One';-inkscape-font-specification:'Paytone One, Normal';font-variant-ligatures:normal;font-variant-caps:normal;font-variant-numeric:normal;font-feature-settings:normal;text-align:start;writing-mode:lr-tb;text-anchor:start;fill:#dcdcdc;fill-opacity:1;stroke-width:3.08518195"
           d="m 393.65131,69.354896 q -8.63851,0 -15.13796,-2.550417 l 1.89225,-9.790311 q 5.92355,2.139059 11.51801,2.139059 4.11358,0 4.11358,-2.303602 0,-1.151802 -1.23408,-1.892245 -1.1518,-0.740444 -4.44266,-1.316345 -6.82853,-1.316344 -9.87258,-4.442662 -2.96178,-3.126318 -2.96178,-8.885324 0.32909,-6.499451 5.18311,-9.954855 4.85402,-3.455404 13.24572,-3.455404 4.27812,0 7.32216,0.575901 3.12632,0.493629 5.67674,1.727702 l -1.72771,9.790311 q -2.38587,-0.904986 -5.26537,-1.398616 -2.79723,-0.493629 -4.68948,-0.493629 -2.79723,0 -3.86676,0.575901 -1.06953,0.575901 -1.06953,1.563159 0,1.809973 4.11358,2.550417 7.4867,1.316344 11.18892,4.607205 3.70222,3.290861 3.70222,8.967596 0,6.499451 -4.6072,10.283941 -4.52494,3.702218 -13.08118,3.702218 z" />
      </g>
      <g
         transform="matrix(1.1950696,0,0,1.1950696,-19.548912,-3.2492507)"
         id="text4613"
         style="font-style:normal;font-variant:normal;font-weight:normal;font-stretch:normal;font-size:32.92006683px;line-height:1.25;font-family:'Segoe Print';-inkscape-font-specification:'Segoe Print';letter-spacing:0px;word-spacing:0px;fill:#dcdcdc;fill-opacity:1;stroke:none;stroke-width:0.82300168"
         aria-label="SNT"
         class="snt">
        <path
           inkscape:connector-curvature="0"
           id="path4620"
           style="font-style:normal;font-variant:normal;font-weight:bold;font-stretch:normal;font-size:32.92031097px;font-family:Consolas;-inkscape-font-specification:'Consolas, Bold';font-variant-ligatures:normal;font-variant-caps:normal;font-variant-numeric:normal;font-feature-settings:normal;text-align:start;writing-mode:lr-tb;text-anchor:start;stroke-width:0.82300168;fill:#dcdcdc;fill-opacity:1"
           d="m 135.54114,50.303414 q 0,1.719957 -0.64297,2.989833 -0.6269,1.269875 -1.76818,2.105742 -1.14128,0.819793 -2.71657,1.221652 -1.57529,0.40186 -3.43991,0.40186 -1.65567,0 -3.1988,-0.192893 -1.54314,-0.192892 -3.05414,-0.642975 v -3.906072 q 0.73943,0.25719 1.54314,0.482231 0.80372,0.225042 1.60744,0.40186 0.81979,0.160743 1.62351,0.25719 0.80372,0.09645 1.55922,0.09645 1.1252,0 1.91285,-0.192893 0.78764,-0.192892 1.28595,-0.530454 0.4983,-0.337562 0.72334,-0.803718 0.22504,-0.466157 0.22504,-1.02876 0,-0.77157 -0.45008,-1.28595 -0.43401,-0.530454 -1.15735,-0.932313 -0.72335,-0.40186 -1.65566,-0.723347 -0.91624,-0.321487 -1.8807,-0.691198 -0.94839,-0.36971 -1.88071,-0.835867 -0.91623,-0.466157 -1.63958,-1.157355 -0.72335,-0.691198 -1.17343,-1.639586 -0.43401,-0.964462 -0.43401,-2.314709 0,-1.237727 0.45008,-2.346858 0.45009,-1.109132 1.41455,-1.928925 0.96446,-0.835867 2.47545,-1.318098 1.51099,-0.498305 3.64888,-0.498305 0.6269,0 1.30203,0.0643 0.6912,0.04822 1.35025,0.144669 0.67512,0.08037 1.28594,0.208967 0.62691,0.112521 1.14128,0.241116 v 3.616733 q -0.51437,-0.192892 -1.1252,-0.353636 -0.61083,-0.160744 -1.26988,-0.273264 -0.64297,-0.128595 -1.30202,-0.192893 -0.65905,-0.0643 -1.2538,-0.0643 -1.04484,0 -1.76818,0.176818 -0.72335,0.160744 -1.18951,0.466157 -0.46615,0.289338 -0.67512,0.723346 -0.20897,0.434008 -0.20897,0.964462 0,0.65905 0.43401,1.141281 0.45008,0.466157 1.17343,0.851941 0.73942,0.369711 1.65566,0.707273 0.93231,0.321487 1.89678,0.707272 0.98053,0.369711 1.89677,0.851942 0.93232,0.482231 1.65566,1.173429 0.73942,0.691198 1.17343,1.639586 0.45008,0.932313 0.45008,2.218263 z" />
        <path
           inkscape:connector-curvature="0"
           id="path4622"
           style="font-style:normal;font-variant:normal;font-weight:bold;font-stretch:normal;font-size:32.92031097px;font-family:Consolas;-inkscape-font-specification:'Consolas, Bold';font-variant-ligatures:normal;font-variant-caps:normal;font-variant-numeric:normal;font-feature-settings:normal;text-align:start;writing-mode:lr-tb;text-anchor:start;stroke-width:0.82300168;fill:#dcdcdc;fill-opacity:1"
           d="m 149.17221,56.65279 -5.62603,-12.538009 -1.15735,-2.700494 v 8.712309 6.526194 h -3.60066 V 35.643588 h 4.85446 l 5.73855,12.618381 1.01268,2.459378 v -9.274912 -5.802847 h 3.60066 V 56.65279 Z" />
        <path
           inkscape:connector-curvature="0"
           id="path4624"
           style="font-style:normal;font-variant:normal;font-weight:bold;font-stretch:normal;font-size:32.92031097px;font-family:Consolas;-inkscape-font-specification:'Consolas, Bold';font-variant-ligatures:normal;font-variant-caps:normal;font-variant-numeric:normal;font-feature-settings:normal;text-align:start;writing-mode:lr-tb;text-anchor:start;stroke-width:0.82300168;fill:#dcdcdc;fill-opacity:1"
           d="M 166.48431,38.938834 V 56.65279 h -4.05074 V 38.938834 h -5.75463 v -3.295246 h 15.55999 v 3.295246 z" />
      </g>
    </g>
  </g>
</svg>
