<?xml version="1.0" encoding="UTF-8" standalone="no"?>
<svg
   xmlns:dc="http://purl.org/dc/elements/1.1/"
   xmlns:cc="http://creativecommons.org/ns#"
   xmlns:rdf="http://www.w3.org/1999/02/22-rdf-syntax-ns#"
   xmlns:svg="http://www.w3.org/2000/svg"
   xmlns="http://www.w3.org/2000/svg"
   xmlns:sodipodi="http://sodipodi.sourceforge.net/DTD/sodipodi-0.dtd"
   xmlns:inkscape="http://www.inkscape.org/namespaces/inkscape"
   version="1.1"
   id="Layer_1"
   x="0px"
   y="0px"
   viewBox="0 0 122.6 122.88"
   style="enable-background:new 0 0 122.6 122.88"
   xml:space="preserve"
   sodipodi:docname="external-link.svg"
   inkscape:version="0.92.4 (5da689c313, 2019-01-14)"><metadata
     id="metadata11"><rdf:RDF><cc:Work
         rdf:about=""><dc:format>image/svg+xml</dc:format><dc:type
           rdf:resource="http://purl.org/dc/dcmitype/StillImage" /></cc:Work></rdf:RDF></metadata><defs
     id="defs9" /><sodipodi:namedview
     pagecolor="#ffffff"
     bordercolor="#666666"
     borderopacity="1"
     objecttolerance="10"
     gridtolerance="10"
     guidetolerance="10"
     inkscape:pageopacity="0"
     inkscape:pageshadow="2"
     inkscape:window-width="749"
     inkscape:window-height="480"
     id="namedview7"
     showgrid="false"
     inkscape:zoom="1.920573"
     inkscape:cx="-3.5244061"
     inkscape:cy="61.439999"
     inkscape:window-x="0"
     inkscape:window-y="0"
     inkscape:window-maximized="0"
     inkscape:current-layer="g4" /><g
     id="g4"><path
       d="M110.6,72.58c0-3.19,2.59-5.78,5.78-5.78c3.19,0,5.78,2.59,5.78,5.78v33.19c0,4.71-1.92,8.99-5.02,12.09 c-3.1,3.1-7.38,5.02-12.09,5.02H17.11c-4.71,0-8.99-1.92-12.09-5.02c-3.1-3.1-5.02-7.38-5.02-12.09V17.19 C0,12.48,1.92,8.2,5.02,5.1C8.12,2,12.4,0.08,17.11,0.08h32.98c3.19,0,5.78,2.59,5.78,5.78c0,3.19-2.59,5.78-5.78,5.78H17.11 c-1.52,0-2.9,0.63-3.91,1.63c-1.01,1.01-1.63,2.39-1.63,3.91v88.58c0,1.52,0.63,2.9,1.63,3.91c1.01,1.01,2.39,1.63,3.91,1.63h87.95 c1.52,0,2.9-0.63,3.91-1.63s1.63-2.39,1.63-3.91V72.58L110.6,72.58z M112.42,17.46L54.01,76.6c-2.23,2.27-5.89,2.3-8.16,0.07 c-2.27-2.23-2.3-5.89-0.07-8.16l56.16-56.87H78.56c-3.19,0-5.78-2.59-5.78-5.78c0-3.19,2.59-5.78,5.78-5.78h26.5 c5.12,0,11.72-0.87,15.65,3.1c2.48,2.51,1.93,22.52,1.61,34.11c-0.08,3-0.15,5.29-0.15,6.93c0,3.19-2.59,5.78-5.78,5.78 c-3.19,0-5.78-2.59-5.78-5.78c0-0.31,0.08-3.32,0.19-7.24C110.96,30.94,111.93,22.94,112.42,17.46L112.42,17.46z"
       id="path2"
       style="fill:#5d21bc;fill-opacity:1" /></g></svg>