<?xml version="1.0" encoding="UTF-8" standalone="no"?>
<!-- Created with Inkscape (http://www.inkscape.org/) -->

<svg
   xmlns:dc="http://purl.org/dc/elements/1.1/"
   xmlns:cc="http://creativecommons.org/ns#"
   xmlns:rdf="http://www.w3.org/1999/02/22-rdf-syntax-ns#"
   xmlns:svg="http://www.w3.org/2000/svg"
   xmlns="http://www.w3.org/2000/svg"
   xmlns:sodipodi="http://sodipodi.sourceforge.net/DTD/sodipodi-0.dtd"
   xmlns:inkscape="http://www.inkscape.org/namespaces/inkscape"
   version="1.1"
   id="svg2"
   xml:space="preserve"
   width="1066.6667"
   height="1066.6667"
   viewBox="0 0 1066.6667 1066.6667"
   sodipodi:docname="filter.svg"
   inkscape:version="0.92.4 (5da689c313, 2019-01-14)"><metadata
     id="metadata8"><rdf:RDF><cc:Work
         rdf:about=""><dc:format>image/svg+xml</dc:format><dc:type
           rdf:resource="http://purl.org/dc/dcmitype/StillImage" /><dc:title /></cc:Work></rdf:RDF></metadata><defs
     id="defs6"><clipPath
       clipPathUnits="userSpaceOnUse"
       id="clipPath18"><path
         d="M 0,800 H 800 V 0 H 0 Z"
         id="path16"
         inkscape:connector-curvature="0" /></clipPath><clipPath
       clipPathUnits="userSpaceOnUse"
       id="clipPath30"><path
         d="M 400,800 C 179.086,800 0,620.914 0,400 v 0 C 0,179.086 179.086,0 400,0 v 0 c 220.914,0 400,179.086 400,400 v 0 c 0,220.914 -179.086,400 -400,400 z"
         id="path28"
         inkscape:connector-curvature="0" /></clipPath><clipPath
       clipPathUnits="userSpaceOnUse"
       id="clipPath38"><path
         d="M 3.55196,567.777 H 564.003 V 30.304 H 3.55196 Z"
         id="path36"
         inkscape:connector-curvature="0" /></clipPath><clipPath
       clipPathUnits="userSpaceOnUse"
       id="clipPath42"><path
         d="m 224.363,30.304 204.302,204.302 c 3.535,2.438 5.859,6.51 5.859,11.12 v 124.248 l 126.93,176.417 c 2.972,4.132 3.375,9.513 1.053,14.043 -2.321,4.529 -6.926,7.343 -12.016,7.343 H 249.508 c -4.499,0 -8.615,-2.201 -11.114,-5.84 L 3.552,326.893 C 20.401,180.716 98.455,85.563 224.363,30.304"
         id="path40"
         inkscape:connector-curvature="0" /></clipPath><linearGradient
       x1="0"
       y1="0"
       x2="1"
       y2="0"
       gradientUnits="userSpaceOnUse"
       gradientTransform="matrix(-220.38538,-220.38538,-220.38538,220.38538,346.29434,411.039)"
       spreadMethod="pad"
       id="linearGradient54"><stop
         style="stop-opacity:1;stop-color:#ffffff"
         offset="0"
         id="stop48" /><stop
         style="stop-opacity:0;stop-color:#ffffff"
         offset="0.986151"
         id="stop50" /><stop
         style="stop-opacity:0;stop-color:#ffffff"
         offset="1"
         id="stop52" /></linearGradient><mask
       maskUnits="userSpaceOnUse"
       x="0"
       y="0"
       width="1"
       height="1"
       id="mask56"><g
         id="g66"><g
           id="g64"><g
             id="g62"><g
               id="g60"><path
                 d="M -32768,32767 H 32767 V -32768 H -32768 Z"
                 style="fill:url(#linearGradient54);stroke:none"
                 id="path58"
                 inkscape:connector-curvature="0" /></g></g></g></g></mask><linearGradient
       x1="0"
       y1="0"
       x2="1"
       y2="0"
       gradientUnits="userSpaceOnUse"
       gradientTransform="matrix(-220.38538,-220.38538,-220.38538,220.38538,346.29434,411.039)"
       spreadMethod="pad"
       id="linearGradient74"><stop
         style="stop-opacity:1;stop-color:#1d1d1b"
         offset="0"
         id="stop68" /><stop
         style="stop-opacity:1;stop-color:#000000"
         offset="0.986151"
         id="stop70" /><stop
         style="stop-opacity:1;stop-color:#000000"
         offset="1"
         id="stop72" /></linearGradient></defs><sodipodi:namedview
     pagecolor="#ffffff"
     bordercolor="#666666"
     borderopacity="1"
     objecttolerance="10"
     gridtolerance="10"
     guidetolerance="10"
     inkscape:pageopacity="0"
     inkscape:pageshadow="2"
     inkscape:window-width="1366"
     inkscape:window-height="705"
     id="namedview4"
     showgrid="false"
     inkscape:zoom="0.44249997"
     inkscape:cx="616.939"
     inkscape:cy="553.9598"
     inkscape:window-x="1912"
     inkscape:window-y="298"
     inkscape:window-maximized="1"
     inkscape:current-layer="g26" /><g
     id="g10"
     inkscape:groupmode="layer"
     inkscape:label="filter-4881943"
     transform="matrix(1.3333333,0,0,-1.3333333,0,1066.6667)"><g
       id="g12"
       style="fill:#5d21bc;fill-opacity:1"><g
         id="g14"
         clip-path="url(#clipPath18)"
         style="fill:#5d21bc;fill-opacity:1"><g
           id="g20"
           transform="translate(800,400)"
           style="fill:#5d21bc;fill-opacity:1"><path
             d="m 0,0 c 0,-220.914 -179.086,-400 -400,-400 -220.914,0 -400,179.086 -400,400 0,220.914 179.086,400 400,400 C -179.086,400 0,220.914 0,0"
             style="fill:#5d21bc;fill-opacity:1;fill-rule:nonzero;stroke:none"
             id="path22"
             inkscape:connector-curvature="0" /></g></g></g><g
       id="g24"><g
         id="g26"
         clip-path="url(#clipPath30)"><g
           id="g32"
           transform="translate(0,-16.5)"><g
             id="g34" /><g
             id="g92"><g
               clip-path="url(#clipPath38)"
               id="g90"
               style="opacity:0.41999799"><g
                 id="g88"><g
                   clip-path="url(#clipPath42)"
                   id="g86"><g
                     id="g84"><g
                       id="g76" /><g
                       mask="url(#mask56)"
                       id="g82"><g
                         id="g80"><path
                           d="m 224.363,30.304 210.1611,243.81143 c 17.54271,36.13117 -10e-5,54.34312 -10e-5,95.85857 l 126.93,176.417 c 2.972,4.132 3.375,9.513 1.053,14.043 -2.321,4.529 -6.926,7.343 -12.016,7.343 H 249.508 c -4.499,0 -8.615,-2.201 -11.114,-5.84 L 3.552,326.893 C 20.401,180.716 98.455,85.563 224.363,30.304"
                           style="fill:url(#linearGradient74);stroke:none"
                           id="path78"
                           inkscape:connector-curvature="0"
                           sodipodi:nodetypes="cccccssccc" /></g></g></g></g></g></g></g></g><g
           id="g94"
           transform="translate(385.4751,234.2236)"><path
             d="M -20,-6.498 V 117.75 l -126.927,176.415 c -2.973,4.132 -3.378,9.513 -1.056,14.043 2.321,4.531 6.926,7.345 12.016,7.345 h 300.983 c 5.09,0 9.694,-2.813 12.016,-7.343 2.322,-4.529 1.919,-9.91 -1.053,-14.043 L 49.049,117.75 V 21.891833"
             style="fill:#ffffff;fill-opacity:1;fill-rule:nonzero;stroke:none"
             id="path96"
             inkscape:connector-curvature="0"
             sodipodi:nodetypes="ccccsscccc" /></g></g></g></g></svg>