<?xml version="1.0" encoding="UTF-8" standalone="no"?>
<!-- Created with Inkscape (http://www.inkscape.org/) -->

<svg
   xmlns:dc="http://purl.org/dc/elements/1.1/"
   xmlns:cc="http://creativecommons.org/ns#"
   xmlns:rdf="http://www.w3.org/1999/02/22-rdf-syntax-ns#"
   xmlns:svg="http://www.w3.org/2000/svg"
   xmlns="http://www.w3.org/2000/svg"
   xmlns:sodipodi="http://sodipodi.sourceforge.net/DTD/sodipodi-0.dtd"
   xmlns:inkscape="http://www.inkscape.org/namespaces/inkscape"
   width="17.067284mm"
   height="16.617119mm"
   viewBox="0 0 17.067284 16.617118"
   version="1.1"
   id="svg8"
   inkscape:version="0.92.4 (5da689c313, 2019-01-14)"
   sodipodi:docname="github-logo.svg">
  <defs
     id="defs2" />
  <sodipodi:namedview
     id="base"
     pagecolor="#ffffff"
     bordercolor="#666666"
     borderopacity="1.0"
     inkscape:pageopacity="0.0"
     inkscape:pageshadow="2"
     inkscape:zoom="7.9195959"
     inkscape:cx="16.895846"
     inkscape:cy="16.774723"
     inkscape:document-units="mm"
     inkscape:current-layer="layer1"
     showgrid="false"
     inkscape:window-width="1920"
     inkscape:window-height="1017"
     inkscape:window-x="-8"
     inkscape:window-y="-8"
     inkscape:window-maximized="1" />
  <metadata
     id="metadata5">
    <rdf:RDF>
      <cc:Work
         rdf:about="">
        <dc:format>image/svg+xml</dc:format>
        <dc:type
           rdf:resource="http://purl.org/dc/dcmitype/StillImage" />
        <dc:title />
      </cc:Work>
    </rdf:RDF>
  </metadata>
  <g
     inkscape:label="Layer 1"
     inkscape:groupmode="layer"
     id="layer1"
     transform="translate(-66.272235,-93.672429)">
    <g
       style="clip-rule:evenodd;fill:#dcdcdc;fill-opacity:1;fill-rule:evenodd;image-rendering:optimizeQuality;shape-rendering:geometricPrecision;text-rendering:geometricPrecision"
       id="g826"
       transform="matrix(0.02666713,0,0,0.02661888,66.272235,93.463072)">
      <path
         id="path815"
         d="M 319.988,7.973 C 143.293,7.973 0,151.242 0,327.96 c 0,141.392 91.678,261.298 218.826,303.63 16.004,2.964 21.886,-6.957 21.886,-15.414 0,-7.63 -0.319,-32.835 -0.449,-59.552 -89.032,19.359 -107.8,-37.772 -107.8,-37.772 -14.552,-36.993 -35.529,-46.831 -35.529,-46.831 -29.032,-19.879 2.209,-19.442 2.209,-19.442 32.126,2.245 49.04,32.954 49.04,32.954 28.56,48.922 74.883,34.76 93.131,26.598 2.882,-20.681 11.15,-34.807 20.315,-42.803 -71.08,-8.067 -145.797,-35.516 -145.797,-158.14 0,-34.926 12.52,-63.485 32.965,-85.88 -3.33,-8.078 -14.291,-40.606 3.083,-84.674 0,0 26.87,-8.61 88.029,32.8 25.512,-7.075 52.878,-10.642 80.056,-10.76 27.2,0.118 54.614,3.673 80.162,10.76 61.076,-41.386 87.922,-32.8 87.922,-32.8 17.398,44.08 6.485,76.631 3.154,84.675 20.516,22.394 32.93,50.953 32.93,85.879 0,122.907 -74.883,149.93 -146.117,157.856 11.481,9.921 21.733,29.398 21.733,59.233 0,42.792 -0.366,77.28 -0.366,87.804 0,8.516 5.764,18.473 21.992,15.354 127.076,-42.354 218.637,-162.274 218.637,-303.582 0,-176.695 -143.269,-319.988 -320,-319.988 l -0.023,0.107 z"
         inkscape:connector-curvature="0"
         style="fill:#dcdcdc;fill-opacity:1" />
    </g>
  </g>
</svg>
