<?xml version="1.0" encoding="UTF-8" standalone="no"?>
<svg
   xmlns:dc="http://purl.org/dc/elements/1.1/"
   xmlns:cc="http://creativecommons.org/ns#"
   xmlns:rdf="http://www.w3.org/1999/02/22-rdf-syntax-ns#"
   xmlns:svg="http://www.w3.org/2000/svg"
   xmlns="http://www.w3.org/2000/svg"
   xmlns:sodipodi="http://sodipodi.sourceforge.net/DTD/sodipodi-0.dtd"
   xmlns:inkscape="http://www.inkscape.org/namespaces/inkscape"
   id="Layer_1"
   data-name="Layer 1"
   viewBox="0 0 122.88 122.88"
   version="1.1"
   sodipodi:docname="hyperlink-white.svg"
   inkscape:version="0.92.4 (5da689c313, 2019-01-14)">
  <metadata
     id="metadata11">
    <rdf:RDF>
      <cc:Work
         rdf:about="">
        <dc:format>image/svg+xml</dc:format>
        <dc:type
           rdf:resource="http://purl.org/dc/dcmitype/StillImage" />
      </cc:Work>
    </rdf:RDF>
  </metadata>
  <defs
     id="defs9" />
  <sodipodi:namedview
     pagecolor="#ffffff"
     bordercolor="#666666"
     borderopacity="1"
     objecttolerance="10"
     gridtolerance="10"
     guidetolerance="10"
     inkscape:pageopacity="0"
     inkscape:pageshadow="2"
     inkscape:window-width="749"
     inkscape:window-height="480"
     id="namedview7"
     showgrid="false"
     inkscape:zoom="1.920573"
     inkscape:cx="-3.3844067"
     inkscape:cy="61.439999"
     inkscape:window-x="0"
     inkscape:window-y="0"
     inkscape:window-maximized="0"
     inkscape:current-layer="Layer_1" />
  <title
     id="title2">hyperlink</title>
  <path
     d="M60.54,34.07A7.65,7.65,0,0,1,49.72,23.25l13-12.95a35.38,35.38,0,0,1,49.91,0l.07.08a35.37,35.37,0,0,1-.07,49.83l-13,12.95A7.65,7.65,0,0,1,88.81,62.34l13-13a20.08,20.08,0,0,0,0-28.23l-.11-.11a20.08,20.08,0,0,0-28.2.07l-12.95,13Zm14,3.16A7.65,7.65,0,0,1,85.31,48.05L48.05,85.31A7.65,7.65,0,0,1,37.23,74.5L74.5,37.23ZM62.1,89.05A7.65,7.65,0,0,1,72.91,99.87l-12.7,12.71a35.37,35.37,0,0,1-49.76.14l-.28-.27a35.38,35.38,0,0,1,.13-49.78L23,50A7.65,7.65,0,1,1,33.83,60.78L21.12,73.49a20.09,20.09,0,0,0,0,28.25l0,0a20.07,20.07,0,0,0,28.27,0L62.1,89.05Z"
     id="path4"
     style="fill:#ffffff;fill-opacity:1" />
</svg>
