<svg id="Layer_1" data-name="Layer 1" xmlns="http://www.w3.org/2000/svg" viewBox="0 0 122.88 95.52"><title>upload-image</title><path d="M5.68,12.23H61.14a36.79,36.79,0,0,0-2.3,6.7H6.74V88.78h98.72V63.65a37.49,37.49,0,0,0,6.7-2.64V89.88a5.58,5.58,0,0,1-1.65,4,1.6,1.6,0,0,1-.3.26,5.48,5.48,0,0,1-3.73,1.4H5.64a5.61,5.61,0,0,1-4-1.66,5.68,5.68,0,0,1-1.65-4v-72a5.63,5.63,0,0,1,5.64-5.63ZM95.19,0A27.69,27.69,0,1,1,67.51,27.68,27.68,27.68,0,0,1,95.19,0Zm-4,41h8.07a2.91,2.91,0,0,0,2.91-2.9V28.91h5.12a2.4,2.4,0,0,0,2.06-1c1.07-1.61-.39-3.2-1.42-4.33C105,20.44,98.47,14.69,97,13a2.35,2.35,0,0,0-3.7,0C91.86,14.73,85,20.83,82.2,23.92c-1,1.07-2.14,2.54-1.14,4a2.41,2.41,0,0,0,2,1h5.15v9.23A2.91,2.91,0,0,0,91.17,41ZM29,31.78a8.1,8.1,0,1,1-8.09,8.09A8.09,8.09,0,0,1,29,31.78ZM63,66.51,69.68,55a37.3,37.3,0,0,0,19.66,9.61l7.07,18.2H16.16V76.63l6.74-.34,6.74-16.52L33,71.57H43.13L51.9,49,63,66.51Z"/></svg>