<?xml version="1.0" encoding="UTF-8" standalone="no"?>
<svg
   xmlns:dc="http://purl.org/dc/elements/1.1/"
   xmlns:cc="http://creativecommons.org/ns#"
   xmlns:rdf="http://www.w3.org/1999/02/22-rdf-syntax-ns#"
   xmlns:svg="http://www.w3.org/2000/svg"
   xmlns="http://www.w3.org/2000/svg"
   xmlns:sodipodi="http://sodipodi.sourceforge.net/DTD/sodipodi-0.dtd"
   xmlns:inkscape="http://www.inkscape.org/namespaces/inkscape"
   viewBox="0 0 800 800"
   version="1.1"
   id="svg28"
   sodipodi:docname="list.svg"
   inkscape:version="0.92.4 (5da689c313, 2019-01-14)">
  <metadata
     id="metadata32">
    <rdf:RDF>
      <cc:Work
         rdf:about="">
        <dc:format>image/svg+xml</dc:format>
        <dc:type
           rdf:resource="http://purl.org/dc/dcmitype/StillImage" />
      </cc:Work>
    </rdf:RDF>
  </metadata>
  <sodipodi:namedview
     pagecolor="#ffffff"
     bordercolor="#666666"
     borderopacity="1"
     objecttolerance="10"
     gridtolerance="10"
     guidetolerance="10"
     inkscape:pageopacity="0"
     inkscape:pageshadow="2"
     inkscape:window-width="1920"
     inkscape:window-height="1017"
     id="namedview30"
     showgrid="false"
     inkscape:zoom="0.834386"
     inkscape:cx="365.82291"
     inkscape:cy="378.28613"
     inkscape:window-x="-8"
     inkscape:window-y="-8"
     inkscape:window-maximized="1"
     inkscape:current-layer="svg28" />
  <defs
     id="defs12">
    <style
       id="style2">.a{fill:none;}.b{fill:#1c8adb;}.c{clip-path:url(#a);}.d{opacity:0.42;fill:url(#b);}.e{fill:#fff;}</style>
    <clipPath
       id="a">
      <circle
         class="a"
         cx="400"
         cy="400"
         r="400"
         id="circle4" />
    </clipPath>
    <linearGradient
       id="b"
       x1="420.61"
       y1="378.83"
       x2="162.24"
       y2="637.19"
       gradientUnits="userSpaceOnUse">
      <stop
         offset="0"
         id="stop7" />
      <stop
         offset="1"
         stop-opacity="0"
         id="stop9" />
    </linearGradient>
  </defs>
  <circle
     class="b"
     cx="400"
     cy="400"
     r="400"
     id="circle14"
     style="fill:#5d21bc;fill-opacity:1" />
  <g
     class="c"
     clip-path="url(#a)"
     id="g26"
     transform="matrix(1.709345,0,0,1.6664277,-273.18542,-281.08913)">
    <path
       class="d"
       d="m 289.25,792.25 249,-249 a 18.44,18.44 0 0 0 6.23,-13.82 v -260 a 18.51,18.51 0 0 0 -18.5,-18.5 H 274 a 18.46,18.46 0 0 0 -13.82,6.23 L 8.35,509 c 26.93,148.81 117.15,246 280.9,283.25 z"
       id="path16"
       style="opacity:0.42000002;fill:url(#b)"
       inkscape:connector-curvature="0" />
    <path
       class="e"
       d="m 367.61,294.58 -7.17,-7.17 a 1.64,1.64 0 0 0 -2.3,0 l -5.5,5.51 A 4.79,4.79 0 0 0 348,289.2 h -52.65 a 3.19,3.19 0 0 0 -3.19,3.2 v 54.21 a 3.19,3.19 0 0 0 3.19,3.19 h 54.22 a 3.19,3.19 0 0 0 3.19,-3.19 v -34.87 l 14.85,-14.86 a 1.62,1.62 0 0 0 0,-2.3 z m -22.78,48.92 h -44.74 a 1.63,1.63 0 0 1 -1.63,-1.63 v -44.73 a 1.63,1.63 0 0 1 1.63,-1.63 h 44.74 a 1.62,1.62 0 0 1 1.62,1.63 v 2 L 323.14,322.45 310,309.23 a 1.64,1.64 0 0 0 -2.3,0 l -7.17,7.18 a 1.62,1.62 0 0 0 0,2.3 L 314.82,333 v 0 l 7.17,7.17 a 1.64,1.64 0 0 0 2.3,0 l 7.17,-7.17 v 0 l 15,-15 v 23.83 a 1.62,1.62 0 0 1 -1.63,1.67 z"
       id="path18"
       inkscape:connector-curvature="0"
       style="fill:#ffffff" />
    <path
       class="e"
       d="m 367.61,375.65 -7.17,-7.17 a 1.62,1.62 0 0 0 -2.3,0 l -5.5,5.5 a 4.79,4.79 0 0 0 -4.66,-3.71 h -52.63 a 3.19,3.19 0 0 0 -3.19,3.19 v 54.21 a 3.19,3.19 0 0 0 3.19,3.2 h 54.22 a 3.19,3.19 0 0 0 3.19,-3.2 V 392.8 L 367.61,378 a 1.62,1.62 0 0 0 0,-2.35 z m -22.78,48.91 h -44.74 a 1.63,1.63 0 0 1 -1.63,-1.62 V 378.2 a 1.63,1.63 0 0 1 1.63,-1.63 h 44.74 a 1.62,1.62 0 0 1 1.62,1.63 v 2 L 323.14,403.52 310,390.3 a 1.62,1.62 0 0 0 -2.3,0 l -7.17,7.17 a 1.62,1.62 0 0 0 0,2.3 l 14.33,14.33 v 0 l 7.17,7.17 a 1.62,1.62 0 0 0 2.3,0 l 7.17,-7.17 v 0 l 15,-15 v 23.83 a 1.62,1.62 0 0 1 -1.67,1.63 z"
       id="path20"
       inkscape:connector-curvature="0"
       style="fill:#ffffff" />
    <path
       class="e"
       d="m 367.61,456.71 -7.17,-7.17 a 1.62,1.62 0 0 0 -2.3,0 l -5.5,5.5 a 4.79,4.79 0 0 0 -4.66,-3.71 h -52.63 a 3.19,3.19 0 0 0 -3.19,3.19 v 54.22 a 3.19,3.19 0 0 0 3.19,3.19 h 54.22 a 3.19,3.19 0 0 0 3.19,-3.19 V 473.86 L 367.61,459 a 1.62,1.62 0 0 0 0,-2.29 z m -22.78,48.92 H 300.09 A 1.63,1.63 0 0 1 298.46,504 v -44.74 a 1.63,1.63 0 0 1 1.63,-1.63 h 44.74 a 1.62,1.62 0 0 1 1.62,1.63 v 2 L 323.14,484.58 310,471.36 a 1.62,1.62 0 0 0 -2.3,0 l -7.17,7.17 a 1.62,1.62 0 0 0 0,2.3 l 14.33,14.33 v 0 l 7.17,7.17 a 1.62,1.62 0 0 0 2.3,0 l 7.17,-7.17 v 0 l 15,-15 V 504 a 1.62,1.62 0 0 1 -1.67,1.63 z"
       id="path22"
       inkscape:connector-curvature="0"
       style="fill:#ffffff" />
    <path
       class="e"
       d="M 526,547.93 H 274 a 18.5,18.5 0 0 1 -18.5,-18.5 v -260 a 18.51,18.51 0 0 1 18.5,-18.5 h 252 a 18.51,18.51 0 0 1 18.5,18.5 v 260 a 18.5,18.5 0 0 1 -18.5,18.5 z m -241.48,-21 h 231 a 8,8 0 0 0 8,-8 v -239 a 8,8 0 0 0 -8,-8 h -231 a 8,8 0 0 0 -8,8 v 239 a 8,8 0 0 0 7.99,8 z"
       id="path24"
       inkscape:connector-curvature="0"
       style="fill:#ffffff" />
  </g>
</svg>
