<?xml version="1.0" encoding="UTF-8" standalone="no"?>
<svg
   xmlns:dc="http://purl.org/dc/elements/1.1/"
   xmlns:cc="http://creativecommons.org/ns#"
   xmlns:rdf="http://www.w3.org/1999/02/22-rdf-syntax-ns#"
   xmlns:svg="http://www.w3.org/2000/svg"
   xmlns="http://www.w3.org/2000/svg"
   xmlns:sodipodi="http://sodipodi.sourceforge.net/DTD/sodipodi-0.dtd"
   xmlns:inkscape="http://www.inkscape.org/namespaces/inkscape"
   viewBox="0 0 800 800"
   version="1.1"
   id="svg28"
   sodipodi:docname="person.svg"
   inkscape:version="0.92.4 (5da689c313, 2019-01-14)">
  <metadata
     id="metadata32">
    <rdf:RDF>
      <cc:Work
         rdf:about="">
        <dc:format>image/svg+xml</dc:format>
        <dc:type
           rdf:resource="http://purl.org/dc/dcmitype/StillImage" />
      </cc:Work>
    </rdf:RDF>
  </metadata>
  <sodipodi:namedview
     pagecolor="#ffffff"
     bordercolor="#666666"
     borderopacity="1"
     objecttolerance="10"
     gridtolerance="10"
     guidetolerance="10"
     inkscape:pageopacity="0"
     inkscape:pageshadow="2"
     inkscape:window-width="1282"
     inkscape:window-height="713"
     id="namedview30"
     showgrid="false"
     inkscape:zoom="0.295"
     inkscape:cx="-22.033898"
     inkscape:cy="400"
     inkscape:window-x="99"
     inkscape:window-y="210"
     inkscape:window-maximized="0"
     inkscape:current-layer="svg28" />
  <defs
     id="defs10">
    <clipPath
       id="a">
      <circle
         cx="400"
         cy="400"
         r="400"
         style="fill:none"
         id="circle2" />
    </clipPath>
    <linearGradient
       id="b"
       x1="646.174"
       y1="213.955"
       x2="188.058"
       y2="672.071"
       gradientUnits="userSpaceOnUse">
      <stop
         offset="0"
         id="stop5" />
      <stop
         offset="1"
         stop-opacity="0"
         id="stop7" />
    </linearGradient>
  </defs>
  <title
     id="title12">Person-Fragezeichen</title>
  <circle
     cx="400"
     cy="400"
     r="400"
     style="fill:#5d21bc;fill-opacity:1"
     id="circle14" />
  <g
     style="clip-path:url(#a)"
     clip-path="url(#a)"
     id="g26">
    <path
       d="M329,796,559.1,565.9c0-.8.1-1.7.1-2.5,0-58.4-28.4-112.6-75-143.5a124.086,124.086,0,0,1-60.625,30.627L563.9,310.3a9.68,9.68,0,0,0,2.6-6.9,10.1,10.1,0,0,0-2.6-7c-1.7-1.9-4.2-2.8-7.5-2.8s-5.8.9-7.5,2.8c-.623.7-59.618,60.317-59.618,60.317a92.975,92.975,0,0,0,3.023-12.059L563.9,274.2c0-9.065,2.107-16.023,6.38-21l2.031-2.011c.15-.158.289-.316.438-.475l3.706-3.669c.151-.159.29-.317.438-.475l3.707-3.67c9.9-10.4,14.9-20.9,14.9-31.6,0-10.8-3.2-19.3-9.7-25.5q-9.6-9.3-27-9.3c-11.1,0-20.2,3-27.1,9.1l-70.907,70.875a93.775,93.775,0,0,0-129.154,7.209L16.661,578.661C81.843,693.405,178.872,773.547,329,796Z"
       style="opacity:0.42;fill:url(#b)"
       id="path16" />
    <circle
       cx="400"
       cy="327.9"
       r="93.8"
       style="fill:#fff"
       id="circle18" />
    <path
       d="M484.2,419.9a124.334,124.334,0,0,1-168.4.1c-46.6,30.9-75,85.1-75,143.4,0,.8.1,1.7.1,2.5H559.1c0-.8.1-1.7.1-2.5C559.2,505,530.8,450.8,484.2,419.9Z"
       style="fill:#fff"
       id="path20" />
    <path
       d="M585.8,185.8q-9.6-9.3-27-9.3c-11.1,0-20.2,3-27.1,9.1s-10.5,14.1-10.6,24h17c0-5.6,1.9-10,5.7-13.3s8.9-5,15.1-5c6.4,0,11.3,1.9,14.7,5.5,3.4,3.7,5.1,8.7,5.1,15.1,0,6.7-2.6,12.9-7.7,18.7L559,243c-4.7,5.1-7.9,9.8-9.4,14-1.6,4.2-2.4,9.9-2.5,17.2h16.8c0-9.3,2.2-16.4,6.7-21.4l10-9.9c9.9-10.4,14.9-20.9,14.9-31.6C595.5,200.5,592.3,192,585.8,185.8Z"
       style="fill:#fff"
       id="path22" />
    <path
       d="M556.4,293.6c-3.3,0-5.8.9-7.5,2.8a10.024,10.024,0,0,0-2.5,7,9.611,9.611,0,0,0,2.5,6.9q2.55,2.7,7.5,2.7t7.5-2.7a9.68,9.68,0,0,0,2.6-6.9,10.1,10.1,0,0,0-2.6-7C562.2,294.5,559.7,293.6,556.4,293.6Z"
       style="fill:#fff"
       id="path24" />
  </g>
</svg>
