<?xml version="1.0" encoding="UTF-8" standalone="no"?>
<!-- Created with Inkscape (http://www.inkscape.org/) -->

<svg
   xmlns:dc="http://purl.org/dc/elements/1.1/"
   xmlns:cc="http://creativecommons.org/ns#"
   xmlns:rdf="http://www.w3.org/1999/02/22-rdf-syntax-ns#"
   xmlns:svg="http://www.w3.org/2000/svg"
   xmlns="http://www.w3.org/2000/svg"
   xmlns:sodipodi="http://sodipodi.sourceforge.net/DTD/sodipodi-0.dtd"
   xmlns:inkscape="http://www.inkscape.org/namespaces/inkscape"
   width="31.50563mm"
   height="32.512421mm"
   viewBox="0 0 31.50563 32.512421"
   version="1.1"
   id="svg8"
   inkscape:version="0.92.4 (5da689c313, 2019-01-14)"
   sodipodi:docname="problem-solving.svg">
  <defs
     id="defs2" />
  <sodipodi:namedview
     id="base"
     pagecolor="#ffffff"
     bordercolor="#666666"
     borderopacity="1.0"
     inkscape:pageopacity="0.0"
     inkscape:pageshadow="2"
     inkscape:zoom="5.6"
     inkscape:cx="60.455133"
     inkscape:cy="55.991722"
     inkscape:document-units="mm"
     inkscape:current-layer="g823"
     showgrid="false"
     inkscape:window-width="1920"
     inkscape:window-height="1017"
     inkscape:window-x="-8"
     inkscape:window-y="-8"
     inkscape:window-maximized="1" />
  <metadata
     id="metadata5">
    <rdf:RDF>
      <cc:Work
         rdf:about="">
        <dc:format>image/svg+xml</dc:format>
        <dc:type
           rdf:resource="http://purl.org/dc/dcmitype/StillImage" />
        <dc:title></dc:title>
      </cc:Work>
    </rdf:RDF>
  </metadata>
  <g
     inkscape:label="Layer 1"
     inkscape:groupmode="layer"
     id="layer1"
     transform="translate(-90.080518,-150.71998)">
    <g
       id="g823"
       transform="matrix(0.26458333,0,0,0.26458333,90.080518,150.71998)">
      <path
         id="path817"
         d="m 87.29,77.05 c -0.82,1.31 -1.92,2.32 -3.17,2.99 -1.11,0.6 -2.34,0.93 -3.56,0.97 -1.24,0.04 -2.48,-0.24 -3.61,-0.82 -0.77,-0.41 -1.48,-0.96 -2.1,-1.67 z M 82.09,2.37 c 0.04,-0.69 0.35,-1.3 0.83,-1.73 0.47,-0.42 1.1,-0.66 1.78,-0.63 V 0 c 0.06,0 0.11,0.01 0.17,0.02 0.63,0.07 1.19,0.38 1.58,0.82 0.42,0.47 0.66,1.09 0.63,1.78 h 0.01 c 0,0.04 0,0.09 -0.01,0.13 l -0.3,5.33 h 0.01 c 0,0.06 -0.01,0.11 -0.02,0.17 -0.07,0.64 -0.38,1.19 -0.82,1.58 -0.47,0.42 -1.1,0.66 -1.78,0.63 v 0.01 C 84.11,10.47 84.06,10.46 84,10.45 83.36,10.38 82.81,10.07 82.42,9.63 82,9.16 81.76,8.53 81.79,7.85 h -0.01 c 0,-0.04 0,-0.09 0.01,-0.13 z m -27.4,8.51 C 54.2,10.39 53.95,9.75 53.95,9.11 53.94,8.47 54.19,7.83 54.67,7.34 55.16,6.85 55.8,6.6 56.44,6.6 c 0.64,-0.01 1.28,0.24 1.77,0.72 l 3.89,3.86 c 0.49,0.49 0.74,1.13 0.74,1.77 0,0.64 -0.24,1.28 -0.72,1.77 -0.49,0.49 -1.13,0.74 -1.77,0.74 -0.65,0.01 -1.28,-0.24 -1.77,-0.72 z M 47.28,38.2 C 46.6,38.19 45.99,37.91 45.55,37.47 45.1,37.02 44.82,36.39 44.81,35.7 c 0,-0.69 0.28,-1.32 0.73,-1.77 0.45,-0.45 1.08,-0.73 1.77,-0.73 l 5.47,-0.01 c 0.69,0 1.32,0.28 1.77,0.73 0.45,0.45 0.73,1.08 0.73,1.77 v 0.04 h 0.01 l -0.01,0.09 c -0.03,0.64 -0.31,1.22 -0.73,1.64 -0.45,0.45 -1.08,0.73 -1.77,0.73 h -0.04 v 0.01 h -0.06 z m 68.31,-5.62 h 0.08 c 0.65,-0.02 1.25,0.21 1.71,0.61 0.48,0.42 0.8,1.03 0.86,1.71 v 0.03 c 0.01,0 0,0.07 0,0.08 0.02,0.65 -0.21,1.25 -0.61,1.71 -0.42,0.48 -1.03,0.8 -1.71,0.86 l -5.46,0.4 c -0.69,0.05 -1.33,-0.19 -1.81,-0.61 -0.49,-0.42 -0.81,-1.03 -0.86,-1.71 -0.05,-0.69 0.19,-1.33 0.61,-1.81 0.42,-0.48 1.03,-0.81 1.71,-0.86 1.82,-0.14 3.65,-0.3 5.48,-0.41 z m -10.1,-22.11 c 0.41,-0.56 0.99,-0.9 1.62,-1.01 0.63,-0.1 1.29,0.03 1.86,0.44 l 0.01,0.01 c 0.56,0.4 0.91,0.99 1.01,1.62 0.1,0.63 -0.03,1.29 -0.43,1.86 l -3.18,4.45 c -0.4,0.56 -0.99,0.91 -1.63,1.02 -0.63,0.1 -1.3,-0.03 -1.86,-0.44 -0.56,-0.4 -0.91,-1 -1.02,-1.63 -0.1,-0.63 0.03,-1.29 0.44,-1.86 z m -76.59,100 V 74.7 h 16.09 c 6.82,1.22 13.64,4.92 20.47,9.22 h 12.5 c 5.66,0.34 8.62,6.08 3.13,9.84 -4.38,3.21 -10.16,3.03 -16.09,2.5 -4.09,-0.2 -4.27,5.29 0,5.31 1.48,0.11 3.09,-0.23 4.5,-0.23 7.4,-0.01 13.49,-1.42 17.22,-7.26 l 1.88,-4.38 18.59,-9.22 c 9.3,-3.06 15.91,6.67 9.06,13.43 -13.47,9.8 -27.28,17.86 -41.4,24.37 -10.26,6.24 -20.52,6.03 -30.77,0 z M 0,71.26 h 24.06 v 42.8 H 0 Z m 89.42,-7.24 -0.46,1.87 -0.14,1.34 -16.23,1.9 c -0.03,-0.96 -0.15,-2.01 -0.36,-3.1 z m -0.73,6.14 -0.01,0.81 0.01,0.28 c 0.03,0.53 0.02,1.07 -0.03,1.59 L 88.38,74 73.3,75.77 l -0.24,-0.61 -0.51,-2.42 0.01,-0.7 z"
         class="st1"
         inkscape:connector-curvature="0"
         style="fill:#202240;fill-opacity:1" />
      <path
         id="path819"
         d="m 67.33,54.79 c -1.77,-2.16 -3.6,-4.4 -5.01,-7.65 -1.37,-3.21 -2.09,-6.5 -1.96,-9.89 0.14,-3.39 1.11,-6.86 3.1,-10.41 0.01,-0.03 0.03,-0.04 0.04,-0.07 v 0 c 2.59,-4.08 6.11,-6.76 9.99,-8.19 3.25,-1.21 6.75,-1.55 10.16,-1.13 3.4,0.42 6.7,1.59 9.56,3.41 3.64,2.31 6.58,5.66 8.13,9.82 0.84,2.25 1.37,4.76 1.36,7.48 -0.01,2.71 -0.56,5.62 -1.91,8.67 -2.06,4.68 -6.69,9.62 -9.77,14.19 -0.16,-0.04 -0.32,-0.05 -0.49,-0.03 -6.34,0.74 -12.68,1.48 -19.01,2.22 -0.94,-3.14 -2.44,-6.28 -4.19,-8.42 z"
         class="st0"
         inkscape:connector-curvature="0"
         style="fill:#f4bb2c" />
      <path
         id="path821"
         d="m 73.02,51.8 v 0 c -0.75,-1.3 -0.42,-2.9 0.74,-3.57 0.42,-0.24 0.88,-0.33 1.34,-0.28 l -0.01,-0.02 c 1.72,0.38 2.58,-0.26 2.27,-1.54 l -2.09,-3.63 c -0.23,-0.41 -0.09,-0.93 0.31,-1.17 l 3.34,-1.93 c 1.57,-0.13 1.07,1.39 1.29,2.39 0.36,2.28 4,2.31 5.81,1.13 0.4,-0.26 0.72,-0.67 0.95,-1.14 0.91,-1.79 0.23,-3.28 -1.39,-4.17 -0.83,-0.45 -1.46,-0.81 -0.65,-1.71 l 3.17,-1.81 c 0.41,-0.23 0.93,-0.09 1.17,0.31 l 1.83,3.17 c 1.05,1.39 2.23,1.09 2.82,-0.8 l 0.01,0.02 c 0.19,-0.42 0.5,-0.78 0.91,-1.02 1.16,-0.67 2.71,-0.16 3.46,1.13 v 0 c 0.75,1.3 0.41,2.89 -0.75,3.56 -0.41,0.24 -0.88,0.33 -1.34,0.28 l 0.01,0.02 c -1.94,-0.43 -2.78,0.44 -2.11,2.04 l 1.83,3.17 c 0.24,0.41 0.09,0.93 -0.31,1.17 l -3.3,1.91 c -1.5,0.55 -2.55,-0.76 -2.13,-2.62 l -0.02,0.01 c 0.04,-0.46 0.22,-0.47 -0.02,-0.89 -0.67,-1.16 -2.53,-1.95 -3.82,-1.2 -1.3,0.75 -2.45,3.27 -1.78,4.43 0.24,0.41 0.6,0.72 1.02,0.91 l -0.06,0.04 c 1.83,0.58 2.17,1.69 0.94,2.71 l -3.34,1.93 c -0.41,0.24 -0.93,0.09 -1.17,-0.31 l -2.09,-3.63 c -0.95,-0.91 -1.94,-0.48 -2.47,1.2 l -0.01,-0.02 c -0.19,0.42 -0.5,0.78 -0.92,1.02 -1.15,0.71 -2.69,0.2 -3.44,-1.09 z M 65.4,37.29 c 0.75,1.29 2.3,1.8 3.46,1.13 0.41,-0.24 0.72,-0.6 0.91,-1.02 l 0.04,0.06 c 0.53,-1.68 1.52,-2.11 2.47,-1.2 l 2.09,3.61 c 0.24,0.41 0.76,0.55 1.17,0.31 l 3.21,-1.85 c 2.34,-1.01 2.23,0.3 2.18,1.79 -0.1,3.61 4.8,3.13 4.88,0.22 0.07,-2.29 -2.15,-1.99 -2.67,-3.33 -0.2,-0.52 0.12,-1.15 0.85,-1.71 l 3.17,-1.83 c 0.41,-0.24 0.55,-0.76 0.31,-1.17 l -1.83,-3.16 c -0.67,-1.61 0.17,-2.47 2.11,-2.04 l -0.04,-0.06 c 0.46,0.04 0.93,-0.04 1.34,-0.28 1.16,-0.67 1.5,-2.26 0.75,-3.56 -0.75,-1.29 -2.3,-1.8 -3.46,-1.13 -0.41,0.24 -0.72,0.6 -0.92,1.02 l -0.01,-0.02 c -0.6,1.89 -1.77,2.19 -2.82,0.8 L 80.76,20.69 C 80.52,20.28 80,20.14 79.59,20.38 l -3.3,1.91 c -1.22,1.02 -0.88,2.13 0.94,2.71 l -0.01,0.01 c 0.42,0.19 0.78,0.5 1.02,0.91 0.67,1.16 0.16,2.71 -1.13,3.46 -1.3,0.75 -2.89,0.41 -3.56,-0.75 -0.24,-0.41 -0.33,-0.88 -0.28,-1.34 l -0.06,0.04 c 0.41,-1.87 -0.38,-2.72 -1.88,-2.17 l -3.35,1.93 c -0.41,0.24 -0.55,0.76 -0.31,1.17 l 2.09,3.63 c 0.31,1.28 -0.55,1.92 -2.27,1.54 l 0.01,0.02 c -0.46,-0.04 -0.93,0.04 -1.34,0.28 -1.17,0.67 -1.51,2.27 -0.76,3.56 z"
         class="st2"
         inkscape:connector-curvature="0"
         style="clip-rule:evenodd;fill:#ffffff;fill-rule:evenodd" />
    </g>
  </g>
  <style
     id="style815"
     type="text/css"><![CDATA[
	.st0{fill:#F4BB2C;}
	.st1{fill:#393939;}
	.st2{fill-rule:evenodd;clip-rule:evenodd;fill:#FFFFFF;}
]]></style>
</svg>
