<?xml version="1.0" encoding="UTF-8" standalone="no"?>
<svg
   xmlns:dc="http://purl.org/dc/elements/1.1/"
   xmlns:cc="http://creativecommons.org/ns#"
   xmlns:rdf="http://www.w3.org/1999/02/22-rdf-syntax-ns#"
   xmlns:svg="http://www.w3.org/2000/svg"
   xmlns="http://www.w3.org/2000/svg"
   xmlns:sodipodi="http://sodipodi.sourceforge.net/DTD/sodipodi-0.dtd"
   xmlns:inkscape="http://www.inkscape.org/namespaces/inkscape"
   version="1.1"
   id="Layer_1"
   x="0px"
   y="0px"
   viewBox="0 0 122.88 92.81"
   style="enable-background:new 0 0 122.88 92.81"
   xml:space="preserve"
   sodipodi:docname="quote-left.svg"
   inkscape:version="0.92.4 (5da689c313, 2019-01-14)"><metadata
     id="metadata13"><rdf:RDF><cc:Work
         rdf:about=""><dc:format>image/svg+xml</dc:format><dc:type
           rdf:resource="http://purl.org/dc/dcmitype/StillImage" /></cc:Work></rdf:RDF></metadata><defs
     id="defs11" /><sodipodi:namedview
     pagecolor="#ffffff"
     bordercolor="#666666"
     borderopacity="1"
     objecttolerance="10"
     gridtolerance="10"
     guidetolerance="10"
     inkscape:pageopacity="0"
     inkscape:pageshadow="2"
     inkscape:window-width="1088"
     inkscape:window-height="689"
     id="namedview9"
     showgrid="false"
     inkscape:zoom="2.335612"
     inkscape:cx="8.1349127"
     inkscape:cy="46.404999"
     inkscape:window-x="0"
     inkscape:window-y="0"
     inkscape:window-maximized="0"
     inkscape:current-layer="Layer_1" /><style
     type="text/css"
     id="style2">.st0{fill-rule:evenodd;clip-rule:evenodd;}</style><g
     id="g6"
     style="fill:#96c8ec;fill-opacity:1"><path
       class="st0"
       d="M106.97,92.81H84.89c-8.5,0-15.45-6.95-15.45-15.45c0-31.79-8.12-66.71,30.84-76.68 c17.65-4.51,22.25,14.93,3.48,16.27c-11.45,0.82-13.69,8.22-14.04,19.4h17.71c8.5,0,15.45,6.95,15.45,15.45v25.09 C122.88,85.65,115.72,92.81,106.97,92.81L106.97,92.81z M38.23,92.81H16.15c-8.5,0-15.45-6.95-15.45-15.45 c0-31.79-8.12-66.71,30.84-76.68C49.2-3.84,53.8,15.6,35.02,16.95c-11.45,0.82-13.69,8.22-14.04,19.4H38.7 c8.5,0,15.45,6.95,15.45,15.45v25.09C54.14,85.65,46.98,92.81,38.23,92.81L38.23,92.81z"
       id="path4"
       style="fill:#96c8ec;fill-opacity:1" /></g></svg>