<?xml version="1.0" encoding="UTF-8" standalone="no"?>
<svg
   xmlns:dc="http://purl.org/dc/elements/1.1/"
   xmlns:cc="http://creativecommons.org/ns#"
   xmlns:rdf="http://www.w3.org/1999/02/22-rdf-syntax-ns#"
   xmlns:svg="http://www.w3.org/2000/svg"
   xmlns="http://www.w3.org/2000/svg"
   xmlns:sodipodi="http://sodipodi.sourceforge.net/DTD/sodipodi-0.dtd"
   xmlns:inkscape="http://www.inkscape.org/namespaces/inkscape"
   viewBox="0 0 800 800"
   version="1.1"
   id="svg22"
   sodipodi:docname="right.svg"
   inkscape:version="0.92.4 (5da689c313, 2019-01-14)">
  <metadata
     id="metadata26">
    <rdf:RDF>
      <cc:Work
         rdf:about="">
        <dc:format>image/svg+xml</dc:format>
        <dc:type
           rdf:resource="http://purl.org/dc/dcmitype/StillImage" />
      </cc:Work>
    </rdf:RDF>
  </metadata>
  <sodipodi:namedview
     pagecolor="#ffffff"
     bordercolor="#666666"
     borderopacity="1"
     objecttolerance="10"
     gridtolerance="10"
     guidetolerance="10"
     inkscape:pageopacity="0"
     inkscape:pageshadow="2"
     inkscape:window-width="1319"
     inkscape:window-height="703"
     id="namedview24"
     showgrid="false"
     inkscape:zoom="0.295"
     inkscape:cx="-22.033898"
     inkscape:cy="400"
     inkscape:window-x="472"
     inkscape:window-y="163"
     inkscape:window-maximized="0"
     inkscape:current-layer="svg22" />
  <defs
     id="defs12">
    <style
       id="style2">.a{fill:none;}.b{fill:#1c8adb;}.c{clip-path:url(#a);}.d{opacity:0.42;fill:url(#b);}.e{fill:#fff;}</style>
    <clipPath
       id="a">
      <circle
         class="a"
         cx="400"
         cy="400"
         r="400"
         id="circle4" />
    </clipPath>
    <linearGradient
       id="b"
       x1="382.11"
       y1="416.78"
       x2="156.63"
       y2="642.25"
       gradientUnits="userSpaceOnUse">
      <stop
         offset="0"
         id="stop7" />
      <stop
         offset="1"
         stop-opacity="0"
         id="stop9" />
    </linearGradient>
  </defs>
  <circle
     class="b"
     cx="400"
     cy="400"
     r="400"
     id="circle14"
     style="fill:#5d21bc;fill-opacity:1" />
  <g
     class="c"
     clip-path="url(#a)"
     id="g20">
    <path
       class="d"
       d="M295.46,792.13,536.69,550.9a15.65,15.65,0,0,0,5.62-12V367.39l73-73a8,8,0,0,0,0-11.32l-35.27-35.26a8,8,0,0,0-11.31,0l-27.06,27.06a23.54,23.54,0,0,0-22.9-18.25H260a15.65,15.65,0,0,0-12,5.61L7.75,502.42C35.36,680.76,133.2,775,295.46,792.13Z"
       id="path16" />
    <path
       class="e"
       d="M615.35,283l-35.27-35.26a8,8,0,0,0-11.31,0l-27.06,27.06a23.54,23.54,0,0,0-22.9-18.25H260a15.69,15.69,0,0,0-15.69,15.7v266.6A15.69,15.69,0,0,0,260,554.58H526.61a15.7,15.7,0,0,0,15.7-15.7V367.39l73-73A8,8,0,0,0,615.35,283Zm-112,240.55h-220a8,8,0,0,1-8-8v-220a8,8,0,0,1,8-8h220a8,8,0,0,1,8,8v9.65L396.65,419.88l-64.81-64.8a8,8,0,0,0-11.31,0l-35.27,35.26a8,8,0,0,0,0,11.32l70.47,70.46h0L391,507.39a8,8,0,0,0,11.32,0l35.27-35.27h0l73.73-73.73V515.58A8,8,0,0,1,503.31,523.58Z"
       id="path18" />
  </g>
</svg>
