<?xml version="1.0" encoding="UTF-8" standalone="no"?>
<svg
   xmlns:dc="http://purl.org/dc/elements/1.1/"
   xmlns:cc="http://creativecommons.org/ns#"
   xmlns:rdf="http://www.w3.org/1999/02/22-rdf-syntax-ns#"
   xmlns:svg="http://www.w3.org/2000/svg"
   xmlns="http://www.w3.org/2000/svg"
   xmlns:sodipodi="http://sodipodi.sourceforge.net/DTD/sodipodi-0.dtd"
   xmlns:inkscape="http://www.inkscape.org/namespaces/inkscape"
   version="1.1"
   id="Layer_1"
   x="0px"
   y="0px"
   viewBox="0 0 106.6 122.88"
   style="enable-background:new 0 0 106.6 122.88"
   xml:space="preserve"
   sodipodi:docname="solution-thinking.svg"
   inkscape:version="0.92.4 (5da689c313, 2019-01-14)"><metadata
     id="metadata11"><rdf:RDF><cc:Work
         rdf:about=""><dc:format>image/svg+xml</dc:format><dc:type
           rdf:resource="http://purl.org/dc/dcmitype/StillImage" /></cc:Work></rdf:RDF></metadata><defs
     id="defs9" /><sodipodi:namedview
     pagecolor="#ffffff"
     bordercolor="#666666"
     borderopacity="1"
     objecttolerance="10"
     gridtolerance="10"
     guidetolerance="10"
     inkscape:pageopacity="0"
     inkscape:pageshadow="2"
     inkscape:window-width="1920"
     inkscape:window-height="1017"
     id="namedview7"
     showgrid="false"
     inkscape:zoom="3.8411459"
     inkscape:cx="63.293827"
     inkscape:cy="58.337265"
     inkscape:window-x="-8"
     inkscape:window-y="-8"
     inkscape:window-maximized="1"
     inkscape:current-layer="g4" /><g
     id="g4"><path
       d="M21.61,91.11c0.93-0.41,2.01,0.01,2.42,0.94c0.41,0.93-0.01,2.01-0.94,2.42c-1.91,0.84-3.89,1.14-5.92,0.94 c-1.02-0.1-2.04-0.33-3.07-0.68c0.04,0.42,0.09,0.84,0.15,1.25c0.18,1.35,0.42,2.73,0.73,4.14c0.11,0.49,0.01,0.97-0.23,1.36 c-1.05,2.11-1.57,3.88-1.67,5.34c-0.1,1.53,0.31,2.68,1.12,3.5c0.89,0.91,2.3,1.51,4.08,1.84c2.83,0.53,6.45,0.37,10.39-0.34 c1.41-0.25,2.92-0.57,4.49-0.96c1.44-0.36,2.88-0.76,4.3-1.22c2.28-0.73,4.51-1.6,6.56-2.61c1.8-0.89,3.44-1.88,4.81-2.98 c0.79-0.63,1.95-0.5,2.58,0.29c0.63,0.79,0.5,1.95-0.29,2.58c-1.58,1.26-3.45,2.39-5.48,3.4c-1.95,0.96-4.06,1.81-6.22,2.53 c0.04,1.22-0.01,2.44-0.13,3.67c-0.17,1.7-0.47,3.37-0.91,5c-0.26,0.98-1.27,1.56-2.25,1.3c-0.98-0.26-1.56-1.27-1.3-2.25 c0.39-1.47,0.67-2.94,0.81-4.4c0.07-0.73,0.11-1.47,0.12-2.21c-0.58,0.16-1.16,0.31-1.73,0.45c-1.58,0.39-3.17,0.73-4.72,1 c-4.37,0.78-8.44,0.96-11.71,0.34c-2.49-0.47-4.56-1.4-6.01-2.88c-1.54-1.56-2.34-3.64-2.17-6.3c0.12-1.81,0.7-3.9,1.84-6.3 c-0.26-1.23-0.47-2.51-0.65-3.83c-0.2-1.5-0.33-3.02-0.38-4.56h0l0-0.03c-0.01-0.07-0.03-0.14-0.03-0.21 c-0.27-2.81-0.3-5.55-0.34-8.32l-0.01-0.77l-4.29-0.16l-0.04,0c-1.14-0.03-2.16-0.36-3.01-0.92c-0.81-0.53-1.46-1.26-1.89-2.14 C0.2,78.49-0.02,77.51,0,76.44c0.03-1.48,0.53-3.14,1.62-4.84l4.61-9.42c2.26-4.62,2.24-5.23,2.14-7.66 c-0.04-1.09-0.1-2.48-0.03-4.57c0.08-2.49,0.36-4.87,0.9-7.1c0.38-1.59,0.9-3.1,1.56-4.52l-8.4-3.66c-0.93-0.4-1.35-1.48-0.95-2.41 c0.06-0.13,0.12-0.24,0.2-0.35l0,0c20-27.26,42.6-34.77,61.7-31c11.16,2.2,21.1,8.26,28.63,16.5c7.52,8.22,12.63,18.62,14.15,29.51 c2.49,17.91-4.7,37.09-26.83,50.07c-0.2,0.11-0.4,0.19-0.61,0.23c0.01,2.73,0.18,5.37,0.49,7.94c0.62,5.07,1.81,9.82,3.49,14.28 c0.36,0.95-0.12,2-1.07,2.36s-2-0.12-2.36-1.07c-1.79-4.75-3.05-9.78-3.7-15.13c-0.65-5.33-0.7-10.99-0.08-17.03 c0.1-1.01,1-1.74,2.01-1.64c1.01,0.1,1.74,1,1.64,2.01c-0.14,1.38-0.25,2.74-0.32,4.08c19.59-12.07,25.97-29.42,23.72-45.6 c-1.41-10.15-6.19-19.86-13.21-27.54C82.27,12.2,73.02,6.56,62.65,4.51C45.25,1.08,24.63,7.84,5.99,32.24l7.99,3.49 c0.11,0.04,0.21,0.09,0.32,0.15c0.87,0.52,1.15,1.65,0.62,2.52c-0.97,1.61-1.66,3.4-2.12,5.32c-0.48,1.98-0.72,4.11-0.8,6.35 c-0.06,1.95-0.01,3.28,0.03,4.31c0.13,3.15,0.16,3.95-2.51,9.41l-4.62,9.45c-0.04,0.09-0.09,0.18-0.14,0.27 c-0.73,1.12-1.07,2.14-1.08,3c-0.01,0.46,0.08,0.87,0.24,1.2C4.04,78,4.25,78.24,4.5,78.4c0.3,0.2,0.68,0.31,1.12,0.33l0.07,0 l6.02,0.22v0c0.97,0.03,1.75,0.82,1.77,1.79c0.02,0.82,0.03,1.68,0.04,2.53c0.03,2.46,0.07,4.91,0.27,7.37 c1.29,0.61,2.54,0.99,3.75,1.11C18.93,91.9,20.29,91.69,21.61,91.11L21.61,91.11z M53.24,35.76c0.38-0.38,0.84-0.57,1.37-0.57 c0.52,0,0.99,0.2,1.37,0.57l2.07,2.07c0.56-0.36,1.15-0.68,1.76-0.95c0.61-0.29,1.24-0.52,1.87-0.74v-3.18 c0-0.54,0.18-0.99,0.56-1.37c0.38-0.38,0.83-0.56,1.37-0.56h3.99c0.5,0,0.95,0.18,1.35,0.56c0.38,0.38,0.57,0.83,0.57,1.37v2.91 c0.66,0.16,1.31,0.36,1.94,0.59c0.63,0.23,1.22,0.52,1.78,0.83l2.3-2.26c0.36-0.38,0.79-0.58,1.33-0.58c0.52,0,0.97,0.2,1.37,0.58 l2.78,2.8c0.38,0.38,0.57,0.84,0.57,1.37c0,0.52-0.2,0.99-0.57,1.37l-2.07,2.07c0.36,0.56,0.66,1.15,0.95,1.76 c0.29,0.61,0.52,1.24,0.74,1.89h3.18c0.54,0,0.99,0.18,1.37,0.56c0.38,0.38,0.56,0.83,0.56,1.37v3.99c0,0.5-0.18,0.95-0.56,1.35 c-0.38,0.38-0.83,0.57-1.37,0.57h-2.91c-0.16,0.66-0.36,1.31-0.59,1.94c-0.23,0.63-0.52,1.24-0.83,1.83l2.26,2.26 c0.38,0.36,0.57,0.79,0.57,1.33c0,0.52-0.2,0.97-0.57,1.37l-2.8,2.84c-0.38,0.36-0.84,0.54-1.37,0.54c-0.52,0-0.99-0.18-1.37-0.54 l-2.07-2.1c-0.56,0.36-1.15,0.66-1.76,0.95c-0.61,0.29-1.24,0.52-1.87,0.74v3.18c0,0.54-0.18,0.99-0.56,1.37 c-0.38,0.38-0.83,0.56-1.37,0.56H64.6c-0.5,0-0.95-0.18-1.35-0.56c-0.38-0.38-0.57-0.83-0.57-1.37v-2.91 c-0.66-0.16-1.31-0.36-1.94-0.59c-0.63-0.23-1.24-0.52-1.83-0.83l-2.26,2.26c-0.36,0.38-0.81,0.58-1.35,0.58 c-0.54,0-0.99-0.2-1.35-0.58l-2.84-2.8c-0.36-0.4-0.54-0.84-0.54-1.37c0-0.52,0.18-0.99,0.54-1.37l2.1-2.07 c-0.36-0.56-0.67-1.15-0.95-1.76s-0.52-1.24-0.74-1.87h-3.18c-0.54,0-0.99-0.18-1.37-0.56c-0.38-0.38-0.56-0.83-0.56-1.37v-3.99 c0-0.5,0.18-0.95,0.56-1.35c0.38-0.38,0.83-0.57,1.37-0.57h2.91c0.16-0.65,0.36-1.28,0.59-1.92c0.23-0.65,0.52-1.24,0.83-1.81 l-2.26-2.3c-0.38-0.36-0.57-0.79-0.57-1.33c0-0.52,0.2-0.97,0.57-1.37l2.8-2.78L53.24,35.76L53.24,35.76z M31.16,57.19 c0.25-0.18,0.5-0.23,0.79-0.18c0.29,0.05,0.52,0.2,0.68,0.45l0.93,1.31c0.34-0.14,0.68-0.25,1.04-0.36 c0.36-0.09,0.72-0.16,1.1-0.22l0.31-1.72c0.05-0.29,0.2-0.52,0.43-0.68c0.23-0.16,0.5-0.22,0.79-0.18l2.16,0.38 c0.27,0.05,0.5,0.2,0.68,0.43c0.16,0.23,0.23,0.5,0.18,0.79l-0.27,1.58c0.34,0.14,0.68,0.32,0.99,0.5c0.32,0.2,0.61,0.4,0.9,0.61 l1.46-1.01c0.23-0.18,0.49-0.23,0.77-0.18c0.29,0.05,0.5,0.2,0.68,0.45l1.26,1.78c0.18,0.25,0.23,0.5,0.18,0.79 c-0.05,0.29-0.2,0.52-0.45,0.68l-1.31,0.93c0.14,0.34,0.25,0.68,0.36,1.04c0.09,0.36,0.16,0.72,0.22,1.1l1.72,0.31 c0.29,0.05,0.52,0.2,0.68,0.43c0.16,0.23,0.22,0.5,0.18,0.79l-0.38,2.16c-0.05,0.27-0.2,0.5-0.43,0.68 c-0.23,0.16-0.5,0.23-0.79,0.18l-1.58-0.27c-0.14,0.34-0.32,0.68-0.5,0.99c-0.2,0.32-0.4,0.63-0.61,0.92l1.01,1.44 c0.18,0.23,0.23,0.48,0.18,0.77c-0.05,0.29-0.2,0.5-0.45,0.68l-1.78,1.28c-0.25,0.16-0.5,0.22-0.79,0.16 c-0.29-0.05-0.52-0.2-0.68-0.41l-0.93-1.33c-0.34,0.14-0.68,0.25-1.04,0.36c-0.36,0.09-0.72,0.16-1.1,0.22l-0.31,1.72 c-0.05,0.29-0.2,0.52-0.43,0.68c-0.23,0.16-0.5,0.22-0.79,0.18l-2.16-0.38c-0.27-0.05-0.5-0.2-0.68-0.43 c-0.16-0.23-0.23-0.5-0.18-0.79l0.27-1.58c-0.34-0.14-0.68-0.32-0.99-0.5c-0.32-0.2-0.63-0.4-0.92-0.61l-1.44,1.01 c-0.23,0.18-0.49,0.23-0.79,0.18c-0.29-0.05-0.52-0.2-0.68-0.43l-1.28-1.78c-0.16-0.25-0.22-0.5-0.16-0.79 c0.05-0.29,0.18-0.52,0.41-0.68l1.35-0.93c-0.14-0.34-0.25-0.68-0.36-1.04c-0.09-0.36-0.16-0.72-0.22-1.1l-1.72-0.31 c-0.29-0.05-0.52-0.2-0.68-0.43c-0.16-0.23-0.22-0.5-0.18-0.79l0.38-2.16c0.05-0.27,0.2-0.5,0.43-0.68 c0.23-0.18,0.5-0.23,0.79-0.18l1.58,0.27c0.14-0.34,0.31-0.66,0.5-0.99c0.2-0.32,0.4-0.63,0.61-0.9l-1.01-1.46 c-0.18-0.23-0.23-0.49-0.18-0.77c0.05-0.29,0.2-0.5,0.45-0.68l1.78-1.26L31.16,57.19L31.16,57.19z M37.38,62.69 c-0.52-0.09-1.02-0.07-1.53,0.04c-0.5,0.13-0.95,0.32-1.35,0.59c-0.4,0.29-0.74,0.65-1.02,1.08c-0.29,0.43-0.47,0.92-0.56,1.44 c-0.09,0.52-0.07,1.02,0.04,1.53c0.13,0.5,0.32,0.95,0.59,1.35c0.29,0.4,0.65,0.74,1.08,1.02c0.43,0.29,0.92,0.47,1.44,0.56 c0.52,0.09,1.02,0.07,1.53-0.04c0.5-0.13,0.95-0.32,1.35-0.59c0.4-0.29,0.74-0.65,1.02-1.08c0.29-0.43,0.47-0.92,0.56-1.44 s0.07-1.02-0.04-1.53c-0.13-0.5-0.32-0.95-0.59-1.35c-0.29-0.39-0.65-0.74-1.08-1.02C38.38,62.96,37.9,62.78,37.38,62.69 L37.38,62.69z M66.09,42.85c-1.08,0-2.08,0.2-3.05,0.61c-0.95,0.41-1.78,0.97-2.5,1.67c-0.7,0.7-1.26,1.55-1.67,2.5 c-0.41,0.97-0.61,1.98-0.61,3.05c0,1.08,0.2,2.08,0.61,3.05c0.41,0.95,0.97,1.78,1.67,2.5c0.7,0.7,1.55,1.26,2.5,1.67 c0.95,0.41,1.98,0.61,3.05,0.61c1.08,0,2.08-0.2,3.05-0.61c0.95-0.41,1.78-0.97,2.5-1.67c0.7-0.7,1.26-1.54,1.67-2.5 c0.41-0.95,0.61-1.98,0.61-3.05c0-1.08-0.2-2.08-0.61-3.05c-0.41-0.95-0.97-1.78-1.67-2.5c-0.7-0.7-1.55-1.26-2.5-1.67 C68.17,43.05,67.17,42.85,66.09,42.85L66.09,42.85z"
       id="path2"
       style="stroke:none;fill:#202240;fill-opacity:1" /><path
       style="opacity:1;fill:#fb6b2d;fill-opacity:1;fill-rule:nonzero;stroke:#fb6b2d;stroke-width:1.365;stroke-linecap:round;stroke-linejoin:round;stroke-miterlimit:4;stroke-dasharray:none;stroke-dashoffset:0;stroke-opacity:1;paint-order:markers fill stroke"
       d="m 35.151952,77.177529 c -1.879364,-0.356436 -2.027969,-0.527216 -1.766296,-2.029859 0.146879,-0.843437 0.115058,-1.103314 -0.135096,-1.103314 -0.07081,0 -0.449234,-0.205017 -0.840947,-0.455593 -0.391714,-0.250576 -0.769077,-0.455593 -0.838584,-0.455593 -0.06951,0 -0.511395,0.263593 -0.981972,0.585762 -0.470577,0.32217 -0.95601,0.585763 -1.078742,0.585763 -0.372531,0 -0.704168,-0.313095 -1.494882,-1.4113 -1.009339,-1.401849 -0.994271,-1.675937 0.137087,-2.493604 0.892581,-0.645095 0.863751,-0.527032 0.485365,-1.987626 -0.179811,-0.694085 -0.286283,-0.892537 -0.50183,-0.93536 -1.493705,-0.296754 -1.826379,-0.415976 -2.06669,-0.740655 -0.247681,-0.334635 -0.24878,-0.37957 -0.03979,-1.627119 0.275982,-1.647447 0.472804,-1.93407 1.327456,-1.933122 0.349579,3.91e-4 0.880582,0.04438 1.180006,0.09776 0.463717,0.08267 0.555634,0.06168 0.620153,-0.141601 0.04166,-0.131258 0.282502,-0.582007 0.535206,-1.001663 l 0.459461,-0.763011 -0.591478,-0.865658 c -0.685483,-1.00324 -0.733056,-1.377776 -0.233512,-1.838427 0.501421,-0.462381 2.010545,-1.507725 2.245424,-1.555364 0.461401,-0.09358 0.871376,0.17917 1.406932,0.936024 0.425413,0.601199 0.613996,0.771181 0.781017,0.70398 0.121102,-0.04872 0.614095,-0.185475 1.09554,-0.303887 l 0.875353,-0.215296 0.138584,-0.715932 c 0.07622,-0.393763 0.167056,-0.849219 0.201856,-1.012124 0.0929,-0.434905 0.526298,-0.810274 0.935294,-0.810071 0.902486,4.49e-4 2.557611,0.393573 2.866938,0.680953 0.294336,0.273451 0.311876,0.358907 0.238697,1.162861 -0.04344,0.477246 -0.113177,0.956831 -0.15497,1.065744 -0.05333,0.138985 0.09217,0.282505 0.488029,0.481385 0.310209,0.155849 0.755853,0.427209 0.990321,0.603022 l 0.426303,0.319661 0.833632,-0.594868 c 0.860339,-0.613925 1.395128,-0.743039 1.789991,-0.432156 0.113665,0.08949 0.534895,0.625417 0.936066,1.190945 1.038213,1.463569 1.001049,1.733446 -0.368478,2.675705 -0.500034,0.344032 -0.602181,0.47765 -0.537754,0.703434 0.04374,0.153301 0.175836,0.667659 0.293541,1.143018 l 0.214006,0.864289 0.972886,0.156943 c 1.013794,0.163543 1.587063,0.522839 1.587063,0.99469 0,0.377026 -0.392359,2.438604 -0.523804,2.752233 -0.194086,0.463094 -0.66505,0.571709 -1.722064,0.397146 -0.653041,-0.107846 -0.941574,-0.112009 -0.974226,-0.01405 -0.02552,0.07655 -0.281345,0.528733 -0.56851,1.004859 l -0.522118,0.865683 0.593327,0.831473 c 0.929264,1.302247 0.841544,1.535509 -1.072137,2.851006 -1.242814,0.854332 -1.497652,0.792108 -2.457327,-0.600015 l -0.412961,-0.599049 -0.802705,0.24983 c -0.441486,0.137406 -0.916087,0.24983 -1.054667,0.24983 -0.295815,0 -0.45916,0.36641 -0.584473,1.311067 -0.09381,0.707156 -0.443192,1.225737 -0.897657,1.332365 -0.143187,0.0336 -0.787526,-0.0389 -1.431865,-0.161107 z m 3.396351,-7.239125 c 2.914363,-1.49046 2.67613,-5.925599 -0.379705,-7.068934 -2.649672,-0.991369 -5.317583,0.836011 -5.317583,3.642268 0,2.955177 3.041844,4.78471 5.697288,3.426666 z"
       id="path4581"
       inkscape:connector-curvature="0" /><path
       style="opacity:1;fill:#fb6b2d;fill-opacity:1;fill-rule:nonzero;stroke:#fb6b2d;stroke-width:1.365;stroke-linecap:round;stroke-linejoin:round;stroke-miterlimit:4;stroke-dasharray:none;stroke-dashoffset:0;stroke-opacity:1;paint-order:markers fill stroke"
       d="m 64.202721,70.311509 c -0.202144,-0.03366 -0.588386,-0.282058 -0.858313,-0.551985 -0.578347,-0.578347 -0.65814,-0.927129 -0.660176,-2.885691 l -0.0014,-1.377981 -0.81287,-0.225997 C 61.42285,65.145556 60.568908,64.83415 59.972281,64.577841 l -1.084776,-0.466014 -1.193878,1.173048 c -0.656633,0.645177 -1.338709,1.269149 -1.515723,1.386604 -0.396614,0.263167 -1.199804,0.276296 -1.669704,0.02729 -0.193326,-0.102445 -1.10229,-0.941921 -2.019919,-1.865501 -1.310424,-1.318923 -1.691838,-1.783081 -1.777568,-2.163198 -0.194095,-0.860592 0.04826,-1.338673 1.348055,-2.659188 l 1.19276,-1.211777 -0.659278,-1.326528 C 52.229647,56.742987 51.837616,55.8971 51.721069,55.592829 l -0.211903,-0.55322 h -1.839308 c -2.049451,0 -2.376689,-0.0919 -2.890016,-0.811595 -0.292741,-0.410431 -0.303144,-0.512908 -0.303144,-2.986317 0,-2.383876 0.01859,-2.586204 0.268382,-2.920771 0.61094,-0.818287 0.831185,-0.892598 2.780926,-0.938287 l 1.794655,-0.04206 0.221843,-0.804046 c 0.122014,-0.442226 0.430925,-1.292799 0.686469,-1.890164 L 52.6936,43.560257 51.856244,42.693832 c -1.760425,-1.821538 -1.930055,-2.052629 -1.930055,-2.629362 0,-0.292679 0.06491,-0.660089 0.144252,-0.816467 0.2066,-0.407213 3.367535,-3.585661 3.786911,-3.807891 0.420179,-0.222656 1.05489,-0.240981 1.446886,-0.04177 0.156379,0.07947 0.821564,0.674148 1.478191,1.321507 l 1.193866,1.177018 1.047176,-0.544801 c 0.575948,-0.29964 1.415249,-0.683018 1.865116,-0.851952 l 0.817941,-0.307151 0.06509,-1.940501 c 0.07183,-2.141503 0.166501,-2.431204 0.950801,-2.909422 0.372688,-0.227242 0.66659,-0.253668 2.824114,-0.253922 2.650902,-3.13e-4 3.030622,0.0871 3.570409,0.821892 0.236217,0.321555 0.274832,0.591153 0.311927,2.177743 l 0.04233,1.810756 0.933936,0.276195 c 0.513665,0.151906 1.36772,0.47564 1.8979,0.719407 L 73.267,37.33832 74.646123,35.993433 c 2.151662,-2.09825 2.34304,-2.079456 4.91506,0.482678 2.546943,2.537154 2.580415,2.823873 0.563954,4.83099 -0.644133,0.641149 -1.171152,1.216905 -1.171152,1.279457 0,0.06255 0.290983,0.694977 0.646628,1.405389 0.355644,0.710413 0.716373,1.524455 0.80162,1.808983 l 0.154995,0.517325 h 1.76067 c 2.159795,0 2.701206,0.190589 3.144864,1.107064 0.256434,0.529722 0.273366,0.743661 0.235621,2.976978 -0.03704,2.191265 -0.06465,2.438315 -0.309051,2.765259 -0.605985,0.810637 -0.82909,0.886487 -2.764169,0.939751 l -1.78372,0.0491 -0.302099,0.994824 c -0.166153,0.547153 -0.483892,1.393558 -0.706085,1.880901 l -0.403987,0.886076 1.245029,1.261721 c 1.388807,1.407425 1.533922,1.625304 1.533922,2.303075 0,0.666182 -0.125752,0.851929 -1.746302,2.579444 -1.674749,1.785293 -2.062046,2.063269 -2.874715,2.063269 -0.752666,0 -1.173578,-0.267845 -2.45668,-1.563284 L 74.105711,63.52776 73.386,63.961309 c -0.39584,0.238451 -1.203508,0.621738 -1.794817,0.851747 l -1.075108,0.4182 -0.04409,1.924092 c -0.04797,2.093033 -0.112379,2.292459 -0.940141,2.910796 -0.328547,0.245424 -0.556127,0.270015 -2.660432,0.287478 -1.265632,0.0105 -2.466541,-0.0084 -2.668686,-0.04211 z M 68.083379,58.29422 c 2.707447,-0.692448 4.77003,-2.727915 5.613665,-5.539865 0.31464,-1.048738 0.314295,-3.101504 -6.51e-4,-4.158134 -0.82367,-2.762804 -2.94015,-4.848972 -5.613014,-5.532575 -1.876428,-0.479909 -3.552539,-0.318443 -5.335495,0.51399 -1.376758,0.642785 -2.374842,1.483022 -3.165075,2.664518 -1.007015,1.505615 -1.260688,2.39837 -1.260688,4.436779 0,1.43033 0.04657,1.826977 0.300915,2.563094 0.647014,1.872556 2.026158,3.470504 3.785094,4.385602 1.79936,0.936131 3.733234,1.163275 5.675249,0.666591 z"
       id="path4583"
       inkscape:connector-curvature="0" /></g></svg>