<?xml version="1.0" encoding="UTF-8" standalone="no"?>
<svg
   xmlns:dc="http://purl.org/dc/elements/1.1/"
   xmlns:cc="http://creativecommons.org/ns#"
   xmlns:rdf="http://www.w3.org/1999/02/22-rdf-syntax-ns#"
   xmlns:svg="http://www.w3.org/2000/svg"
   xmlns="http://www.w3.org/2000/svg"
   xmlns:sodipodi="http://sodipodi.sourceforge.net/DTD/sodipodi-0.dtd"
   xmlns:inkscape="http://www.inkscape.org/namespaces/inkscape"
   width="800"
   height="800"
   version="1.1"
   viewBox="0 0 800.00001 800.00001"
   id="svg23"
   sodipodi:docname="sort.svg"
   inkscape:version="0.92.4 (5da689c313, 2019-01-14)">
  <metadata
     id="metadata27">
    <rdf:RDF>
      <cc:Work
         rdf:about="">
        <dc:format>image/svg+xml</dc:format>
        <dc:type
           rdf:resource="http://purl.org/dc/dcmitype/StillImage" />
      </cc:Work>
    </rdf:RDF>
  </metadata>
  <sodipodi:namedview
     pagecolor="#ffffff"
     bordercolor="#666666"
     borderopacity="1"
     objecttolerance="10"
     gridtolerance="10"
     guidetolerance="10"
     inkscape:pageopacity="0"
     inkscape:pageshadow="2"
     inkscape:window-width="1920"
     inkscape:window-height="1017"
     id="namedview25"
     showgrid="false"
     inkscape:zoom="0.295"
     inkscape:cx="-628.81356"
     inkscape:cy="400"
     inkscape:window-x="-8"
     inkscape:window-y="-8"
     inkscape:window-maximized="1"
     inkscape:current-layer="svg23" />
  <defs
     id="defs13">
    <linearGradient
       id="c"
       x1="349.66"
       x2="-68.235"
       y1="416.43"
       y2="847.86"
       gradientUnits="userSpaceOnUse">
      <stop
         stop-opacity=".4"
         offset="0"
         id="stop2" />
      <stop
         stop-opacity="0"
         offset="1"
         id="stop4" />
    </linearGradient>
    <mask
       id="b"
       maskUnits="userSpaceOnUse">
      <circle
         cx="400"
         cy="652.36"
         r="400"
         color="#000000"
         color-rendering="auto"
         fill="#fff"
         image-rendering="auto"
         shape-rendering="auto"
         solid-color="#000000"
         style="isolation:auto;mix-blend-mode:normal"
         id="circle7" />
    </mask>
    <mask
       id="a"
       maskUnits="userSpaceOnUse">
      <circle
         cx="400"
         cy="400"
         r="400"
         color="#000000"
         color-rendering="auto"
         fill="#fff"
         image-rendering="auto"
         shape-rendering="auto"
         solid-color="#000000"
         style="isolation:auto;mix-blend-mode:normal"
         id="circle10" />
    </mask>
  </defs>
  <g
     transform="translate(0 -252.36)"
     shape-rendering="auto"
     id="g21"
     style="fill:#5d21bc;fill-opacity:1">
    <circle
       cx="400"
       cy="652.36"
       r="400"
       color="#000000"
       color-rendering="auto"
       fill="#1c8adb"
       image-rendering="auto"
       solid-color="#000000"
       style="isolation:auto;mix-blend-mode:normal;fill:#5d21bc;fill-opacity:1"
       id="circle15" />
    <path
       transform="translate(0 252.36)"
       d="m348.33 193.95c-39.509 0-79.016 15.072-109.16 45.215l-235.31 235.31c29.254 173.81 108.78 311.28 360.03 324.62l242.17-242.16-126.92-126.92c38.052-60.904 29.082-140-21.641-190.84-30.145-30.143-69.654-45.215-109.16-45.215z"
       color="#000000"
       color-rendering="auto"
       fill="url(#c)"
       image-rendering="auto"
       mask="url(#a)"
       solid-color="#000000"
       style="isolation:auto;mix-blend-mode:normal;fill:#5d21bc;fill-opacity:1"
       id="path17" />
    <path
       d="m239.17 491.53a154.38 154.38 0 0 0 0 218.32 154.38 154.38 0 0 0 190.84 21.641l126.92 126.92 49.123-49.121-126.92-126.92a154.38 154.38 0 0 0 -21.64 -190.84 154.38 154.38 0 0 0 -218.32 0zm36.394 36.395a102.92 102.92 0 0 1 145.53 0 102.92 102.92 0 0 1 0 145.54 102.92 102.92 0 0 1 -145.53 0 102.92 102.92 0 0 1 0 -145.54z"
       color="#000000"
       color-rendering="auto"
       fill="#fff"
       image-rendering="auto"
       mask="url(#b)"
       solid-color="#000000"
       style="isolation:auto;mix-blend-mode:normal;fill:#5d21bc;fill-opacity:1"
       id="path19" />
  </g>
  <path
     inkscape:connector-curvature="0"
     style="fill-rule:evenodd;stroke-width:44.49325562;fill:#ffffff;fill-opacity:1"
     d="m 558.39567,295.06908 c 17.37596,17.3755 17.37596,45.5473 0,62.92281 -17.3755,17.3755 -45.5473,17.3755 -62.9228,0 L 401.08843,263.60745 306.704,357.99189 c -17.37595,17.3755 -45.5473,17.3755 -62.92326,0 -17.3755,-17.37551 -17.3755,-45.54731 0,-62.92281 L 401.08843,137.76139 Z M 243.71089,514.49069 c -17.37551,-17.37551 -17.37551,-45.54731 0,-62.92281 17.37551,-17.37595 45.5473,-17.37595 62.92281,0 l 94.38443,94.38443 94.38444,-94.38443 c 17.37595,-17.37595 45.5473,-17.37595 62.92325,0 17.37551,17.3755 17.37551,45.5473 0,62.92281 L 401.01813,671.79793 Z"
     id="path2" />
</svg>
