<?xml version="1.0" encoding="UTF-8" standalone="no"?>
<svg
   xmlns:dc="http://purl.org/dc/elements/1.1/"
   xmlns:cc="http://creativecommons.org/ns#"
   xmlns:rdf="http://www.w3.org/1999/02/22-rdf-syntax-ns#"
   xmlns:svg="http://www.w3.org/2000/svg"
   xmlns="http://www.w3.org/2000/svg"
   xmlns:sodipodi="http://sodipodi.sourceforge.net/DTD/sodipodi-0.dtd"
   xmlns:inkscape="http://www.inkscape.org/namespaces/inkscape"
   version="1.1"
   id="Layer_1"
   x="0px"
   y="0px"
   viewBox="0 0 123.18544 84.684227"
   xml:space="preserve"
   sodipodi:docname="training-online.svg"
   inkscape:version="0.92.4 (5da689c313, 2019-01-14)"
   width="123.18544"
   height="84.684227"><metadata
     id="metadata13"><rdf:RDF><cc:Work
         rdf:about=""><dc:format>image/svg+xml</dc:format><dc:type
           rdf:resource="http://purl.org/dc/dcmitype/StillImage" /></cc:Work></rdf:RDF></metadata><defs
     id="defs11" /><sodipodi:namedview
     pagecolor="#ffffff"
     bordercolor="#666666"
     borderopacity="1"
     objecttolerance="10"
     gridtolerance="10"
     guidetolerance="10"
     inkscape:pageopacity="0"
     inkscape:pageshadow="2"
     inkscape:window-width="1139"
     inkscape:window-height="713"
     id="namedview9"
     showgrid="false"
     inkscape:zoom="2.335612"
     inkscape:cx="78.233448"
     inkscape:cy="50.94578"
     inkscape:window-x="707"
     inkscape:window-y="129"
     inkscape:window-maximized="0"
     inkscape:current-layer="g6" /><style
     type="text/css"
     id="style2">.st0{fill-rule:evenodd;clip-rule:evenodd;}</style><g
     id="g6"
     style="fill:#96c8ec;fill-opacity:1"
     transform="translate(0.30543966)"><path
       class="st0"
       d="m 37.54,0 h 82.81 c 1.35,0 2.46,1.11 2.46,2.46 v 14.43 h 0.07 v 51.9 2.88 0.62 H 39.51 v -3.5 h 79.87 V 17.5 H 32.61 V 4.93 C 32.61,2.22 34.83,0 37.54,0 Z M 0.01,41.38 c -0.31,-5.8 4.45,-7.28 10.9,-6.9 l 8.14,9.07 7.97,-8.95 19.74,-0.11 c 7.46,0.85 5.89,8.65 0,8.98 H 33.84 L 30.8,61.73 28.5,80.27 c -0.6,1.96 -1.8,3.24 -3.53,3.9 L 13.74,84.25 C 11.48,83.91 10.13,82.59 9.73,80.27 L 7.98,63.76 C 3.38,64.2 1.84,60.94 1.36,56.22 Z M 18.56,9.77 c 5.53,0 10.01,4.48 10.01,10.01 0,5.53 -4.48,10.01 -10.01,10.01 C 13.03,29.79 8.55,25.31 8.55,19.78 8.54,14.26 13.03,9.77 18.56,9.77 Z m 0.38,29.52 -6.34,-6.95 1.87,-1.49 c 2.75,1.15 5.48,1.15 8.18,0 l 2.56,1.52 z M 66.04,4.48 c 2.01,0 3.64,1.63 3.64,3.64 0,2.01 -1.63,3.64 -3.64,3.64 -2.01,0 -3.64,-1.63 -3.64,-3.64 0,-2.01 1.63,-3.64 3.64,-3.64 z m -20.71,0 c 2.01,0 3.64,1.63 3.64,3.64 0,2.01 -1.63,3.64 -3.64,3.64 -2.01,0 -3.64,-1.63 -3.64,-3.64 0,-2.01 1.63,-3.64 3.64,-3.64 z m 10.35,0 c 2.01,0 3.64,1.63 3.64,3.64 0,2.01 -1.63,3.64 -3.64,3.64 -2.01,0 -3.64,-1.63 -3.64,-3.64 0,-2.01 1.63,-3.64 3.64,-3.64 z m 53.43,1.65 c -0.37,-0.37 -0.37,-0.98 0,-1.35 0.37,-0.37 0.98,-0.37 1.35,0 l 2,2 2,-2 c 0.37,-0.37 0.98,-0.37 1.35,0 0.37,0.37 0.37,0.98 0,1.35 l -2,2 2,2 c 0.37,0.37 0.37,0.98 0,1.35 -0.37,0.37 -0.98,0.37 -1.35,0 l -2,-2 -2,2 c -0.37,0.37 -0.98,0.37 -1.35,0 -0.37,-0.37 -0.37,-0.98 0,-1.35 l 2,-2 z"
       id="path4"
       style="clip-rule:evenodd;fill:#96c8ec;fill-opacity:1;fill-rule:evenodd"
       inkscape:connector-curvature="0" /><path
       style="opacity:1;fill:#202240;fill-opacity:1;fill-rule:nonzero;stroke:#202240;stroke-width:1.06200004;stroke-linecap:round;stroke-linejoin:round;stroke-miterlimit:4;stroke-dasharray:none;stroke-dashoffset:0;stroke-opacity:1;paint-order:markers fill stroke"
       d="M 12.025993,83.527578 C 11.41092,83.193293 10.687873,82.382161 10.419221,81.72507 10.014066,80.734101 8.2367447,66.724681 8.2242931,64.423938 8.2216523,63.935958 7.6947429,63.66052 6.4426017,63.492573 2.6880571,62.988983 1.8304956,60.663366 0.71811755,47.96837 0.07567725,40.636531 0.06922331,39.653476 0.65433504,38.253106 1.5108033,36.203289 3.9612671,34.952126 7.73991,34.635339 l 2.868551,-0.240489 4.025342,4.443082 c 2.213938,2.443695 4.152677,4.497746 4.308309,4.564558 0.155632,0.06681 1.968933,-1.763544 4.029559,-4.067456 l 3.746593,-4.188933 2.632394,-0.27107 c 4.262561,-0.438937 17.070913,-0.406822 18.65249,0.04677 3.291056,0.943862 4.531827,4.099247 2.585095,6.574113 -1.269924,1.614451 -3.262883,1.994111 -10.481785,1.99679 l -6.433806,0.0024 -1.589387,9.740487 c -0.874163,5.357268 -2.080016,13.664848 -2.679673,18.461288 -0.599657,4.79644 -1.3757,9.272732 -1.724542,9.947317 -1.100066,2.127293 -2.510166,2.527385 -8.84045,2.508328 -4.080066,-0.01229 -6.011315,-0.189441 -6.812607,-0.624933 z"
       id="path4527"
       inkscape:connector-curvature="0" /><path
       style="opacity:1;fill:#202240;fill-opacity:1;fill-rule:nonzero;stroke:#202240;stroke-width:1;stroke-linecap:round;stroke-linejoin:round;stroke-miterlimit:4;stroke-dasharray:none;stroke-dashoffset:0;stroke-opacity:1;paint-order:markers fill stroke"
       d="m 15.71007,35.555098 c -2.740536,-3.062067 -2.849189,-3.262693 -2.086207,-3.852152 0.442697,-0.342015 1.190241,-0.525961 1.66121,-0.408768 2.450867,0.609858 4.066874,0.673936 5.726431,0.227063 1.545037,-0.416035 2.004578,-0.384922 2.890741,0.195714 l 1.053664,0.690387 -2.854168,3.189031 c -1.569793,1.753967 -2.999607,3.189031 -3.177365,3.189031 -0.177758,0 -1.624196,-1.453638 -3.214306,-3.230306 z"
       id="path4529"
       inkscape:connector-curvature="0" /><path
       style="opacity:1;fill:#202240;fill-opacity:1;fill-rule:nonzero;stroke:#202240;stroke-width:0.56199998;stroke-linecap:round;stroke-linejoin:round;stroke-miterlimit:4;stroke-dasharray:none;stroke-dashoffset:0;stroke-opacity:1;paint-order:markers fill stroke"
       d="M 16.229881,29.325863 C 13.04851,28.576988 10.424655,26.157062 9.2817621,22.917757 8.0826985,19.519249 8.718742,16.309676 11.155427,13.462957 15.618973,8.2483076 24.0073,9.1483198 27.147728,15.178826 c 2.936209,5.638348 0.174926,12.175746 -5.917251,14.009221 -2.242156,0.67479 -2.669396,0.686565 -5.000596,0.137816 z"
       id="path4531"
       inkscape:connector-curvature="0" /></g></svg>