<svg id="Layer_1" data-name="Layer 1" xmlns="http://www.w3.org/2000/svg" viewBox="0 0 122.88 122.88"><title>wait-loader</title><path d="M57.85,3.61a3.61,3.61,0,1,1,7.21,0V27.45a3.61,3.61,0,0,1-7.21,0V3.61ZM29.42,13.15a3.6,3.6,0,0,1,6.23-3.61L47.57,30.19a3.6,3.6,0,1,1-6.22,3.61L29.42,13.15ZM9.57,35.62a3.59,3.59,0,0,1,3.58-6.22L33.8,41.32a3.59,3.59,0,1,1-3.58,6.22L9.57,35.62ZM3.61,65a3.61,3.61,0,1,1,0-7.21H27.45a3.61,3.61,0,0,1,0,7.21Zm9.54,28.43a3.6,3.6,0,1,1-3.61-6.23L30.19,75.31a3.6,3.6,0,1,1,3.61,6.22L13.15,93.46Zm22.47,19.85a3.59,3.59,0,0,1-6.22-3.58L41.32,89.08a3.59,3.59,0,1,1,6.22,3.58L35.62,113.31Zm29.41,6a3.61,3.61,0,1,1-7.21,0V95.43a3.61,3.61,0,0,1,7.21,0v23.84Zm28.43-9.54a3.6,3.6,0,0,1-6.23,3.61L75.31,92.69a3.6,3.6,0,0,1,6.22-3.61l11.93,20.65Zm19.85-22.47a3.59,3.59,0,0,1-3.58,6.22L89.08,81.56a3.59,3.59,0,1,1,3.58-6.22l20.65,11.92Zm6-29.41a3.61,3.61,0,1,1,0,7.21H95.43a3.61,3.61,0,0,1,0-7.21Zm-9.54-28.43a3.6,3.6,0,0,1,3.61,6.23L92.69,47.57a3.6,3.6,0,0,1-3.61-6.22l20.65-11.93ZM87.26,9.57a3.59,3.59,0,1,1,6.22,3.58L81.56,33.8a3.59,3.59,0,1,1-6.22-3.58L87.26,9.57Z"/></svg>